%TF.GenerationSoftware,KiCad,Pcbnew,9.0.9-9.0.9~ubuntu22.04.1*%
%TF.CreationDate,2026-06-19T15:14:13+07:00*%
%TF.ProjectId,Totebox Alert,546f7465-626f-4782-9041-6c6572742e6b,rev?*%
%TF.SameCoordinates,Original*%
%TF.FileFunction,AssemblyDrawing,Bot*%
%FSLAX46Y46*%
G04 Gerber Fmt 4.6, Leading zero omitted, Abs format (unit mm)*
G04 Created by KiCad (PCBNEW 9.0.9-9.0.9~ubuntu22.04.1) date 2026-06-19 15:14:13*
%MOMM*%
%LPD*%
G01*
G04 APERTURE LIST*
%ADD10C,0.072222*%
%ADD11C,0.100000*%
%ADD12C,0.044444*%
%ADD13C,0.100000*%
%TD*%
%ADD14C,0.054167*%
%ADD15C,0.043333*%
%ADD16C,0.047222*%
%ADD17C,0.069444*%
%TA.AperFunction,Profile*%
%ADD18C,0.200000*%
%TD*%
%TA.AperFunction,Profile*%
%ADD19C,0.050000*%
%TD*%
G04 APERTURE END LIST*
D10*
X199661111Y-46800514D02*
X200197618Y-46800514D01*
X200197618Y-46800514D02*
X199908730Y-47130673D01*
X199908730Y-47130673D02*
X200032539Y-47130673D01*
X200032539Y-47130673D02*
X200115079Y-47171943D01*
X200115079Y-47171943D02*
X200156349Y-47213212D01*
X200156349Y-47213212D02*
X200197618Y-47295752D01*
X200197618Y-47295752D02*
X200197618Y-47502101D01*
X200197618Y-47502101D02*
X200156349Y-47584641D01*
X200156349Y-47584641D02*
X200115079Y-47625911D01*
X200115079Y-47625911D02*
X200032539Y-47667180D01*
X200032539Y-47667180D02*
X199784920Y-47667180D01*
X199784920Y-47667180D02*
X199702381Y-47625911D01*
X199702381Y-47625911D02*
X199661111Y-47584641D01*
D11*
%TO.C,SMPS IN*%
X201250000Y-47270000D02*
G75*
G02*
X198650000Y-47270000I-1300000J0D01*
G01*
X198650000Y-47270000D02*
G75*
G02*
X201250000Y-47270000I1300000J0D01*
G01*
D10*
X194622381Y-46883054D02*
X194663651Y-46841784D01*
X194663651Y-46841784D02*
X194746190Y-46800514D01*
X194746190Y-46800514D02*
X194952539Y-46800514D01*
X194952539Y-46800514D02*
X195035079Y-46841784D01*
X195035079Y-46841784D02*
X195076349Y-46883054D01*
X195076349Y-46883054D02*
X195117618Y-46965594D01*
X195117618Y-46965594D02*
X195117618Y-47048133D01*
X195117618Y-47048133D02*
X195076349Y-47171943D01*
X195076349Y-47171943D02*
X194581111Y-47667180D01*
X194581111Y-47667180D02*
X195117618Y-47667180D01*
D11*
X196170000Y-47270000D02*
G75*
G02*
X193570000Y-47270000I-1300000J0D01*
G01*
X193570000Y-47270000D02*
G75*
G02*
X196170000Y-47270000I1300000J0D01*
G01*
D10*
X190037618Y-47667180D02*
X189542381Y-47667180D01*
X189790000Y-47667180D02*
X189790000Y-46800514D01*
X189790000Y-46800514D02*
X189707460Y-46924324D01*
X189707460Y-46924324D02*
X189624920Y-47006863D01*
X189624920Y-47006863D02*
X189542381Y-47048133D01*
D11*
X188490000Y-45970000D02*
X188490000Y-48570000D01*
X191090000Y-48570000D01*
X191090000Y-45970000D01*
X188490000Y-45970000D01*
%TD*%
D10*
X200147618Y-33337180D02*
X199652381Y-33337180D01*
X199900000Y-33337180D02*
X199900000Y-32470514D01*
X199900000Y-32470514D02*
X199817460Y-32594324D01*
X199817460Y-32594324D02*
X199734920Y-32676863D01*
X199734920Y-32676863D02*
X199652381Y-32718133D01*
D11*
%TO.C,220 VAC*%
X198600000Y-31640000D02*
X198600000Y-34240000D01*
X201200000Y-34240000D01*
X201200000Y-31640000D01*
X198600000Y-31640000D01*
D10*
X194572381Y-32553054D02*
X194613651Y-32511784D01*
X194613651Y-32511784D02*
X194696190Y-32470514D01*
X194696190Y-32470514D02*
X194902539Y-32470514D01*
X194902539Y-32470514D02*
X194985079Y-32511784D01*
X194985079Y-32511784D02*
X195026349Y-32553054D01*
X195026349Y-32553054D02*
X195067618Y-32635594D01*
X195067618Y-32635594D02*
X195067618Y-32718133D01*
X195067618Y-32718133D02*
X195026349Y-32841943D01*
X195026349Y-32841943D02*
X194531111Y-33337180D01*
X194531111Y-33337180D02*
X195067618Y-33337180D01*
D11*
X196120000Y-32940000D02*
G75*
G02*
X193520000Y-32940000I-1300000J0D01*
G01*
X193520000Y-32940000D02*
G75*
G02*
X196120000Y-32940000I1300000J0D01*
G01*
D10*
X189451111Y-32470514D02*
X189987618Y-32470514D01*
X189987618Y-32470514D02*
X189698730Y-32800673D01*
X189698730Y-32800673D02*
X189822539Y-32800673D01*
X189822539Y-32800673D02*
X189905079Y-32841943D01*
X189905079Y-32841943D02*
X189946349Y-32883212D01*
X189946349Y-32883212D02*
X189987618Y-32965752D01*
X189987618Y-32965752D02*
X189987618Y-33172101D01*
X189987618Y-33172101D02*
X189946349Y-33254641D01*
X189946349Y-33254641D02*
X189905079Y-33295911D01*
X189905079Y-33295911D02*
X189822539Y-33337180D01*
X189822539Y-33337180D02*
X189574920Y-33337180D01*
X189574920Y-33337180D02*
X189492381Y-33295911D01*
X189492381Y-33295911D02*
X189451111Y-33254641D01*
D11*
X191040000Y-32940000D02*
G75*
G02*
X188440000Y-32940000I-1300000J0D01*
G01*
X188440000Y-32940000D02*
G75*
G02*
X191040000Y-32940000I1300000J0D01*
G01*
%TD*%
D12*
X117982380Y-53722418D02*
X117677619Y-53722418D01*
X117830000Y-53722418D02*
X117830000Y-53189085D01*
X117830000Y-53189085D02*
X117779206Y-53265276D01*
X117779206Y-53265276D02*
X117728412Y-53316069D01*
X117728412Y-53316069D02*
X117677619Y-53341466D01*
D11*
%TO.C,R9*%
X118630000Y-53478000D02*
G75*
G02*
X117030000Y-53478000I-800000J0D01*
G01*
X117030000Y-53478000D02*
G75*
G02*
X118630000Y-53478000I800000J0D01*
G01*
D12*
X127837619Y-53239879D02*
X127863016Y-53214482D01*
X127863016Y-53214482D02*
X127913809Y-53189085D01*
X127913809Y-53189085D02*
X128040793Y-53189085D01*
X128040793Y-53189085D02*
X128091587Y-53214482D01*
X128091587Y-53214482D02*
X128116984Y-53239879D01*
X128116984Y-53239879D02*
X128142380Y-53290673D01*
X128142380Y-53290673D02*
X128142380Y-53341466D01*
X128142380Y-53341466D02*
X128116984Y-53417657D01*
X128116984Y-53417657D02*
X127812222Y-53722418D01*
X127812222Y-53722418D02*
X128142380Y-53722418D01*
D11*
X128790000Y-53478000D02*
G75*
G02*
X127190000Y-53478000I-800000J0D01*
G01*
X127190000Y-53478000D02*
G75*
G02*
X128790000Y-53478000I800000J0D01*
G01*
%TD*%
D12*
X117832380Y-73752797D02*
X117527619Y-73752797D01*
X117680000Y-73752797D02*
X117680000Y-73219464D01*
X117680000Y-73219464D02*
X117629206Y-73295655D01*
X117629206Y-73295655D02*
X117578412Y-73346448D01*
X117578412Y-73346448D02*
X117527619Y-73371845D01*
D11*
%TO.C,R11*%
X118480000Y-73508379D02*
G75*
G02*
X116880000Y-73508379I-800000J0D01*
G01*
X116880000Y-73508379D02*
G75*
G02*
X118480000Y-73508379I800000J0D01*
G01*
D12*
X127687619Y-73270258D02*
X127713016Y-73244861D01*
X127713016Y-73244861D02*
X127763809Y-73219464D01*
X127763809Y-73219464D02*
X127890793Y-73219464D01*
X127890793Y-73219464D02*
X127941587Y-73244861D01*
X127941587Y-73244861D02*
X127966984Y-73270258D01*
X127966984Y-73270258D02*
X127992380Y-73321052D01*
X127992380Y-73321052D02*
X127992380Y-73371845D01*
X127992380Y-73371845D02*
X127966984Y-73448036D01*
X127966984Y-73448036D02*
X127662222Y-73752797D01*
X127662222Y-73752797D02*
X127992380Y-73752797D01*
D11*
X128640000Y-73508379D02*
G75*
G02*
X127040000Y-73508379I-800000J0D01*
G01*
X127040000Y-73508379D02*
G75*
G02*
X128640000Y-73508379I800000J0D01*
G01*
%TD*%
D12*
X145652380Y-51562039D02*
X145347619Y-51562039D01*
X145500000Y-51562039D02*
X145500000Y-51028706D01*
X145500000Y-51028706D02*
X145449206Y-51104897D01*
X145449206Y-51104897D02*
X145398412Y-51155690D01*
X145398412Y-51155690D02*
X145347619Y-51181087D01*
D11*
D13*
%TO.C,C9*%
D11*
X146050000Y-50517621D02*
X146145671Y-50536651D01*
X146226777Y-50590844D01*
X146280970Y-50671950D01*
X146300000Y-50767621D01*
X146300000Y-51867621D01*
X146280970Y-51963292D01*
X146226777Y-52044398D01*
X146145671Y-52098591D01*
X146050000Y-52117621D01*
X144950000Y-52117621D01*
X144854329Y-52098591D01*
X144773223Y-52044398D01*
X144719030Y-51963292D01*
X144700000Y-51867621D01*
X144700000Y-50767621D01*
X144719030Y-50671950D01*
X144773223Y-50590844D01*
X144854329Y-50536651D01*
X144950000Y-50517621D01*
X146050000Y-50517621D01*
D12*
X145347619Y-53579500D02*
X145373016Y-53554103D01*
X145373016Y-53554103D02*
X145423809Y-53528706D01*
X145423809Y-53528706D02*
X145550793Y-53528706D01*
X145550793Y-53528706D02*
X145601587Y-53554103D01*
X145601587Y-53554103D02*
X145626984Y-53579500D01*
X145626984Y-53579500D02*
X145652380Y-53630294D01*
X145652380Y-53630294D02*
X145652380Y-53681087D01*
X145652380Y-53681087D02*
X145626984Y-53757278D01*
X145626984Y-53757278D02*
X145322222Y-54062039D01*
X145322222Y-54062039D02*
X145652380Y-54062039D01*
D11*
X146300000Y-53817621D02*
G75*
G02*
X144700000Y-53817621I-800000J0D01*
G01*
X144700000Y-53817621D02*
G75*
G02*
X146300000Y-53817621I800000J0D01*
G01*
%TD*%
D12*
X55362380Y-81994418D02*
X55057619Y-81994418D01*
X55210000Y-81994418D02*
X55210000Y-81461085D01*
X55210000Y-81461085D02*
X55159206Y-81537276D01*
X55159206Y-81537276D02*
X55108412Y-81588069D01*
X55108412Y-81588069D02*
X55057619Y-81613466D01*
D11*
%TO.C,C6*%
X56010000Y-81750000D02*
G75*
G02*
X54410000Y-81750000I-800000J0D01*
G01*
X54410000Y-81750000D02*
G75*
G02*
X56010000Y-81750000I800000J0D01*
G01*
D12*
X55057619Y-84011879D02*
X55083016Y-83986482D01*
X55083016Y-83986482D02*
X55133809Y-83961085D01*
X55133809Y-83961085D02*
X55260793Y-83961085D01*
X55260793Y-83961085D02*
X55311587Y-83986482D01*
X55311587Y-83986482D02*
X55336984Y-84011879D01*
X55336984Y-84011879D02*
X55362380Y-84062673D01*
X55362380Y-84062673D02*
X55362380Y-84113466D01*
X55362380Y-84113466D02*
X55336984Y-84189657D01*
X55336984Y-84189657D02*
X55032222Y-84494418D01*
X55032222Y-84494418D02*
X55362380Y-84494418D01*
D11*
X56010000Y-84250000D02*
G75*
G02*
X54410000Y-84250000I-800000J0D01*
G01*
X54410000Y-84250000D02*
G75*
G02*
X56010000Y-84250000I800000J0D01*
G01*
%TD*%
D12*
X55502380Y-71802039D02*
X55197619Y-71802039D01*
X55350000Y-71802039D02*
X55350000Y-71268706D01*
X55350000Y-71268706D02*
X55299206Y-71344897D01*
X55299206Y-71344897D02*
X55248412Y-71395690D01*
X55248412Y-71395690D02*
X55197619Y-71421087D01*
D11*
D13*
%TO.C,C5*%
D11*
X55900000Y-70757621D02*
X55995671Y-70776651D01*
X56076777Y-70830844D01*
X56130970Y-70911950D01*
X56150000Y-71007621D01*
X56150000Y-72107621D01*
X56130970Y-72203292D01*
X56076777Y-72284398D01*
X55995671Y-72338591D01*
X55900000Y-72357621D01*
X54800000Y-72357621D01*
X54704329Y-72338591D01*
X54623223Y-72284398D01*
X54569030Y-72203292D01*
X54550000Y-72107621D01*
X54550000Y-71007621D01*
X54569030Y-70911950D01*
X54623223Y-70830844D01*
X54704329Y-70776651D01*
X54800000Y-70757621D01*
X55900000Y-70757621D01*
D12*
X55197619Y-73819500D02*
X55223016Y-73794103D01*
X55223016Y-73794103D02*
X55273809Y-73768706D01*
X55273809Y-73768706D02*
X55400793Y-73768706D01*
X55400793Y-73768706D02*
X55451587Y-73794103D01*
X55451587Y-73794103D02*
X55476984Y-73819500D01*
X55476984Y-73819500D02*
X55502380Y-73870294D01*
X55502380Y-73870294D02*
X55502380Y-73921087D01*
X55502380Y-73921087D02*
X55476984Y-73997278D01*
X55476984Y-73997278D02*
X55172222Y-74302039D01*
X55172222Y-74302039D02*
X55502380Y-74302039D01*
D11*
X56150000Y-74057621D02*
G75*
G02*
X54550000Y-74057621I-800000J0D01*
G01*
X54550000Y-74057621D02*
G75*
G02*
X56150000Y-74057621I800000J0D01*
G01*
%TD*%
D12*
X117742380Y-43548418D02*
X117437619Y-43548418D01*
X117590000Y-43548418D02*
X117590000Y-43015085D01*
X117590000Y-43015085D02*
X117539206Y-43091276D01*
X117539206Y-43091276D02*
X117488412Y-43142069D01*
X117488412Y-43142069D02*
X117437619Y-43167466D01*
D11*
%TO.C,R8*%
X118390000Y-43304000D02*
G75*
G02*
X116790000Y-43304000I-800000J0D01*
G01*
X116790000Y-43304000D02*
G75*
G02*
X118390000Y-43304000I800000J0D01*
G01*
D12*
X127597619Y-43065879D02*
X127623016Y-43040482D01*
X127623016Y-43040482D02*
X127673809Y-43015085D01*
X127673809Y-43015085D02*
X127800793Y-43015085D01*
X127800793Y-43015085D02*
X127851587Y-43040482D01*
X127851587Y-43040482D02*
X127876984Y-43065879D01*
X127876984Y-43065879D02*
X127902380Y-43116673D01*
X127902380Y-43116673D02*
X127902380Y-43167466D01*
X127902380Y-43167466D02*
X127876984Y-43243657D01*
X127876984Y-43243657D02*
X127572222Y-43548418D01*
X127572222Y-43548418D02*
X127902380Y-43548418D01*
D11*
X128550000Y-43304000D02*
G75*
G02*
X126950000Y-43304000I-800000J0D01*
G01*
X126950000Y-43304000D02*
G75*
G02*
X128550000Y-43304000I800000J0D01*
G01*
%TD*%
D12*
X145652380Y-83426797D02*
X145347619Y-83426797D01*
X145500000Y-83426797D02*
X145500000Y-82893464D01*
X145500000Y-82893464D02*
X145449206Y-82969655D01*
X145449206Y-82969655D02*
X145398412Y-83020448D01*
X145398412Y-83020448D02*
X145347619Y-83045845D01*
D11*
%TO.C,C12*%
X146300000Y-83182379D02*
G75*
G02*
X144700000Y-83182379I-800000J0D01*
G01*
X144700000Y-83182379D02*
G75*
G02*
X146300000Y-83182379I800000J0D01*
G01*
D12*
X145347619Y-85444258D02*
X145373016Y-85418861D01*
X145373016Y-85418861D02*
X145423809Y-85393464D01*
X145423809Y-85393464D02*
X145550793Y-85393464D01*
X145550793Y-85393464D02*
X145601587Y-85418861D01*
X145601587Y-85418861D02*
X145626984Y-85444258D01*
X145626984Y-85444258D02*
X145652380Y-85495052D01*
X145652380Y-85495052D02*
X145652380Y-85545845D01*
X145652380Y-85545845D02*
X145626984Y-85622036D01*
X145626984Y-85622036D02*
X145322222Y-85926797D01*
X145322222Y-85926797D02*
X145652380Y-85926797D01*
D11*
X146300000Y-85682379D02*
G75*
G02*
X144700000Y-85682379I-800000J0D01*
G01*
X144700000Y-85682379D02*
G75*
G02*
X146300000Y-85682379I800000J0D01*
G01*
%TD*%
D12*
X145782380Y-31364418D02*
X145477619Y-31364418D01*
X145630000Y-31364418D02*
X145630000Y-30831085D01*
X145630000Y-30831085D02*
X145579206Y-30907276D01*
X145579206Y-30907276D02*
X145528412Y-30958069D01*
X145528412Y-30958069D02*
X145477619Y-30983466D01*
D11*
D13*
%TO.C,C7*%
D11*
X146180000Y-30320000D02*
X146275671Y-30339030D01*
X146356777Y-30393223D01*
X146410970Y-30474329D01*
X146430000Y-30570000D01*
X146430000Y-31670000D01*
X146410970Y-31765671D01*
X146356777Y-31846777D01*
X146275671Y-31900970D01*
X146180000Y-31920000D01*
X145080000Y-31920000D01*
X144984329Y-31900970D01*
X144903223Y-31846777D01*
X144849030Y-31765671D01*
X144830000Y-31670000D01*
X144830000Y-30570000D01*
X144849030Y-30474329D01*
X144903223Y-30393223D01*
X144984329Y-30339030D01*
X145080000Y-30320000D01*
X146180000Y-30320000D01*
D12*
X145477619Y-33381879D02*
X145503016Y-33356482D01*
X145503016Y-33356482D02*
X145553809Y-33331085D01*
X145553809Y-33331085D02*
X145680793Y-33331085D01*
X145680793Y-33331085D02*
X145731587Y-33356482D01*
X145731587Y-33356482D02*
X145756984Y-33381879D01*
X145756984Y-33381879D02*
X145782380Y-33432673D01*
X145782380Y-33432673D02*
X145782380Y-33483466D01*
X145782380Y-33483466D02*
X145756984Y-33559657D01*
X145756984Y-33559657D02*
X145452222Y-33864418D01*
X145452222Y-33864418D02*
X145782380Y-33864418D01*
D11*
X146430000Y-33620000D02*
G75*
G02*
X144830000Y-33620000I-800000J0D01*
G01*
X144830000Y-33620000D02*
G75*
G02*
X146430000Y-33620000I800000J0D01*
G01*
%TD*%
D12*
X81442380Y-83554418D02*
X81137619Y-83554418D01*
X81290000Y-83554418D02*
X81290000Y-83021085D01*
X81290000Y-83021085D02*
X81239206Y-83097276D01*
X81239206Y-83097276D02*
X81188412Y-83148069D01*
X81188412Y-83148069D02*
X81137619Y-83173466D01*
D11*
%TO.C,R6*%
X82090000Y-83310000D02*
G75*
G02*
X80490000Y-83310000I-800000J0D01*
G01*
X80490000Y-83310000D02*
G75*
G02*
X82090000Y-83310000I800000J0D01*
G01*
D12*
X70977619Y-83071879D02*
X71003016Y-83046482D01*
X71003016Y-83046482D02*
X71053809Y-83021085D01*
X71053809Y-83021085D02*
X71180793Y-83021085D01*
X71180793Y-83021085D02*
X71231587Y-83046482D01*
X71231587Y-83046482D02*
X71256984Y-83071879D01*
X71256984Y-83071879D02*
X71282380Y-83122673D01*
X71282380Y-83122673D02*
X71282380Y-83173466D01*
X71282380Y-83173466D02*
X71256984Y-83249657D01*
X71256984Y-83249657D02*
X70952222Y-83554418D01*
X70952222Y-83554418D02*
X71282380Y-83554418D01*
D11*
X71930000Y-83310000D02*
G75*
G02*
X70330000Y-83310000I-800000J0D01*
G01*
X70330000Y-83310000D02*
G75*
G02*
X71930000Y-83310000I800000J0D01*
G01*
%TD*%
D12*
X98182380Y-88964418D02*
X97877619Y-88964418D01*
X98030000Y-88964418D02*
X98030000Y-88431085D01*
X98030000Y-88431085D02*
X97979206Y-88507276D01*
X97979206Y-88507276D02*
X97928412Y-88558069D01*
X97928412Y-88558069D02*
X97877619Y-88583466D01*
D11*
D13*
%TO.C,C14*%
D11*
X97230000Y-88170000D02*
X97249030Y-88074329D01*
X97303223Y-87993223D01*
X97384329Y-87939030D01*
X97480000Y-87920000D01*
X98580000Y-87920000D01*
X98675671Y-87939030D01*
X98756777Y-87993223D01*
X98810970Y-88074329D01*
X98830000Y-88170000D01*
X98830000Y-89270000D01*
X98810970Y-89365671D01*
X98756777Y-89446777D01*
X98675671Y-89500970D01*
X98580000Y-89520000D01*
X97480000Y-89520000D01*
X97384329Y-89500970D01*
X97303223Y-89446777D01*
X97249030Y-89365671D01*
X97230000Y-89270000D01*
X97230000Y-88170000D01*
D12*
X101377619Y-88481879D02*
X101403016Y-88456482D01*
X101403016Y-88456482D02*
X101453809Y-88431085D01*
X101453809Y-88431085D02*
X101580793Y-88431085D01*
X101580793Y-88431085D02*
X101631587Y-88456482D01*
X101631587Y-88456482D02*
X101656984Y-88481879D01*
X101656984Y-88481879D02*
X101682380Y-88532673D01*
X101682380Y-88532673D02*
X101682380Y-88583466D01*
X101682380Y-88583466D02*
X101656984Y-88659657D01*
X101656984Y-88659657D02*
X101352222Y-88964418D01*
X101352222Y-88964418D02*
X101682380Y-88964418D01*
D11*
X102330000Y-88720000D02*
G75*
G02*
X100730000Y-88720000I-800000J0D01*
G01*
X100730000Y-88720000D02*
G75*
G02*
X102330000Y-88720000I800000J0D01*
G01*
%TD*%
%TO.C,H2*%
X211630000Y-29860000D02*
G75*
G02*
X208630000Y-29860000I-1500000J0D01*
G01*
X208630000Y-29860000D02*
G75*
G02*
X211630000Y-29860000I1500000J0D01*
G01*
%TD*%
D12*
X81948380Y-33240418D02*
X81643619Y-33240418D01*
X81796000Y-33240418D02*
X81796000Y-32707085D01*
X81796000Y-32707085D02*
X81745206Y-32783276D01*
X81745206Y-32783276D02*
X81694412Y-32834069D01*
X81694412Y-32834069D02*
X81643619Y-32859466D01*
D11*
%TO.C,R1*%
X82596000Y-32996000D02*
G75*
G02*
X80996000Y-32996000I-800000J0D01*
G01*
X80996000Y-32996000D02*
G75*
G02*
X82596000Y-32996000I800000J0D01*
G01*
D12*
X71483619Y-32757879D02*
X71509016Y-32732482D01*
X71509016Y-32732482D02*
X71559809Y-32707085D01*
X71559809Y-32707085D02*
X71686793Y-32707085D01*
X71686793Y-32707085D02*
X71737587Y-32732482D01*
X71737587Y-32732482D02*
X71762984Y-32757879D01*
X71762984Y-32757879D02*
X71788380Y-32808673D01*
X71788380Y-32808673D02*
X71788380Y-32859466D01*
X71788380Y-32859466D02*
X71762984Y-32935657D01*
X71762984Y-32935657D02*
X71458222Y-33240418D01*
X71458222Y-33240418D02*
X71788380Y-33240418D01*
D11*
X72436000Y-32996000D02*
G75*
G02*
X70836000Y-32996000I-800000J0D01*
G01*
X70836000Y-32996000D02*
G75*
G02*
X72436000Y-32996000I800000J0D01*
G01*
%TD*%
D12*
X55442380Y-60184418D02*
X55137619Y-60184418D01*
X55290000Y-60184418D02*
X55290000Y-59651085D01*
X55290000Y-59651085D02*
X55239206Y-59727276D01*
X55239206Y-59727276D02*
X55188412Y-59778069D01*
X55188412Y-59778069D02*
X55137619Y-59803466D01*
D11*
%TO.C,C4*%
X56090000Y-59940000D02*
G75*
G02*
X54490000Y-59940000I-800000J0D01*
G01*
X54490000Y-59940000D02*
G75*
G02*
X56090000Y-59940000I800000J0D01*
G01*
D12*
X55137619Y-62201879D02*
X55163016Y-62176482D01*
X55163016Y-62176482D02*
X55213809Y-62151085D01*
X55213809Y-62151085D02*
X55340793Y-62151085D01*
X55340793Y-62151085D02*
X55391587Y-62176482D01*
X55391587Y-62176482D02*
X55416984Y-62201879D01*
X55416984Y-62201879D02*
X55442380Y-62252673D01*
X55442380Y-62252673D02*
X55442380Y-62303466D01*
X55442380Y-62303466D02*
X55416984Y-62379657D01*
X55416984Y-62379657D02*
X55112222Y-62684418D01*
X55112222Y-62684418D02*
X55442380Y-62684418D01*
D11*
X56090000Y-62440000D02*
G75*
G02*
X54490000Y-62440000I-800000J0D01*
G01*
X54490000Y-62440000D02*
G75*
G02*
X56090000Y-62440000I800000J0D01*
G01*
%TD*%
D12*
X117822380Y-33374418D02*
X117517619Y-33374418D01*
X117670000Y-33374418D02*
X117670000Y-32841085D01*
X117670000Y-32841085D02*
X117619206Y-32917276D01*
X117619206Y-32917276D02*
X117568412Y-32968069D01*
X117568412Y-32968069D02*
X117517619Y-32993466D01*
D11*
%TO.C,R7*%
X118470000Y-33130000D02*
G75*
G02*
X116870000Y-33130000I-800000J0D01*
G01*
X116870000Y-33130000D02*
G75*
G02*
X118470000Y-33130000I800000J0D01*
G01*
D12*
X127677619Y-32891879D02*
X127703016Y-32866482D01*
X127703016Y-32866482D02*
X127753809Y-32841085D01*
X127753809Y-32841085D02*
X127880793Y-32841085D01*
X127880793Y-32841085D02*
X127931587Y-32866482D01*
X127931587Y-32866482D02*
X127956984Y-32891879D01*
X127956984Y-32891879D02*
X127982380Y-32942673D01*
X127982380Y-32942673D02*
X127982380Y-32993466D01*
X127982380Y-32993466D02*
X127956984Y-33069657D01*
X127956984Y-33069657D02*
X127652222Y-33374418D01*
X127652222Y-33374418D02*
X127982380Y-33374418D01*
D11*
X128630000Y-33130000D02*
G75*
G02*
X127030000Y-33130000I-800000J0D01*
G01*
X127030000Y-33130000D02*
G75*
G02*
X128630000Y-33130000I800000J0D01*
G01*
%TD*%
D14*
X136785714Y-32847885D02*
X136414285Y-32847885D01*
X136599999Y-32847885D02*
X136599999Y-32197885D01*
X136599999Y-32197885D02*
X136538095Y-32290742D01*
X136538095Y-32290742D02*
X136476190Y-32352647D01*
X136476190Y-32352647D02*
X136414285Y-32383599D01*
D11*
D13*
%TO.C,S4*%
D11*
X137325000Y-31700000D02*
X137420671Y-31719030D01*
X137501777Y-31773223D01*
X137555970Y-31854329D01*
X137575000Y-31950000D01*
X137575000Y-33150000D01*
X137555970Y-33245671D01*
X137501777Y-33326777D01*
X137420671Y-33380970D01*
X137325000Y-33400000D01*
X135875000Y-33400000D01*
X135779329Y-33380970D01*
X135698223Y-33326777D01*
X135644030Y-33245671D01*
X135625000Y-33150000D01*
X135625000Y-31950000D01*
X135644030Y-31854329D01*
X135698223Y-31773223D01*
X135779329Y-31719030D01*
X135875000Y-31700000D01*
X137325000Y-31700000D01*
D14*
X136414285Y-34759790D02*
X136445237Y-34728837D01*
X136445237Y-34728837D02*
X136507142Y-34697885D01*
X136507142Y-34697885D02*
X136661904Y-34697885D01*
X136661904Y-34697885D02*
X136723809Y-34728837D01*
X136723809Y-34728837D02*
X136754761Y-34759790D01*
X136754761Y-34759790D02*
X136785714Y-34821694D01*
X136785714Y-34821694D02*
X136785714Y-34883599D01*
X136785714Y-34883599D02*
X136754761Y-34976456D01*
X136754761Y-34976456D02*
X136383333Y-35347885D01*
X136383333Y-35347885D02*
X136785714Y-35347885D01*
D11*
X136725000Y-34200000D02*
X136475000Y-34200000D01*
X136475000Y-35900000D02*
G75*
G02*
X136475000Y-34200000I0J850000D01*
G01*
X136475000Y-35900000D02*
X136725000Y-35900000D01*
X136725000Y-35900000D02*
G75*
G03*
X136725000Y-34200000I0J850000D01*
G01*
D14*
X136383333Y-37197885D02*
X136785714Y-37197885D01*
X136785714Y-37197885D02*
X136569047Y-37445504D01*
X136569047Y-37445504D02*
X136661904Y-37445504D01*
X136661904Y-37445504D02*
X136723809Y-37476456D01*
X136723809Y-37476456D02*
X136754761Y-37507409D01*
X136754761Y-37507409D02*
X136785714Y-37569313D01*
X136785714Y-37569313D02*
X136785714Y-37724075D01*
X136785714Y-37724075D02*
X136754761Y-37785980D01*
X136754761Y-37785980D02*
X136723809Y-37816933D01*
X136723809Y-37816933D02*
X136661904Y-37847885D01*
X136661904Y-37847885D02*
X136476190Y-37847885D01*
X136476190Y-37847885D02*
X136414285Y-37816933D01*
X136414285Y-37816933D02*
X136383333Y-37785980D01*
D11*
X136725000Y-36700000D02*
X136475000Y-36700000D01*
X136475000Y-38400000D02*
G75*
G02*
X136475000Y-36700000I0J850000D01*
G01*
X136475000Y-38400000D02*
X136725000Y-38400000D01*
X136725000Y-38400000D02*
G75*
G03*
X136725000Y-36700000I0J850000D01*
G01*
D14*
X136723809Y-39914552D02*
X136723809Y-40347885D01*
X136569047Y-39666933D02*
X136414285Y-40131218D01*
X136414285Y-40131218D02*
X136816666Y-40131218D01*
D11*
X136725000Y-39200000D02*
X136475000Y-39200000D01*
X136475000Y-40900000D02*
G75*
G02*
X136475000Y-39200000I0J850000D01*
G01*
X136475000Y-40900000D02*
X136725000Y-40900000D01*
X136725000Y-40900000D02*
G75*
G03*
X136725000Y-39200000I0J850000D01*
G01*
D14*
X136754761Y-42197885D02*
X136445237Y-42197885D01*
X136445237Y-42197885D02*
X136414285Y-42507409D01*
X136414285Y-42507409D02*
X136445237Y-42476456D01*
X136445237Y-42476456D02*
X136507142Y-42445504D01*
X136507142Y-42445504D02*
X136661904Y-42445504D01*
X136661904Y-42445504D02*
X136723809Y-42476456D01*
X136723809Y-42476456D02*
X136754761Y-42507409D01*
X136754761Y-42507409D02*
X136785714Y-42569313D01*
X136785714Y-42569313D02*
X136785714Y-42724075D01*
X136785714Y-42724075D02*
X136754761Y-42785980D01*
X136754761Y-42785980D02*
X136723809Y-42816933D01*
X136723809Y-42816933D02*
X136661904Y-42847885D01*
X136661904Y-42847885D02*
X136507142Y-42847885D01*
X136507142Y-42847885D02*
X136445237Y-42816933D01*
X136445237Y-42816933D02*
X136414285Y-42785980D01*
D11*
X136725000Y-41700000D02*
X136475000Y-41700000D01*
X136475000Y-43400000D02*
G75*
G02*
X136475000Y-41700000I0J850000D01*
G01*
X136475000Y-43400000D02*
X136725000Y-43400000D01*
X136725000Y-43400000D02*
G75*
G03*
X136725000Y-41700000I0J850000D01*
G01*
%TD*%
D12*
X82152380Y-43244418D02*
X81847619Y-43244418D01*
X82000000Y-43244418D02*
X82000000Y-42711085D01*
X82000000Y-42711085D02*
X81949206Y-42787276D01*
X81949206Y-42787276D02*
X81898412Y-42838069D01*
X81898412Y-42838069D02*
X81847619Y-42863466D01*
D11*
%TO.C,R2*%
X82800000Y-43000000D02*
G75*
G02*
X81200000Y-43000000I-800000J0D01*
G01*
X81200000Y-43000000D02*
G75*
G02*
X82800000Y-43000000I800000J0D01*
G01*
D12*
X71687619Y-42761879D02*
X71713016Y-42736482D01*
X71713016Y-42736482D02*
X71763809Y-42711085D01*
X71763809Y-42711085D02*
X71890793Y-42711085D01*
X71890793Y-42711085D02*
X71941587Y-42736482D01*
X71941587Y-42736482D02*
X71966984Y-42761879D01*
X71966984Y-42761879D02*
X71992380Y-42812673D01*
X71992380Y-42812673D02*
X71992380Y-42863466D01*
X71992380Y-42863466D02*
X71966984Y-42939657D01*
X71966984Y-42939657D02*
X71662222Y-43244418D01*
X71662222Y-43244418D02*
X71992380Y-43244418D01*
D11*
X72640000Y-43000000D02*
G75*
G02*
X71040000Y-43000000I-800000J0D01*
G01*
X71040000Y-43000000D02*
G75*
G02*
X72640000Y-43000000I800000J0D01*
G01*
%TD*%
%TO.C,H1*%
X212140000Y-114560000D02*
G75*
G02*
X209140000Y-114560000I-1500000J0D01*
G01*
X209140000Y-114560000D02*
G75*
G02*
X212140000Y-114560000I1500000J0D01*
G01*
%TD*%
D14*
X136685714Y-73980264D02*
X136314285Y-73980264D01*
X136499999Y-73980264D02*
X136499999Y-73330264D01*
X136499999Y-73330264D02*
X136438095Y-73423121D01*
X136438095Y-73423121D02*
X136376190Y-73485026D01*
X136376190Y-73485026D02*
X136314285Y-73515978D01*
D11*
D13*
%TO.C,S6*%
D11*
X137225000Y-72832379D02*
X137320671Y-72851409D01*
X137401777Y-72905602D01*
X137455970Y-72986708D01*
X137475000Y-73082379D01*
X137475000Y-74282379D01*
X137455970Y-74378050D01*
X137401777Y-74459156D01*
X137320671Y-74513349D01*
X137225000Y-74532379D01*
X135775000Y-74532379D01*
X135679329Y-74513349D01*
X135598223Y-74459156D01*
X135544030Y-74378050D01*
X135525000Y-74282379D01*
X135525000Y-73082379D01*
X135544030Y-72986708D01*
X135598223Y-72905602D01*
X135679329Y-72851409D01*
X135775000Y-72832379D01*
X137225000Y-72832379D01*
D14*
X136314285Y-75892169D02*
X136345237Y-75861216D01*
X136345237Y-75861216D02*
X136407142Y-75830264D01*
X136407142Y-75830264D02*
X136561904Y-75830264D01*
X136561904Y-75830264D02*
X136623809Y-75861216D01*
X136623809Y-75861216D02*
X136654761Y-75892169D01*
X136654761Y-75892169D02*
X136685714Y-75954073D01*
X136685714Y-75954073D02*
X136685714Y-76015978D01*
X136685714Y-76015978D02*
X136654761Y-76108835D01*
X136654761Y-76108835D02*
X136283333Y-76480264D01*
X136283333Y-76480264D02*
X136685714Y-76480264D01*
D11*
X136625000Y-75332379D02*
X136375000Y-75332379D01*
X136375000Y-77032379D02*
G75*
G02*
X136375000Y-75332379I0J850000D01*
G01*
X136375000Y-77032379D02*
X136625000Y-77032379D01*
X136625000Y-77032379D02*
G75*
G03*
X136625000Y-75332379I0J850000D01*
G01*
D14*
X136283333Y-78330264D02*
X136685714Y-78330264D01*
X136685714Y-78330264D02*
X136469047Y-78577883D01*
X136469047Y-78577883D02*
X136561904Y-78577883D01*
X136561904Y-78577883D02*
X136623809Y-78608835D01*
X136623809Y-78608835D02*
X136654761Y-78639788D01*
X136654761Y-78639788D02*
X136685714Y-78701692D01*
X136685714Y-78701692D02*
X136685714Y-78856454D01*
X136685714Y-78856454D02*
X136654761Y-78918359D01*
X136654761Y-78918359D02*
X136623809Y-78949312D01*
X136623809Y-78949312D02*
X136561904Y-78980264D01*
X136561904Y-78980264D02*
X136376190Y-78980264D01*
X136376190Y-78980264D02*
X136314285Y-78949312D01*
X136314285Y-78949312D02*
X136283333Y-78918359D01*
D11*
X136625000Y-77832379D02*
X136375000Y-77832379D01*
X136375000Y-79532379D02*
G75*
G02*
X136375000Y-77832379I0J850000D01*
G01*
X136375000Y-79532379D02*
X136625000Y-79532379D01*
X136625000Y-79532379D02*
G75*
G03*
X136625000Y-77832379I0J850000D01*
G01*
D14*
X136623809Y-81046931D02*
X136623809Y-81480264D01*
X136469047Y-80799312D02*
X136314285Y-81263597D01*
X136314285Y-81263597D02*
X136716666Y-81263597D01*
D11*
X136625000Y-80332379D02*
X136375000Y-80332379D01*
X136375000Y-82032379D02*
G75*
G02*
X136375000Y-80332379I0J850000D01*
G01*
X136375000Y-82032379D02*
X136625000Y-82032379D01*
X136625000Y-82032379D02*
G75*
G03*
X136625000Y-80332379I0J850000D01*
G01*
D14*
X136654761Y-83330264D02*
X136345237Y-83330264D01*
X136345237Y-83330264D02*
X136314285Y-83639788D01*
X136314285Y-83639788D02*
X136345237Y-83608835D01*
X136345237Y-83608835D02*
X136407142Y-83577883D01*
X136407142Y-83577883D02*
X136561904Y-83577883D01*
X136561904Y-83577883D02*
X136623809Y-83608835D01*
X136623809Y-83608835D02*
X136654761Y-83639788D01*
X136654761Y-83639788D02*
X136685714Y-83701692D01*
X136685714Y-83701692D02*
X136685714Y-83856454D01*
X136685714Y-83856454D02*
X136654761Y-83918359D01*
X136654761Y-83918359D02*
X136623809Y-83949312D01*
X136623809Y-83949312D02*
X136561904Y-83980264D01*
X136561904Y-83980264D02*
X136407142Y-83980264D01*
X136407142Y-83980264D02*
X136345237Y-83949312D01*
X136345237Y-83949312D02*
X136314285Y-83918359D01*
D11*
X136625000Y-82832379D02*
X136375000Y-82832379D01*
X136375000Y-84532379D02*
G75*
G02*
X136375000Y-82832379I0J850000D01*
G01*
X136375000Y-84532379D02*
X136625000Y-84532379D01*
X136625000Y-84532379D02*
G75*
G03*
X136625000Y-82832379I0J850000D01*
G01*
%TD*%
D12*
X55062380Y-41544418D02*
X54757619Y-41544418D01*
X54910000Y-41544418D02*
X54910000Y-41011085D01*
X54910000Y-41011085D02*
X54859206Y-41087276D01*
X54859206Y-41087276D02*
X54808412Y-41138069D01*
X54808412Y-41138069D02*
X54757619Y-41163466D01*
D11*
%TO.C,C3*%
X55710000Y-41300000D02*
G75*
G02*
X54110000Y-41300000I-800000J0D01*
G01*
X54110000Y-41300000D02*
G75*
G02*
X55710000Y-41300000I800000J0D01*
G01*
D12*
X54757619Y-43561879D02*
X54783016Y-43536482D01*
X54783016Y-43536482D02*
X54833809Y-43511085D01*
X54833809Y-43511085D02*
X54960793Y-43511085D01*
X54960793Y-43511085D02*
X55011587Y-43536482D01*
X55011587Y-43536482D02*
X55036984Y-43561879D01*
X55036984Y-43561879D02*
X55062380Y-43612673D01*
X55062380Y-43612673D02*
X55062380Y-43663466D01*
X55062380Y-43663466D02*
X55036984Y-43739657D01*
X55036984Y-43739657D02*
X54732222Y-44044418D01*
X54732222Y-44044418D02*
X55062380Y-44044418D01*
D11*
X55710000Y-43800000D02*
G75*
G02*
X54110000Y-43800000I-800000J0D01*
G01*
X54110000Y-43800000D02*
G75*
G02*
X55710000Y-43800000I800000J0D01*
G01*
%TD*%
D12*
X145782380Y-41744418D02*
X145477619Y-41744418D01*
X145630000Y-41744418D02*
X145630000Y-41211085D01*
X145630000Y-41211085D02*
X145579206Y-41287276D01*
X145579206Y-41287276D02*
X145528412Y-41338069D01*
X145528412Y-41338069D02*
X145477619Y-41363466D01*
D11*
%TO.C,C8*%
X146430000Y-41500000D02*
G75*
G02*
X144830000Y-41500000I-800000J0D01*
G01*
X144830000Y-41500000D02*
G75*
G02*
X146430000Y-41500000I800000J0D01*
G01*
D12*
X145477619Y-43761879D02*
X145503016Y-43736482D01*
X145503016Y-43736482D02*
X145553809Y-43711085D01*
X145553809Y-43711085D02*
X145680793Y-43711085D01*
X145680793Y-43711085D02*
X145731587Y-43736482D01*
X145731587Y-43736482D02*
X145756984Y-43761879D01*
X145756984Y-43761879D02*
X145782380Y-43812673D01*
X145782380Y-43812673D02*
X145782380Y-43863466D01*
X145782380Y-43863466D02*
X145756984Y-43939657D01*
X145756984Y-43939657D02*
X145452222Y-44244418D01*
X145452222Y-44244418D02*
X145782380Y-44244418D01*
D11*
X146430000Y-44000000D02*
G75*
G02*
X144830000Y-44000000I-800000J0D01*
G01*
X144830000Y-44000000D02*
G75*
G02*
X146430000Y-44000000I800000J0D01*
G01*
%TD*%
D15*
X113148571Y-75678307D02*
X112851428Y-75678307D01*
X113000000Y-75678307D02*
X113000000Y-75158307D01*
X113000000Y-75158307D02*
X112950476Y-75232593D01*
X112950476Y-75232593D02*
X112900952Y-75282117D01*
X112900952Y-75282117D02*
X112851428Y-75306879D01*
D11*
%TO.C,U3*%
X112220000Y-74660000D02*
X112220000Y-76220000D01*
X113780000Y-76220000D01*
X113780000Y-74660000D01*
X112220000Y-74660000D01*
D15*
X112851428Y-72667831D02*
X112876190Y-72643069D01*
X112876190Y-72643069D02*
X112925714Y-72618307D01*
X112925714Y-72618307D02*
X113049523Y-72618307D01*
X113049523Y-72618307D02*
X113099047Y-72643069D01*
X113099047Y-72643069D02*
X113123809Y-72667831D01*
X113123809Y-72667831D02*
X113148571Y-72717355D01*
X113148571Y-72717355D02*
X113148571Y-72766879D01*
X113148571Y-72766879D02*
X113123809Y-72841165D01*
X113123809Y-72841165D02*
X112826666Y-73138307D01*
X112826666Y-73138307D02*
X113148571Y-73138307D01*
D11*
X113780000Y-72900000D02*
G75*
G02*
X112220000Y-72900000I-780000J0D01*
G01*
X112220000Y-72900000D02*
G75*
G02*
X113780000Y-72900000I780000J0D01*
G01*
D15*
X112826666Y-70078307D02*
X113148571Y-70078307D01*
X113148571Y-70078307D02*
X112975238Y-70276403D01*
X112975238Y-70276403D02*
X113049523Y-70276403D01*
X113049523Y-70276403D02*
X113099047Y-70301165D01*
X113099047Y-70301165D02*
X113123809Y-70325926D01*
X113123809Y-70325926D02*
X113148571Y-70375450D01*
X113148571Y-70375450D02*
X113148571Y-70499260D01*
X113148571Y-70499260D02*
X113123809Y-70548784D01*
X113123809Y-70548784D02*
X113099047Y-70573546D01*
X113099047Y-70573546D02*
X113049523Y-70598307D01*
X113049523Y-70598307D02*
X112900952Y-70598307D01*
X112900952Y-70598307D02*
X112851428Y-70573546D01*
X112851428Y-70573546D02*
X112826666Y-70548784D01*
D11*
X113780000Y-70360000D02*
G75*
G02*
X112220000Y-70360000I-780000J0D01*
G01*
X112220000Y-70360000D02*
G75*
G02*
X113780000Y-70360000I780000J0D01*
G01*
D15*
X113099047Y-67711641D02*
X113099047Y-68058307D01*
X112975238Y-67513546D02*
X112851428Y-67884974D01*
X112851428Y-67884974D02*
X113173333Y-67884974D01*
D11*
X113780000Y-67820000D02*
G75*
G02*
X112220000Y-67820000I-780000J0D01*
G01*
X112220000Y-67820000D02*
G75*
G02*
X113780000Y-67820000I780000J0D01*
G01*
D15*
X113123809Y-64998307D02*
X112876190Y-64998307D01*
X112876190Y-64998307D02*
X112851428Y-65245926D01*
X112851428Y-65245926D02*
X112876190Y-65221165D01*
X112876190Y-65221165D02*
X112925714Y-65196403D01*
X112925714Y-65196403D02*
X113049523Y-65196403D01*
X113049523Y-65196403D02*
X113099047Y-65221165D01*
X113099047Y-65221165D02*
X113123809Y-65245926D01*
X113123809Y-65245926D02*
X113148571Y-65295450D01*
X113148571Y-65295450D02*
X113148571Y-65419260D01*
X113148571Y-65419260D02*
X113123809Y-65468784D01*
X113123809Y-65468784D02*
X113099047Y-65493546D01*
X113099047Y-65493546D02*
X113049523Y-65518307D01*
X113049523Y-65518307D02*
X112925714Y-65518307D01*
X112925714Y-65518307D02*
X112876190Y-65493546D01*
X112876190Y-65493546D02*
X112851428Y-65468784D01*
D11*
X113780000Y-65280000D02*
G75*
G02*
X112220000Y-65280000I-780000J0D01*
G01*
X112220000Y-65280000D02*
G75*
G02*
X113780000Y-65280000I780000J0D01*
G01*
D15*
X113099047Y-62458307D02*
X113000000Y-62458307D01*
X113000000Y-62458307D02*
X112950476Y-62483069D01*
X112950476Y-62483069D02*
X112925714Y-62507831D01*
X112925714Y-62507831D02*
X112876190Y-62582117D01*
X112876190Y-62582117D02*
X112851428Y-62681165D01*
X112851428Y-62681165D02*
X112851428Y-62879260D01*
X112851428Y-62879260D02*
X112876190Y-62928784D01*
X112876190Y-62928784D02*
X112900952Y-62953546D01*
X112900952Y-62953546D02*
X112950476Y-62978307D01*
X112950476Y-62978307D02*
X113049523Y-62978307D01*
X113049523Y-62978307D02*
X113099047Y-62953546D01*
X113099047Y-62953546D02*
X113123809Y-62928784D01*
X113123809Y-62928784D02*
X113148571Y-62879260D01*
X113148571Y-62879260D02*
X113148571Y-62755450D01*
X113148571Y-62755450D02*
X113123809Y-62705926D01*
X113123809Y-62705926D02*
X113099047Y-62681165D01*
X113099047Y-62681165D02*
X113049523Y-62656403D01*
X113049523Y-62656403D02*
X112950476Y-62656403D01*
X112950476Y-62656403D02*
X112900952Y-62681165D01*
X112900952Y-62681165D02*
X112876190Y-62705926D01*
X112876190Y-62705926D02*
X112851428Y-62755450D01*
D11*
X113780000Y-62740000D02*
G75*
G02*
X112220000Y-62740000I-780000J0D01*
G01*
X112220000Y-62740000D02*
G75*
G02*
X113780000Y-62740000I780000J0D01*
G01*
D15*
X112826666Y-59918307D02*
X113173333Y-59918307D01*
X113173333Y-59918307D02*
X112950476Y-60438307D01*
D11*
X113780000Y-60200000D02*
G75*
G02*
X112220000Y-60200000I-780000J0D01*
G01*
X112220000Y-60200000D02*
G75*
G02*
X113780000Y-60200000I780000J0D01*
G01*
D15*
X112950476Y-57601165D02*
X112900952Y-57576403D01*
X112900952Y-57576403D02*
X112876190Y-57551641D01*
X112876190Y-57551641D02*
X112851428Y-57502117D01*
X112851428Y-57502117D02*
X112851428Y-57477355D01*
X112851428Y-57477355D02*
X112876190Y-57427831D01*
X112876190Y-57427831D02*
X112900952Y-57403069D01*
X112900952Y-57403069D02*
X112950476Y-57378307D01*
X112950476Y-57378307D02*
X113049523Y-57378307D01*
X113049523Y-57378307D02*
X113099047Y-57403069D01*
X113099047Y-57403069D02*
X113123809Y-57427831D01*
X113123809Y-57427831D02*
X113148571Y-57477355D01*
X113148571Y-57477355D02*
X113148571Y-57502117D01*
X113148571Y-57502117D02*
X113123809Y-57551641D01*
X113123809Y-57551641D02*
X113099047Y-57576403D01*
X113099047Y-57576403D02*
X113049523Y-57601165D01*
X113049523Y-57601165D02*
X112950476Y-57601165D01*
X112950476Y-57601165D02*
X112900952Y-57625926D01*
X112900952Y-57625926D02*
X112876190Y-57650688D01*
X112876190Y-57650688D02*
X112851428Y-57700212D01*
X112851428Y-57700212D02*
X112851428Y-57799260D01*
X112851428Y-57799260D02*
X112876190Y-57848784D01*
X112876190Y-57848784D02*
X112900952Y-57873546D01*
X112900952Y-57873546D02*
X112950476Y-57898307D01*
X112950476Y-57898307D02*
X113049523Y-57898307D01*
X113049523Y-57898307D02*
X113099047Y-57873546D01*
X113099047Y-57873546D02*
X113123809Y-57848784D01*
X113123809Y-57848784D02*
X113148571Y-57799260D01*
X113148571Y-57799260D02*
X113148571Y-57700212D01*
X113148571Y-57700212D02*
X113123809Y-57650688D01*
X113123809Y-57650688D02*
X113099047Y-57625926D01*
X113099047Y-57625926D02*
X113049523Y-57601165D01*
D11*
X113780000Y-57660000D02*
G75*
G02*
X112220000Y-57660000I-780000J0D01*
G01*
X112220000Y-57660000D02*
G75*
G02*
X113780000Y-57660000I780000J0D01*
G01*
D15*
X112900952Y-55358307D02*
X113000000Y-55358307D01*
X113000000Y-55358307D02*
X113049523Y-55333546D01*
X113049523Y-55333546D02*
X113074285Y-55308784D01*
X113074285Y-55308784D02*
X113123809Y-55234498D01*
X113123809Y-55234498D02*
X113148571Y-55135450D01*
X113148571Y-55135450D02*
X113148571Y-54937355D01*
X113148571Y-54937355D02*
X113123809Y-54887831D01*
X113123809Y-54887831D02*
X113099047Y-54863069D01*
X113099047Y-54863069D02*
X113049523Y-54838307D01*
X113049523Y-54838307D02*
X112950476Y-54838307D01*
X112950476Y-54838307D02*
X112900952Y-54863069D01*
X112900952Y-54863069D02*
X112876190Y-54887831D01*
X112876190Y-54887831D02*
X112851428Y-54937355D01*
X112851428Y-54937355D02*
X112851428Y-55061165D01*
X112851428Y-55061165D02*
X112876190Y-55110688D01*
X112876190Y-55110688D02*
X112900952Y-55135450D01*
X112900952Y-55135450D02*
X112950476Y-55160212D01*
X112950476Y-55160212D02*
X113049523Y-55160212D01*
X113049523Y-55160212D02*
X113099047Y-55135450D01*
X113099047Y-55135450D02*
X113123809Y-55110688D01*
X113123809Y-55110688D02*
X113148571Y-55061165D01*
D11*
X113780000Y-55120000D02*
G75*
G02*
X112220000Y-55120000I-780000J0D01*
G01*
X112220000Y-55120000D02*
G75*
G02*
X113780000Y-55120000I780000J0D01*
G01*
D15*
X112900952Y-52818307D02*
X112603809Y-52818307D01*
X112752381Y-52818307D02*
X112752381Y-52298307D01*
X112752381Y-52298307D02*
X112702857Y-52372593D01*
X112702857Y-52372593D02*
X112653333Y-52422117D01*
X112653333Y-52422117D02*
X112603809Y-52446879D01*
X113222857Y-52298307D02*
X113272380Y-52298307D01*
X113272380Y-52298307D02*
X113321904Y-52323069D01*
X113321904Y-52323069D02*
X113346666Y-52347831D01*
X113346666Y-52347831D02*
X113371428Y-52397355D01*
X113371428Y-52397355D02*
X113396190Y-52496403D01*
X113396190Y-52496403D02*
X113396190Y-52620212D01*
X113396190Y-52620212D02*
X113371428Y-52719260D01*
X113371428Y-52719260D02*
X113346666Y-52768784D01*
X113346666Y-52768784D02*
X113321904Y-52793546D01*
X113321904Y-52793546D02*
X113272380Y-52818307D01*
X113272380Y-52818307D02*
X113222857Y-52818307D01*
X113222857Y-52818307D02*
X113173333Y-52793546D01*
X113173333Y-52793546D02*
X113148571Y-52768784D01*
X113148571Y-52768784D02*
X113123809Y-52719260D01*
X113123809Y-52719260D02*
X113099047Y-52620212D01*
X113099047Y-52620212D02*
X113099047Y-52496403D01*
X113099047Y-52496403D02*
X113123809Y-52397355D01*
X113123809Y-52397355D02*
X113148571Y-52347831D01*
X113148571Y-52347831D02*
X113173333Y-52323069D01*
X113173333Y-52323069D02*
X113222857Y-52298307D01*
D11*
X113780000Y-52580000D02*
G75*
G02*
X112220000Y-52580000I-780000J0D01*
G01*
X112220000Y-52580000D02*
G75*
G02*
X113780000Y-52580000I780000J0D01*
G01*
D15*
X112900952Y-50278307D02*
X112603809Y-50278307D01*
X112752381Y-50278307D02*
X112752381Y-49758307D01*
X112752381Y-49758307D02*
X112702857Y-49832593D01*
X112702857Y-49832593D02*
X112653333Y-49882117D01*
X112653333Y-49882117D02*
X112603809Y-49906879D01*
X113396190Y-50278307D02*
X113099047Y-50278307D01*
X113247619Y-50278307D02*
X113247619Y-49758307D01*
X113247619Y-49758307D02*
X113198095Y-49832593D01*
X113198095Y-49832593D02*
X113148571Y-49882117D01*
X113148571Y-49882117D02*
X113099047Y-49906879D01*
D11*
X113780000Y-50040000D02*
G75*
G02*
X112220000Y-50040000I-780000J0D01*
G01*
X112220000Y-50040000D02*
G75*
G02*
X113780000Y-50040000I780000J0D01*
G01*
D15*
X112900952Y-47738307D02*
X112603809Y-47738307D01*
X112752381Y-47738307D02*
X112752381Y-47218307D01*
X112752381Y-47218307D02*
X112702857Y-47292593D01*
X112702857Y-47292593D02*
X112653333Y-47342117D01*
X112653333Y-47342117D02*
X112603809Y-47366879D01*
X113099047Y-47267831D02*
X113123809Y-47243069D01*
X113123809Y-47243069D02*
X113173333Y-47218307D01*
X113173333Y-47218307D02*
X113297142Y-47218307D01*
X113297142Y-47218307D02*
X113346666Y-47243069D01*
X113346666Y-47243069D02*
X113371428Y-47267831D01*
X113371428Y-47267831D02*
X113396190Y-47317355D01*
X113396190Y-47317355D02*
X113396190Y-47366879D01*
X113396190Y-47366879D02*
X113371428Y-47441165D01*
X113371428Y-47441165D02*
X113074285Y-47738307D01*
X113074285Y-47738307D02*
X113396190Y-47738307D01*
D11*
X113780000Y-47500000D02*
G75*
G02*
X112220000Y-47500000I-780000J0D01*
G01*
X112220000Y-47500000D02*
G75*
G02*
X113780000Y-47500000I780000J0D01*
G01*
D15*
X112900952Y-45198307D02*
X112603809Y-45198307D01*
X112752381Y-45198307D02*
X112752381Y-44678307D01*
X112752381Y-44678307D02*
X112702857Y-44752593D01*
X112702857Y-44752593D02*
X112653333Y-44802117D01*
X112653333Y-44802117D02*
X112603809Y-44826879D01*
X113074285Y-44678307D02*
X113396190Y-44678307D01*
X113396190Y-44678307D02*
X113222857Y-44876403D01*
X113222857Y-44876403D02*
X113297142Y-44876403D01*
X113297142Y-44876403D02*
X113346666Y-44901165D01*
X113346666Y-44901165D02*
X113371428Y-44925926D01*
X113371428Y-44925926D02*
X113396190Y-44975450D01*
X113396190Y-44975450D02*
X113396190Y-45099260D01*
X113396190Y-45099260D02*
X113371428Y-45148784D01*
X113371428Y-45148784D02*
X113346666Y-45173546D01*
X113346666Y-45173546D02*
X113297142Y-45198307D01*
X113297142Y-45198307D02*
X113148571Y-45198307D01*
X113148571Y-45198307D02*
X113099047Y-45173546D01*
X113099047Y-45173546D02*
X113074285Y-45148784D01*
D11*
X113780000Y-44960000D02*
G75*
G02*
X112220000Y-44960000I-780000J0D01*
G01*
X112220000Y-44960000D02*
G75*
G02*
X113780000Y-44960000I780000J0D01*
G01*
D15*
X112900952Y-42658307D02*
X112603809Y-42658307D01*
X112752381Y-42658307D02*
X112752381Y-42138307D01*
X112752381Y-42138307D02*
X112702857Y-42212593D01*
X112702857Y-42212593D02*
X112653333Y-42262117D01*
X112653333Y-42262117D02*
X112603809Y-42286879D01*
X113346666Y-42311641D02*
X113346666Y-42658307D01*
X113222857Y-42113546D02*
X113099047Y-42484974D01*
X113099047Y-42484974D02*
X113420952Y-42484974D01*
D11*
X113780000Y-42420000D02*
G75*
G02*
X112220000Y-42420000I-780000J0D01*
G01*
X112220000Y-42420000D02*
G75*
G02*
X113780000Y-42420000I780000J0D01*
G01*
D15*
X112900952Y-40118307D02*
X112603809Y-40118307D01*
X112752381Y-40118307D02*
X112752381Y-39598307D01*
X112752381Y-39598307D02*
X112702857Y-39672593D01*
X112702857Y-39672593D02*
X112653333Y-39722117D01*
X112653333Y-39722117D02*
X112603809Y-39746879D01*
X113371428Y-39598307D02*
X113123809Y-39598307D01*
X113123809Y-39598307D02*
X113099047Y-39845926D01*
X113099047Y-39845926D02*
X113123809Y-39821165D01*
X113123809Y-39821165D02*
X113173333Y-39796403D01*
X113173333Y-39796403D02*
X113297142Y-39796403D01*
X113297142Y-39796403D02*
X113346666Y-39821165D01*
X113346666Y-39821165D02*
X113371428Y-39845926D01*
X113371428Y-39845926D02*
X113396190Y-39895450D01*
X113396190Y-39895450D02*
X113396190Y-40019260D01*
X113396190Y-40019260D02*
X113371428Y-40068784D01*
X113371428Y-40068784D02*
X113346666Y-40093546D01*
X113346666Y-40093546D02*
X113297142Y-40118307D01*
X113297142Y-40118307D02*
X113173333Y-40118307D01*
X113173333Y-40118307D02*
X113123809Y-40093546D01*
X113123809Y-40093546D02*
X113099047Y-40068784D01*
D11*
X113780000Y-39880000D02*
G75*
G02*
X112220000Y-39880000I-780000J0D01*
G01*
X112220000Y-39880000D02*
G75*
G02*
X113780000Y-39880000I780000J0D01*
G01*
D15*
X112900952Y-37578307D02*
X112603809Y-37578307D01*
X112752381Y-37578307D02*
X112752381Y-37058307D01*
X112752381Y-37058307D02*
X112702857Y-37132593D01*
X112702857Y-37132593D02*
X112653333Y-37182117D01*
X112653333Y-37182117D02*
X112603809Y-37206879D01*
X113346666Y-37058307D02*
X113247619Y-37058307D01*
X113247619Y-37058307D02*
X113198095Y-37083069D01*
X113198095Y-37083069D02*
X113173333Y-37107831D01*
X113173333Y-37107831D02*
X113123809Y-37182117D01*
X113123809Y-37182117D02*
X113099047Y-37281165D01*
X113099047Y-37281165D02*
X113099047Y-37479260D01*
X113099047Y-37479260D02*
X113123809Y-37528784D01*
X113123809Y-37528784D02*
X113148571Y-37553546D01*
X113148571Y-37553546D02*
X113198095Y-37578307D01*
X113198095Y-37578307D02*
X113297142Y-37578307D01*
X113297142Y-37578307D02*
X113346666Y-37553546D01*
X113346666Y-37553546D02*
X113371428Y-37528784D01*
X113371428Y-37528784D02*
X113396190Y-37479260D01*
X113396190Y-37479260D02*
X113396190Y-37355450D01*
X113396190Y-37355450D02*
X113371428Y-37305926D01*
X113371428Y-37305926D02*
X113346666Y-37281165D01*
X113346666Y-37281165D02*
X113297142Y-37256403D01*
X113297142Y-37256403D02*
X113198095Y-37256403D01*
X113198095Y-37256403D02*
X113148571Y-37281165D01*
X113148571Y-37281165D02*
X113123809Y-37305926D01*
X113123809Y-37305926D02*
X113099047Y-37355450D01*
D11*
X113780000Y-37340000D02*
G75*
G02*
X112220000Y-37340000I-780000J0D01*
G01*
X112220000Y-37340000D02*
G75*
G02*
X113780000Y-37340000I780000J0D01*
G01*
D15*
X112900952Y-35038307D02*
X112603809Y-35038307D01*
X112752381Y-35038307D02*
X112752381Y-34518307D01*
X112752381Y-34518307D02*
X112702857Y-34592593D01*
X112702857Y-34592593D02*
X112653333Y-34642117D01*
X112653333Y-34642117D02*
X112603809Y-34666879D01*
X113074285Y-34518307D02*
X113420952Y-34518307D01*
X113420952Y-34518307D02*
X113198095Y-35038307D01*
D11*
X113780000Y-34800000D02*
G75*
G02*
X112220000Y-34800000I-780000J0D01*
G01*
X112220000Y-34800000D02*
G75*
G02*
X113780000Y-34800000I780000J0D01*
G01*
D15*
X112900952Y-32498307D02*
X112603809Y-32498307D01*
X112752381Y-32498307D02*
X112752381Y-31978307D01*
X112752381Y-31978307D02*
X112702857Y-32052593D01*
X112702857Y-32052593D02*
X112653333Y-32102117D01*
X112653333Y-32102117D02*
X112603809Y-32126879D01*
X113198095Y-32201165D02*
X113148571Y-32176403D01*
X113148571Y-32176403D02*
X113123809Y-32151641D01*
X113123809Y-32151641D02*
X113099047Y-32102117D01*
X113099047Y-32102117D02*
X113099047Y-32077355D01*
X113099047Y-32077355D02*
X113123809Y-32027831D01*
X113123809Y-32027831D02*
X113148571Y-32003069D01*
X113148571Y-32003069D02*
X113198095Y-31978307D01*
X113198095Y-31978307D02*
X113297142Y-31978307D01*
X113297142Y-31978307D02*
X113346666Y-32003069D01*
X113346666Y-32003069D02*
X113371428Y-32027831D01*
X113371428Y-32027831D02*
X113396190Y-32077355D01*
X113396190Y-32077355D02*
X113396190Y-32102117D01*
X113396190Y-32102117D02*
X113371428Y-32151641D01*
X113371428Y-32151641D02*
X113346666Y-32176403D01*
X113346666Y-32176403D02*
X113297142Y-32201165D01*
X113297142Y-32201165D02*
X113198095Y-32201165D01*
X113198095Y-32201165D02*
X113148571Y-32225926D01*
X113148571Y-32225926D02*
X113123809Y-32250688D01*
X113123809Y-32250688D02*
X113099047Y-32300212D01*
X113099047Y-32300212D02*
X113099047Y-32399260D01*
X113099047Y-32399260D02*
X113123809Y-32448784D01*
X113123809Y-32448784D02*
X113148571Y-32473546D01*
X113148571Y-32473546D02*
X113198095Y-32498307D01*
X113198095Y-32498307D02*
X113297142Y-32498307D01*
X113297142Y-32498307D02*
X113346666Y-32473546D01*
X113346666Y-32473546D02*
X113371428Y-32448784D01*
X113371428Y-32448784D02*
X113396190Y-32399260D01*
X113396190Y-32399260D02*
X113396190Y-32300212D01*
X113396190Y-32300212D02*
X113371428Y-32250688D01*
X113371428Y-32250688D02*
X113346666Y-32225926D01*
X113346666Y-32225926D02*
X113297142Y-32201165D01*
D11*
X113780000Y-32260000D02*
G75*
G02*
X112220000Y-32260000I-780000J0D01*
G01*
X112220000Y-32260000D02*
G75*
G02*
X113780000Y-32260000I780000J0D01*
G01*
D15*
X112900952Y-29958307D02*
X112603809Y-29958307D01*
X112752381Y-29958307D02*
X112752381Y-29438307D01*
X112752381Y-29438307D02*
X112702857Y-29512593D01*
X112702857Y-29512593D02*
X112653333Y-29562117D01*
X112653333Y-29562117D02*
X112603809Y-29586879D01*
X113148571Y-29958307D02*
X113247619Y-29958307D01*
X113247619Y-29958307D02*
X113297142Y-29933546D01*
X113297142Y-29933546D02*
X113321904Y-29908784D01*
X113321904Y-29908784D02*
X113371428Y-29834498D01*
X113371428Y-29834498D02*
X113396190Y-29735450D01*
X113396190Y-29735450D02*
X113396190Y-29537355D01*
X113396190Y-29537355D02*
X113371428Y-29487831D01*
X113371428Y-29487831D02*
X113346666Y-29463069D01*
X113346666Y-29463069D02*
X113297142Y-29438307D01*
X113297142Y-29438307D02*
X113198095Y-29438307D01*
X113198095Y-29438307D02*
X113148571Y-29463069D01*
X113148571Y-29463069D02*
X113123809Y-29487831D01*
X113123809Y-29487831D02*
X113099047Y-29537355D01*
X113099047Y-29537355D02*
X113099047Y-29661165D01*
X113099047Y-29661165D02*
X113123809Y-29710688D01*
X113123809Y-29710688D02*
X113148571Y-29735450D01*
X113148571Y-29735450D02*
X113198095Y-29760212D01*
X113198095Y-29760212D02*
X113297142Y-29760212D01*
X113297142Y-29760212D02*
X113346666Y-29735450D01*
X113346666Y-29735450D02*
X113371428Y-29710688D01*
X113371428Y-29710688D02*
X113396190Y-29661165D01*
D11*
X113780000Y-29720000D02*
G75*
G02*
X112220000Y-29720000I-780000J0D01*
G01*
X112220000Y-29720000D02*
G75*
G02*
X113780000Y-29720000I780000J0D01*
G01*
D15*
X87203809Y-75207831D02*
X87228571Y-75183069D01*
X87228571Y-75183069D02*
X87278095Y-75158307D01*
X87278095Y-75158307D02*
X87401904Y-75158307D01*
X87401904Y-75158307D02*
X87451428Y-75183069D01*
X87451428Y-75183069D02*
X87476190Y-75207831D01*
X87476190Y-75207831D02*
X87500952Y-75257355D01*
X87500952Y-75257355D02*
X87500952Y-75306879D01*
X87500952Y-75306879D02*
X87476190Y-75381165D01*
X87476190Y-75381165D02*
X87179047Y-75678307D01*
X87179047Y-75678307D02*
X87500952Y-75678307D01*
X87822857Y-75158307D02*
X87872380Y-75158307D01*
X87872380Y-75158307D02*
X87921904Y-75183069D01*
X87921904Y-75183069D02*
X87946666Y-75207831D01*
X87946666Y-75207831D02*
X87971428Y-75257355D01*
X87971428Y-75257355D02*
X87996190Y-75356403D01*
X87996190Y-75356403D02*
X87996190Y-75480212D01*
X87996190Y-75480212D02*
X87971428Y-75579260D01*
X87971428Y-75579260D02*
X87946666Y-75628784D01*
X87946666Y-75628784D02*
X87921904Y-75653546D01*
X87921904Y-75653546D02*
X87872380Y-75678307D01*
X87872380Y-75678307D02*
X87822857Y-75678307D01*
X87822857Y-75678307D02*
X87773333Y-75653546D01*
X87773333Y-75653546D02*
X87748571Y-75628784D01*
X87748571Y-75628784D02*
X87723809Y-75579260D01*
X87723809Y-75579260D02*
X87699047Y-75480212D01*
X87699047Y-75480212D02*
X87699047Y-75356403D01*
X87699047Y-75356403D02*
X87723809Y-75257355D01*
X87723809Y-75257355D02*
X87748571Y-75207831D01*
X87748571Y-75207831D02*
X87773333Y-75183069D01*
X87773333Y-75183069D02*
X87822857Y-75158307D01*
D11*
X88380000Y-75440000D02*
G75*
G02*
X86820000Y-75440000I-780000J0D01*
G01*
X86820000Y-75440000D02*
G75*
G02*
X88380000Y-75440000I780000J0D01*
G01*
D15*
X87203809Y-72667831D02*
X87228571Y-72643069D01*
X87228571Y-72643069D02*
X87278095Y-72618307D01*
X87278095Y-72618307D02*
X87401904Y-72618307D01*
X87401904Y-72618307D02*
X87451428Y-72643069D01*
X87451428Y-72643069D02*
X87476190Y-72667831D01*
X87476190Y-72667831D02*
X87500952Y-72717355D01*
X87500952Y-72717355D02*
X87500952Y-72766879D01*
X87500952Y-72766879D02*
X87476190Y-72841165D01*
X87476190Y-72841165D02*
X87179047Y-73138307D01*
X87179047Y-73138307D02*
X87500952Y-73138307D01*
X87996190Y-73138307D02*
X87699047Y-73138307D01*
X87847619Y-73138307D02*
X87847619Y-72618307D01*
X87847619Y-72618307D02*
X87798095Y-72692593D01*
X87798095Y-72692593D02*
X87748571Y-72742117D01*
X87748571Y-72742117D02*
X87699047Y-72766879D01*
D11*
X88380000Y-72900000D02*
G75*
G02*
X86820000Y-72900000I-780000J0D01*
G01*
X86820000Y-72900000D02*
G75*
G02*
X88380000Y-72900000I780000J0D01*
G01*
D15*
X87203809Y-70127831D02*
X87228571Y-70103069D01*
X87228571Y-70103069D02*
X87278095Y-70078307D01*
X87278095Y-70078307D02*
X87401904Y-70078307D01*
X87401904Y-70078307D02*
X87451428Y-70103069D01*
X87451428Y-70103069D02*
X87476190Y-70127831D01*
X87476190Y-70127831D02*
X87500952Y-70177355D01*
X87500952Y-70177355D02*
X87500952Y-70226879D01*
X87500952Y-70226879D02*
X87476190Y-70301165D01*
X87476190Y-70301165D02*
X87179047Y-70598307D01*
X87179047Y-70598307D02*
X87500952Y-70598307D01*
X87699047Y-70127831D02*
X87723809Y-70103069D01*
X87723809Y-70103069D02*
X87773333Y-70078307D01*
X87773333Y-70078307D02*
X87897142Y-70078307D01*
X87897142Y-70078307D02*
X87946666Y-70103069D01*
X87946666Y-70103069D02*
X87971428Y-70127831D01*
X87971428Y-70127831D02*
X87996190Y-70177355D01*
X87996190Y-70177355D02*
X87996190Y-70226879D01*
X87996190Y-70226879D02*
X87971428Y-70301165D01*
X87971428Y-70301165D02*
X87674285Y-70598307D01*
X87674285Y-70598307D02*
X87996190Y-70598307D01*
D11*
X88380000Y-70360000D02*
G75*
G02*
X86820000Y-70360000I-780000J0D01*
G01*
X86820000Y-70360000D02*
G75*
G02*
X88380000Y-70360000I780000J0D01*
G01*
D15*
X87203809Y-67587831D02*
X87228571Y-67563069D01*
X87228571Y-67563069D02*
X87278095Y-67538307D01*
X87278095Y-67538307D02*
X87401904Y-67538307D01*
X87401904Y-67538307D02*
X87451428Y-67563069D01*
X87451428Y-67563069D02*
X87476190Y-67587831D01*
X87476190Y-67587831D02*
X87500952Y-67637355D01*
X87500952Y-67637355D02*
X87500952Y-67686879D01*
X87500952Y-67686879D02*
X87476190Y-67761165D01*
X87476190Y-67761165D02*
X87179047Y-68058307D01*
X87179047Y-68058307D02*
X87500952Y-68058307D01*
X87674285Y-67538307D02*
X87996190Y-67538307D01*
X87996190Y-67538307D02*
X87822857Y-67736403D01*
X87822857Y-67736403D02*
X87897142Y-67736403D01*
X87897142Y-67736403D02*
X87946666Y-67761165D01*
X87946666Y-67761165D02*
X87971428Y-67785926D01*
X87971428Y-67785926D02*
X87996190Y-67835450D01*
X87996190Y-67835450D02*
X87996190Y-67959260D01*
X87996190Y-67959260D02*
X87971428Y-68008784D01*
X87971428Y-68008784D02*
X87946666Y-68033546D01*
X87946666Y-68033546D02*
X87897142Y-68058307D01*
X87897142Y-68058307D02*
X87748571Y-68058307D01*
X87748571Y-68058307D02*
X87699047Y-68033546D01*
X87699047Y-68033546D02*
X87674285Y-68008784D01*
D11*
X88380000Y-67820000D02*
G75*
G02*
X86820000Y-67820000I-780000J0D01*
G01*
X86820000Y-67820000D02*
G75*
G02*
X88380000Y-67820000I780000J0D01*
G01*
D15*
X87203809Y-65047831D02*
X87228571Y-65023069D01*
X87228571Y-65023069D02*
X87278095Y-64998307D01*
X87278095Y-64998307D02*
X87401904Y-64998307D01*
X87401904Y-64998307D02*
X87451428Y-65023069D01*
X87451428Y-65023069D02*
X87476190Y-65047831D01*
X87476190Y-65047831D02*
X87500952Y-65097355D01*
X87500952Y-65097355D02*
X87500952Y-65146879D01*
X87500952Y-65146879D02*
X87476190Y-65221165D01*
X87476190Y-65221165D02*
X87179047Y-65518307D01*
X87179047Y-65518307D02*
X87500952Y-65518307D01*
X87946666Y-65171641D02*
X87946666Y-65518307D01*
X87822857Y-64973546D02*
X87699047Y-65344974D01*
X87699047Y-65344974D02*
X88020952Y-65344974D01*
D11*
X88380000Y-65280000D02*
G75*
G02*
X86820000Y-65280000I-780000J0D01*
G01*
X86820000Y-65280000D02*
G75*
G02*
X88380000Y-65280000I780000J0D01*
G01*
D15*
X87203809Y-62507831D02*
X87228571Y-62483069D01*
X87228571Y-62483069D02*
X87278095Y-62458307D01*
X87278095Y-62458307D02*
X87401904Y-62458307D01*
X87401904Y-62458307D02*
X87451428Y-62483069D01*
X87451428Y-62483069D02*
X87476190Y-62507831D01*
X87476190Y-62507831D02*
X87500952Y-62557355D01*
X87500952Y-62557355D02*
X87500952Y-62606879D01*
X87500952Y-62606879D02*
X87476190Y-62681165D01*
X87476190Y-62681165D02*
X87179047Y-62978307D01*
X87179047Y-62978307D02*
X87500952Y-62978307D01*
X87971428Y-62458307D02*
X87723809Y-62458307D01*
X87723809Y-62458307D02*
X87699047Y-62705926D01*
X87699047Y-62705926D02*
X87723809Y-62681165D01*
X87723809Y-62681165D02*
X87773333Y-62656403D01*
X87773333Y-62656403D02*
X87897142Y-62656403D01*
X87897142Y-62656403D02*
X87946666Y-62681165D01*
X87946666Y-62681165D02*
X87971428Y-62705926D01*
X87971428Y-62705926D02*
X87996190Y-62755450D01*
X87996190Y-62755450D02*
X87996190Y-62879260D01*
X87996190Y-62879260D02*
X87971428Y-62928784D01*
X87971428Y-62928784D02*
X87946666Y-62953546D01*
X87946666Y-62953546D02*
X87897142Y-62978307D01*
X87897142Y-62978307D02*
X87773333Y-62978307D01*
X87773333Y-62978307D02*
X87723809Y-62953546D01*
X87723809Y-62953546D02*
X87699047Y-62928784D01*
D11*
X88380000Y-62740000D02*
G75*
G02*
X86820000Y-62740000I-780000J0D01*
G01*
X86820000Y-62740000D02*
G75*
G02*
X88380000Y-62740000I780000J0D01*
G01*
D15*
X87203809Y-59967831D02*
X87228571Y-59943069D01*
X87228571Y-59943069D02*
X87278095Y-59918307D01*
X87278095Y-59918307D02*
X87401904Y-59918307D01*
X87401904Y-59918307D02*
X87451428Y-59943069D01*
X87451428Y-59943069D02*
X87476190Y-59967831D01*
X87476190Y-59967831D02*
X87500952Y-60017355D01*
X87500952Y-60017355D02*
X87500952Y-60066879D01*
X87500952Y-60066879D02*
X87476190Y-60141165D01*
X87476190Y-60141165D02*
X87179047Y-60438307D01*
X87179047Y-60438307D02*
X87500952Y-60438307D01*
X87946666Y-59918307D02*
X87847619Y-59918307D01*
X87847619Y-59918307D02*
X87798095Y-59943069D01*
X87798095Y-59943069D02*
X87773333Y-59967831D01*
X87773333Y-59967831D02*
X87723809Y-60042117D01*
X87723809Y-60042117D02*
X87699047Y-60141165D01*
X87699047Y-60141165D02*
X87699047Y-60339260D01*
X87699047Y-60339260D02*
X87723809Y-60388784D01*
X87723809Y-60388784D02*
X87748571Y-60413546D01*
X87748571Y-60413546D02*
X87798095Y-60438307D01*
X87798095Y-60438307D02*
X87897142Y-60438307D01*
X87897142Y-60438307D02*
X87946666Y-60413546D01*
X87946666Y-60413546D02*
X87971428Y-60388784D01*
X87971428Y-60388784D02*
X87996190Y-60339260D01*
X87996190Y-60339260D02*
X87996190Y-60215450D01*
X87996190Y-60215450D02*
X87971428Y-60165926D01*
X87971428Y-60165926D02*
X87946666Y-60141165D01*
X87946666Y-60141165D02*
X87897142Y-60116403D01*
X87897142Y-60116403D02*
X87798095Y-60116403D01*
X87798095Y-60116403D02*
X87748571Y-60141165D01*
X87748571Y-60141165D02*
X87723809Y-60165926D01*
X87723809Y-60165926D02*
X87699047Y-60215450D01*
D11*
X88380000Y-60200000D02*
G75*
G02*
X86820000Y-60200000I-780000J0D01*
G01*
X86820000Y-60200000D02*
G75*
G02*
X88380000Y-60200000I780000J0D01*
G01*
D15*
X87203809Y-57427831D02*
X87228571Y-57403069D01*
X87228571Y-57403069D02*
X87278095Y-57378307D01*
X87278095Y-57378307D02*
X87401904Y-57378307D01*
X87401904Y-57378307D02*
X87451428Y-57403069D01*
X87451428Y-57403069D02*
X87476190Y-57427831D01*
X87476190Y-57427831D02*
X87500952Y-57477355D01*
X87500952Y-57477355D02*
X87500952Y-57526879D01*
X87500952Y-57526879D02*
X87476190Y-57601165D01*
X87476190Y-57601165D02*
X87179047Y-57898307D01*
X87179047Y-57898307D02*
X87500952Y-57898307D01*
X87674285Y-57378307D02*
X88020952Y-57378307D01*
X88020952Y-57378307D02*
X87798095Y-57898307D01*
D11*
X88380000Y-57660000D02*
G75*
G02*
X86820000Y-57660000I-780000J0D01*
G01*
X86820000Y-57660000D02*
G75*
G02*
X88380000Y-57660000I780000J0D01*
G01*
D15*
X87203809Y-54887831D02*
X87228571Y-54863069D01*
X87228571Y-54863069D02*
X87278095Y-54838307D01*
X87278095Y-54838307D02*
X87401904Y-54838307D01*
X87401904Y-54838307D02*
X87451428Y-54863069D01*
X87451428Y-54863069D02*
X87476190Y-54887831D01*
X87476190Y-54887831D02*
X87500952Y-54937355D01*
X87500952Y-54937355D02*
X87500952Y-54986879D01*
X87500952Y-54986879D02*
X87476190Y-55061165D01*
X87476190Y-55061165D02*
X87179047Y-55358307D01*
X87179047Y-55358307D02*
X87500952Y-55358307D01*
X87798095Y-55061165D02*
X87748571Y-55036403D01*
X87748571Y-55036403D02*
X87723809Y-55011641D01*
X87723809Y-55011641D02*
X87699047Y-54962117D01*
X87699047Y-54962117D02*
X87699047Y-54937355D01*
X87699047Y-54937355D02*
X87723809Y-54887831D01*
X87723809Y-54887831D02*
X87748571Y-54863069D01*
X87748571Y-54863069D02*
X87798095Y-54838307D01*
X87798095Y-54838307D02*
X87897142Y-54838307D01*
X87897142Y-54838307D02*
X87946666Y-54863069D01*
X87946666Y-54863069D02*
X87971428Y-54887831D01*
X87971428Y-54887831D02*
X87996190Y-54937355D01*
X87996190Y-54937355D02*
X87996190Y-54962117D01*
X87996190Y-54962117D02*
X87971428Y-55011641D01*
X87971428Y-55011641D02*
X87946666Y-55036403D01*
X87946666Y-55036403D02*
X87897142Y-55061165D01*
X87897142Y-55061165D02*
X87798095Y-55061165D01*
X87798095Y-55061165D02*
X87748571Y-55085926D01*
X87748571Y-55085926D02*
X87723809Y-55110688D01*
X87723809Y-55110688D02*
X87699047Y-55160212D01*
X87699047Y-55160212D02*
X87699047Y-55259260D01*
X87699047Y-55259260D02*
X87723809Y-55308784D01*
X87723809Y-55308784D02*
X87748571Y-55333546D01*
X87748571Y-55333546D02*
X87798095Y-55358307D01*
X87798095Y-55358307D02*
X87897142Y-55358307D01*
X87897142Y-55358307D02*
X87946666Y-55333546D01*
X87946666Y-55333546D02*
X87971428Y-55308784D01*
X87971428Y-55308784D02*
X87996190Y-55259260D01*
X87996190Y-55259260D02*
X87996190Y-55160212D01*
X87996190Y-55160212D02*
X87971428Y-55110688D01*
X87971428Y-55110688D02*
X87946666Y-55085926D01*
X87946666Y-55085926D02*
X87897142Y-55061165D01*
D11*
X88380000Y-55120000D02*
G75*
G02*
X86820000Y-55120000I-780000J0D01*
G01*
X86820000Y-55120000D02*
G75*
G02*
X88380000Y-55120000I780000J0D01*
G01*
D15*
X87203809Y-52347831D02*
X87228571Y-52323069D01*
X87228571Y-52323069D02*
X87278095Y-52298307D01*
X87278095Y-52298307D02*
X87401904Y-52298307D01*
X87401904Y-52298307D02*
X87451428Y-52323069D01*
X87451428Y-52323069D02*
X87476190Y-52347831D01*
X87476190Y-52347831D02*
X87500952Y-52397355D01*
X87500952Y-52397355D02*
X87500952Y-52446879D01*
X87500952Y-52446879D02*
X87476190Y-52521165D01*
X87476190Y-52521165D02*
X87179047Y-52818307D01*
X87179047Y-52818307D02*
X87500952Y-52818307D01*
X87748571Y-52818307D02*
X87847619Y-52818307D01*
X87847619Y-52818307D02*
X87897142Y-52793546D01*
X87897142Y-52793546D02*
X87921904Y-52768784D01*
X87921904Y-52768784D02*
X87971428Y-52694498D01*
X87971428Y-52694498D02*
X87996190Y-52595450D01*
X87996190Y-52595450D02*
X87996190Y-52397355D01*
X87996190Y-52397355D02*
X87971428Y-52347831D01*
X87971428Y-52347831D02*
X87946666Y-52323069D01*
X87946666Y-52323069D02*
X87897142Y-52298307D01*
X87897142Y-52298307D02*
X87798095Y-52298307D01*
X87798095Y-52298307D02*
X87748571Y-52323069D01*
X87748571Y-52323069D02*
X87723809Y-52347831D01*
X87723809Y-52347831D02*
X87699047Y-52397355D01*
X87699047Y-52397355D02*
X87699047Y-52521165D01*
X87699047Y-52521165D02*
X87723809Y-52570688D01*
X87723809Y-52570688D02*
X87748571Y-52595450D01*
X87748571Y-52595450D02*
X87798095Y-52620212D01*
X87798095Y-52620212D02*
X87897142Y-52620212D01*
X87897142Y-52620212D02*
X87946666Y-52595450D01*
X87946666Y-52595450D02*
X87971428Y-52570688D01*
X87971428Y-52570688D02*
X87996190Y-52521165D01*
D11*
X88380000Y-52580000D02*
G75*
G02*
X86820000Y-52580000I-780000J0D01*
G01*
X86820000Y-52580000D02*
G75*
G02*
X88380000Y-52580000I780000J0D01*
G01*
D15*
X87179047Y-49758307D02*
X87500952Y-49758307D01*
X87500952Y-49758307D02*
X87327619Y-49956403D01*
X87327619Y-49956403D02*
X87401904Y-49956403D01*
X87401904Y-49956403D02*
X87451428Y-49981165D01*
X87451428Y-49981165D02*
X87476190Y-50005926D01*
X87476190Y-50005926D02*
X87500952Y-50055450D01*
X87500952Y-50055450D02*
X87500952Y-50179260D01*
X87500952Y-50179260D02*
X87476190Y-50228784D01*
X87476190Y-50228784D02*
X87451428Y-50253546D01*
X87451428Y-50253546D02*
X87401904Y-50278307D01*
X87401904Y-50278307D02*
X87253333Y-50278307D01*
X87253333Y-50278307D02*
X87203809Y-50253546D01*
X87203809Y-50253546D02*
X87179047Y-50228784D01*
X87822857Y-49758307D02*
X87872380Y-49758307D01*
X87872380Y-49758307D02*
X87921904Y-49783069D01*
X87921904Y-49783069D02*
X87946666Y-49807831D01*
X87946666Y-49807831D02*
X87971428Y-49857355D01*
X87971428Y-49857355D02*
X87996190Y-49956403D01*
X87996190Y-49956403D02*
X87996190Y-50080212D01*
X87996190Y-50080212D02*
X87971428Y-50179260D01*
X87971428Y-50179260D02*
X87946666Y-50228784D01*
X87946666Y-50228784D02*
X87921904Y-50253546D01*
X87921904Y-50253546D02*
X87872380Y-50278307D01*
X87872380Y-50278307D02*
X87822857Y-50278307D01*
X87822857Y-50278307D02*
X87773333Y-50253546D01*
X87773333Y-50253546D02*
X87748571Y-50228784D01*
X87748571Y-50228784D02*
X87723809Y-50179260D01*
X87723809Y-50179260D02*
X87699047Y-50080212D01*
X87699047Y-50080212D02*
X87699047Y-49956403D01*
X87699047Y-49956403D02*
X87723809Y-49857355D01*
X87723809Y-49857355D02*
X87748571Y-49807831D01*
X87748571Y-49807831D02*
X87773333Y-49783069D01*
X87773333Y-49783069D02*
X87822857Y-49758307D01*
D11*
X88380000Y-50040000D02*
G75*
G02*
X86820000Y-50040000I-780000J0D01*
G01*
X86820000Y-50040000D02*
G75*
G02*
X88380000Y-50040000I780000J0D01*
G01*
D15*
X87179047Y-47218307D02*
X87500952Y-47218307D01*
X87500952Y-47218307D02*
X87327619Y-47416403D01*
X87327619Y-47416403D02*
X87401904Y-47416403D01*
X87401904Y-47416403D02*
X87451428Y-47441165D01*
X87451428Y-47441165D02*
X87476190Y-47465926D01*
X87476190Y-47465926D02*
X87500952Y-47515450D01*
X87500952Y-47515450D02*
X87500952Y-47639260D01*
X87500952Y-47639260D02*
X87476190Y-47688784D01*
X87476190Y-47688784D02*
X87451428Y-47713546D01*
X87451428Y-47713546D02*
X87401904Y-47738307D01*
X87401904Y-47738307D02*
X87253333Y-47738307D01*
X87253333Y-47738307D02*
X87203809Y-47713546D01*
X87203809Y-47713546D02*
X87179047Y-47688784D01*
X87996190Y-47738307D02*
X87699047Y-47738307D01*
X87847619Y-47738307D02*
X87847619Y-47218307D01*
X87847619Y-47218307D02*
X87798095Y-47292593D01*
X87798095Y-47292593D02*
X87748571Y-47342117D01*
X87748571Y-47342117D02*
X87699047Y-47366879D01*
D11*
X88380000Y-47500000D02*
G75*
G02*
X86820000Y-47500000I-780000J0D01*
G01*
X86820000Y-47500000D02*
G75*
G02*
X88380000Y-47500000I780000J0D01*
G01*
D15*
X87179047Y-44678307D02*
X87500952Y-44678307D01*
X87500952Y-44678307D02*
X87327619Y-44876403D01*
X87327619Y-44876403D02*
X87401904Y-44876403D01*
X87401904Y-44876403D02*
X87451428Y-44901165D01*
X87451428Y-44901165D02*
X87476190Y-44925926D01*
X87476190Y-44925926D02*
X87500952Y-44975450D01*
X87500952Y-44975450D02*
X87500952Y-45099260D01*
X87500952Y-45099260D02*
X87476190Y-45148784D01*
X87476190Y-45148784D02*
X87451428Y-45173546D01*
X87451428Y-45173546D02*
X87401904Y-45198307D01*
X87401904Y-45198307D02*
X87253333Y-45198307D01*
X87253333Y-45198307D02*
X87203809Y-45173546D01*
X87203809Y-45173546D02*
X87179047Y-45148784D01*
X87699047Y-44727831D02*
X87723809Y-44703069D01*
X87723809Y-44703069D02*
X87773333Y-44678307D01*
X87773333Y-44678307D02*
X87897142Y-44678307D01*
X87897142Y-44678307D02*
X87946666Y-44703069D01*
X87946666Y-44703069D02*
X87971428Y-44727831D01*
X87971428Y-44727831D02*
X87996190Y-44777355D01*
X87996190Y-44777355D02*
X87996190Y-44826879D01*
X87996190Y-44826879D02*
X87971428Y-44901165D01*
X87971428Y-44901165D02*
X87674285Y-45198307D01*
X87674285Y-45198307D02*
X87996190Y-45198307D01*
D11*
X88380000Y-44960000D02*
G75*
G02*
X86820000Y-44960000I-780000J0D01*
G01*
X86820000Y-44960000D02*
G75*
G02*
X88380000Y-44960000I780000J0D01*
G01*
D15*
X87179047Y-42138307D02*
X87500952Y-42138307D01*
X87500952Y-42138307D02*
X87327619Y-42336403D01*
X87327619Y-42336403D02*
X87401904Y-42336403D01*
X87401904Y-42336403D02*
X87451428Y-42361165D01*
X87451428Y-42361165D02*
X87476190Y-42385926D01*
X87476190Y-42385926D02*
X87500952Y-42435450D01*
X87500952Y-42435450D02*
X87500952Y-42559260D01*
X87500952Y-42559260D02*
X87476190Y-42608784D01*
X87476190Y-42608784D02*
X87451428Y-42633546D01*
X87451428Y-42633546D02*
X87401904Y-42658307D01*
X87401904Y-42658307D02*
X87253333Y-42658307D01*
X87253333Y-42658307D02*
X87203809Y-42633546D01*
X87203809Y-42633546D02*
X87179047Y-42608784D01*
X87674285Y-42138307D02*
X87996190Y-42138307D01*
X87996190Y-42138307D02*
X87822857Y-42336403D01*
X87822857Y-42336403D02*
X87897142Y-42336403D01*
X87897142Y-42336403D02*
X87946666Y-42361165D01*
X87946666Y-42361165D02*
X87971428Y-42385926D01*
X87971428Y-42385926D02*
X87996190Y-42435450D01*
X87996190Y-42435450D02*
X87996190Y-42559260D01*
X87996190Y-42559260D02*
X87971428Y-42608784D01*
X87971428Y-42608784D02*
X87946666Y-42633546D01*
X87946666Y-42633546D02*
X87897142Y-42658307D01*
X87897142Y-42658307D02*
X87748571Y-42658307D01*
X87748571Y-42658307D02*
X87699047Y-42633546D01*
X87699047Y-42633546D02*
X87674285Y-42608784D01*
D11*
X88380000Y-42420000D02*
G75*
G02*
X86820000Y-42420000I-780000J0D01*
G01*
X86820000Y-42420000D02*
G75*
G02*
X88380000Y-42420000I780000J0D01*
G01*
D15*
X87179047Y-39598307D02*
X87500952Y-39598307D01*
X87500952Y-39598307D02*
X87327619Y-39796403D01*
X87327619Y-39796403D02*
X87401904Y-39796403D01*
X87401904Y-39796403D02*
X87451428Y-39821165D01*
X87451428Y-39821165D02*
X87476190Y-39845926D01*
X87476190Y-39845926D02*
X87500952Y-39895450D01*
X87500952Y-39895450D02*
X87500952Y-40019260D01*
X87500952Y-40019260D02*
X87476190Y-40068784D01*
X87476190Y-40068784D02*
X87451428Y-40093546D01*
X87451428Y-40093546D02*
X87401904Y-40118307D01*
X87401904Y-40118307D02*
X87253333Y-40118307D01*
X87253333Y-40118307D02*
X87203809Y-40093546D01*
X87203809Y-40093546D02*
X87179047Y-40068784D01*
X87946666Y-39771641D02*
X87946666Y-40118307D01*
X87822857Y-39573546D02*
X87699047Y-39944974D01*
X87699047Y-39944974D02*
X88020952Y-39944974D01*
D11*
X88380000Y-39880000D02*
G75*
G02*
X86820000Y-39880000I-780000J0D01*
G01*
X86820000Y-39880000D02*
G75*
G02*
X88380000Y-39880000I780000J0D01*
G01*
D15*
X87179047Y-37058307D02*
X87500952Y-37058307D01*
X87500952Y-37058307D02*
X87327619Y-37256403D01*
X87327619Y-37256403D02*
X87401904Y-37256403D01*
X87401904Y-37256403D02*
X87451428Y-37281165D01*
X87451428Y-37281165D02*
X87476190Y-37305926D01*
X87476190Y-37305926D02*
X87500952Y-37355450D01*
X87500952Y-37355450D02*
X87500952Y-37479260D01*
X87500952Y-37479260D02*
X87476190Y-37528784D01*
X87476190Y-37528784D02*
X87451428Y-37553546D01*
X87451428Y-37553546D02*
X87401904Y-37578307D01*
X87401904Y-37578307D02*
X87253333Y-37578307D01*
X87253333Y-37578307D02*
X87203809Y-37553546D01*
X87203809Y-37553546D02*
X87179047Y-37528784D01*
X87971428Y-37058307D02*
X87723809Y-37058307D01*
X87723809Y-37058307D02*
X87699047Y-37305926D01*
X87699047Y-37305926D02*
X87723809Y-37281165D01*
X87723809Y-37281165D02*
X87773333Y-37256403D01*
X87773333Y-37256403D02*
X87897142Y-37256403D01*
X87897142Y-37256403D02*
X87946666Y-37281165D01*
X87946666Y-37281165D02*
X87971428Y-37305926D01*
X87971428Y-37305926D02*
X87996190Y-37355450D01*
X87996190Y-37355450D02*
X87996190Y-37479260D01*
X87996190Y-37479260D02*
X87971428Y-37528784D01*
X87971428Y-37528784D02*
X87946666Y-37553546D01*
X87946666Y-37553546D02*
X87897142Y-37578307D01*
X87897142Y-37578307D02*
X87773333Y-37578307D01*
X87773333Y-37578307D02*
X87723809Y-37553546D01*
X87723809Y-37553546D02*
X87699047Y-37528784D01*
D11*
X88380000Y-37340000D02*
G75*
G02*
X86820000Y-37340000I-780000J0D01*
G01*
X86820000Y-37340000D02*
G75*
G02*
X88380000Y-37340000I780000J0D01*
G01*
D15*
X87179047Y-34518307D02*
X87500952Y-34518307D01*
X87500952Y-34518307D02*
X87327619Y-34716403D01*
X87327619Y-34716403D02*
X87401904Y-34716403D01*
X87401904Y-34716403D02*
X87451428Y-34741165D01*
X87451428Y-34741165D02*
X87476190Y-34765926D01*
X87476190Y-34765926D02*
X87500952Y-34815450D01*
X87500952Y-34815450D02*
X87500952Y-34939260D01*
X87500952Y-34939260D02*
X87476190Y-34988784D01*
X87476190Y-34988784D02*
X87451428Y-35013546D01*
X87451428Y-35013546D02*
X87401904Y-35038307D01*
X87401904Y-35038307D02*
X87253333Y-35038307D01*
X87253333Y-35038307D02*
X87203809Y-35013546D01*
X87203809Y-35013546D02*
X87179047Y-34988784D01*
X87946666Y-34518307D02*
X87847619Y-34518307D01*
X87847619Y-34518307D02*
X87798095Y-34543069D01*
X87798095Y-34543069D02*
X87773333Y-34567831D01*
X87773333Y-34567831D02*
X87723809Y-34642117D01*
X87723809Y-34642117D02*
X87699047Y-34741165D01*
X87699047Y-34741165D02*
X87699047Y-34939260D01*
X87699047Y-34939260D02*
X87723809Y-34988784D01*
X87723809Y-34988784D02*
X87748571Y-35013546D01*
X87748571Y-35013546D02*
X87798095Y-35038307D01*
X87798095Y-35038307D02*
X87897142Y-35038307D01*
X87897142Y-35038307D02*
X87946666Y-35013546D01*
X87946666Y-35013546D02*
X87971428Y-34988784D01*
X87971428Y-34988784D02*
X87996190Y-34939260D01*
X87996190Y-34939260D02*
X87996190Y-34815450D01*
X87996190Y-34815450D02*
X87971428Y-34765926D01*
X87971428Y-34765926D02*
X87946666Y-34741165D01*
X87946666Y-34741165D02*
X87897142Y-34716403D01*
X87897142Y-34716403D02*
X87798095Y-34716403D01*
X87798095Y-34716403D02*
X87748571Y-34741165D01*
X87748571Y-34741165D02*
X87723809Y-34765926D01*
X87723809Y-34765926D02*
X87699047Y-34815450D01*
D11*
X88380000Y-34800000D02*
G75*
G02*
X86820000Y-34800000I-780000J0D01*
G01*
X86820000Y-34800000D02*
G75*
G02*
X88380000Y-34800000I780000J0D01*
G01*
D15*
X87179047Y-31978307D02*
X87500952Y-31978307D01*
X87500952Y-31978307D02*
X87327619Y-32176403D01*
X87327619Y-32176403D02*
X87401904Y-32176403D01*
X87401904Y-32176403D02*
X87451428Y-32201165D01*
X87451428Y-32201165D02*
X87476190Y-32225926D01*
X87476190Y-32225926D02*
X87500952Y-32275450D01*
X87500952Y-32275450D02*
X87500952Y-32399260D01*
X87500952Y-32399260D02*
X87476190Y-32448784D01*
X87476190Y-32448784D02*
X87451428Y-32473546D01*
X87451428Y-32473546D02*
X87401904Y-32498307D01*
X87401904Y-32498307D02*
X87253333Y-32498307D01*
X87253333Y-32498307D02*
X87203809Y-32473546D01*
X87203809Y-32473546D02*
X87179047Y-32448784D01*
X87674285Y-31978307D02*
X88020952Y-31978307D01*
X88020952Y-31978307D02*
X87798095Y-32498307D01*
D11*
X88380000Y-32260000D02*
G75*
G02*
X86820000Y-32260000I-780000J0D01*
G01*
X86820000Y-32260000D02*
G75*
G02*
X88380000Y-32260000I780000J0D01*
G01*
D15*
X87179047Y-29438307D02*
X87500952Y-29438307D01*
X87500952Y-29438307D02*
X87327619Y-29636403D01*
X87327619Y-29636403D02*
X87401904Y-29636403D01*
X87401904Y-29636403D02*
X87451428Y-29661165D01*
X87451428Y-29661165D02*
X87476190Y-29685926D01*
X87476190Y-29685926D02*
X87500952Y-29735450D01*
X87500952Y-29735450D02*
X87500952Y-29859260D01*
X87500952Y-29859260D02*
X87476190Y-29908784D01*
X87476190Y-29908784D02*
X87451428Y-29933546D01*
X87451428Y-29933546D02*
X87401904Y-29958307D01*
X87401904Y-29958307D02*
X87253333Y-29958307D01*
X87253333Y-29958307D02*
X87203809Y-29933546D01*
X87203809Y-29933546D02*
X87179047Y-29908784D01*
X87798095Y-29661165D02*
X87748571Y-29636403D01*
X87748571Y-29636403D02*
X87723809Y-29611641D01*
X87723809Y-29611641D02*
X87699047Y-29562117D01*
X87699047Y-29562117D02*
X87699047Y-29537355D01*
X87699047Y-29537355D02*
X87723809Y-29487831D01*
X87723809Y-29487831D02*
X87748571Y-29463069D01*
X87748571Y-29463069D02*
X87798095Y-29438307D01*
X87798095Y-29438307D02*
X87897142Y-29438307D01*
X87897142Y-29438307D02*
X87946666Y-29463069D01*
X87946666Y-29463069D02*
X87971428Y-29487831D01*
X87971428Y-29487831D02*
X87996190Y-29537355D01*
X87996190Y-29537355D02*
X87996190Y-29562117D01*
X87996190Y-29562117D02*
X87971428Y-29611641D01*
X87971428Y-29611641D02*
X87946666Y-29636403D01*
X87946666Y-29636403D02*
X87897142Y-29661165D01*
X87897142Y-29661165D02*
X87798095Y-29661165D01*
X87798095Y-29661165D02*
X87748571Y-29685926D01*
X87748571Y-29685926D02*
X87723809Y-29710688D01*
X87723809Y-29710688D02*
X87699047Y-29760212D01*
X87699047Y-29760212D02*
X87699047Y-29859260D01*
X87699047Y-29859260D02*
X87723809Y-29908784D01*
X87723809Y-29908784D02*
X87748571Y-29933546D01*
X87748571Y-29933546D02*
X87798095Y-29958307D01*
X87798095Y-29958307D02*
X87897142Y-29958307D01*
X87897142Y-29958307D02*
X87946666Y-29933546D01*
X87946666Y-29933546D02*
X87971428Y-29908784D01*
X87971428Y-29908784D02*
X87996190Y-29859260D01*
X87996190Y-29859260D02*
X87996190Y-29760212D01*
X87996190Y-29760212D02*
X87971428Y-29710688D01*
X87971428Y-29710688D02*
X87946666Y-29685926D01*
X87946666Y-29685926D02*
X87897142Y-29661165D01*
D11*
X88380000Y-29720000D02*
G75*
G02*
X86820000Y-29720000I-780000J0D01*
G01*
X86820000Y-29720000D02*
G75*
G02*
X88380000Y-29720000I780000J0D01*
G01*
%TD*%
D12*
X81646380Y-73550418D02*
X81341619Y-73550418D01*
X81494000Y-73550418D02*
X81494000Y-73017085D01*
X81494000Y-73017085D02*
X81443206Y-73093276D01*
X81443206Y-73093276D02*
X81392412Y-73144069D01*
X81392412Y-73144069D02*
X81341619Y-73169466D01*
D11*
%TO.C,R5*%
X82294000Y-73306000D02*
G75*
G02*
X80694000Y-73306000I-800000J0D01*
G01*
X80694000Y-73306000D02*
G75*
G02*
X82294000Y-73306000I800000J0D01*
G01*
D12*
X71181619Y-73067879D02*
X71207016Y-73042482D01*
X71207016Y-73042482D02*
X71257809Y-73017085D01*
X71257809Y-73017085D02*
X71384793Y-73017085D01*
X71384793Y-73017085D02*
X71435587Y-73042482D01*
X71435587Y-73042482D02*
X71460984Y-73067879D01*
X71460984Y-73067879D02*
X71486380Y-73118673D01*
X71486380Y-73118673D02*
X71486380Y-73169466D01*
X71486380Y-73169466D02*
X71460984Y-73245657D01*
X71460984Y-73245657D02*
X71156222Y-73550418D01*
X71156222Y-73550418D02*
X71486380Y-73550418D01*
D11*
X72134000Y-73306000D02*
G75*
G02*
X70534000Y-73306000I-800000J0D01*
G01*
X70534000Y-73306000D02*
G75*
G02*
X72134000Y-73306000I800000J0D01*
G01*
%TD*%
D12*
X55202380Y-31334418D02*
X54897619Y-31334418D01*
X55050000Y-31334418D02*
X55050000Y-30801085D01*
X55050000Y-30801085D02*
X54999206Y-30877276D01*
X54999206Y-30877276D02*
X54948412Y-30928069D01*
X54948412Y-30928069D02*
X54897619Y-30953466D01*
D11*
D13*
%TO.C,C2*%
D11*
X55600000Y-30290000D02*
X55695671Y-30309030D01*
X55776777Y-30363223D01*
X55830970Y-30444329D01*
X55850000Y-30540000D01*
X55850000Y-31640000D01*
X55830970Y-31735671D01*
X55776777Y-31816777D01*
X55695671Y-31870970D01*
X55600000Y-31890000D01*
X54500000Y-31890000D01*
X54404329Y-31870970D01*
X54323223Y-31816777D01*
X54269030Y-31735671D01*
X54250000Y-31640000D01*
X54250000Y-30540000D01*
X54269030Y-30444329D01*
X54323223Y-30363223D01*
X54404329Y-30309030D01*
X54500000Y-30290000D01*
X55600000Y-30290000D01*
D12*
X54897619Y-33351879D02*
X54923016Y-33326482D01*
X54923016Y-33326482D02*
X54973809Y-33301085D01*
X54973809Y-33301085D02*
X55100793Y-33301085D01*
X55100793Y-33301085D02*
X55151587Y-33326482D01*
X55151587Y-33326482D02*
X55176984Y-33351879D01*
X55176984Y-33351879D02*
X55202380Y-33402673D01*
X55202380Y-33402673D02*
X55202380Y-33453466D01*
X55202380Y-33453466D02*
X55176984Y-33529657D01*
X55176984Y-33529657D02*
X54872222Y-33834418D01*
X54872222Y-33834418D02*
X55202380Y-33834418D01*
D11*
X55850000Y-33590000D02*
G75*
G02*
X54250000Y-33590000I-800000J0D01*
G01*
X54250000Y-33590000D02*
G75*
G02*
X55850000Y-33590000I800000J0D01*
G01*
%TD*%
D14*
X53947885Y-108134285D02*
X53947885Y-108505714D01*
X53947885Y-108320000D02*
X53297885Y-108320000D01*
X53297885Y-108320000D02*
X53390742Y-108381904D01*
X53390742Y-108381904D02*
X53452647Y-108443809D01*
X53452647Y-108443809D02*
X53483599Y-108505714D01*
D11*
D13*
%TO.C,Buzzer*%
D11*
X52800000Y-107595000D02*
X52819030Y-107499329D01*
X52873223Y-107418223D01*
X52954329Y-107364030D01*
X53050000Y-107345000D01*
X54250000Y-107345000D01*
X54345671Y-107364030D01*
X54426777Y-107418223D01*
X54480970Y-107499329D01*
X54500000Y-107595000D01*
X54500000Y-109045000D01*
X54480970Y-109140671D01*
X54426777Y-109221777D01*
X54345671Y-109275970D01*
X54250000Y-109295000D01*
X53050000Y-109295000D01*
X52954329Y-109275970D01*
X52873223Y-109221777D01*
X52819030Y-109140671D01*
X52800000Y-109045000D01*
X52800000Y-107595000D01*
D14*
X55859790Y-108505714D02*
X55828837Y-108474762D01*
X55828837Y-108474762D02*
X55797885Y-108412857D01*
X55797885Y-108412857D02*
X55797885Y-108258095D01*
X55797885Y-108258095D02*
X55828837Y-108196190D01*
X55828837Y-108196190D02*
X55859790Y-108165238D01*
X55859790Y-108165238D02*
X55921694Y-108134285D01*
X55921694Y-108134285D02*
X55983599Y-108134285D01*
X55983599Y-108134285D02*
X56076456Y-108165238D01*
X56076456Y-108165238D02*
X56447885Y-108536666D01*
X56447885Y-108536666D02*
X56447885Y-108134285D01*
D11*
X55300000Y-108195000D02*
X55300000Y-108445000D01*
X57000000Y-108445000D02*
G75*
G02*
X55300000Y-108445000I-850000J0D01*
G01*
X57000000Y-108445000D02*
X57000000Y-108195000D01*
X57000000Y-108195000D02*
G75*
G03*
X55300000Y-108195000I-850000J0D01*
G01*
D14*
X58297885Y-108536666D02*
X58297885Y-108134285D01*
X58297885Y-108134285D02*
X58545504Y-108350952D01*
X58545504Y-108350952D02*
X58545504Y-108258095D01*
X58545504Y-108258095D02*
X58576456Y-108196190D01*
X58576456Y-108196190D02*
X58607409Y-108165238D01*
X58607409Y-108165238D02*
X58669313Y-108134285D01*
X58669313Y-108134285D02*
X58824075Y-108134285D01*
X58824075Y-108134285D02*
X58885980Y-108165238D01*
X58885980Y-108165238D02*
X58916933Y-108196190D01*
X58916933Y-108196190D02*
X58947885Y-108258095D01*
X58947885Y-108258095D02*
X58947885Y-108443809D01*
X58947885Y-108443809D02*
X58916933Y-108505714D01*
X58916933Y-108505714D02*
X58885980Y-108536666D01*
D11*
X57800000Y-108195000D02*
X57800000Y-108445000D01*
X59500000Y-108445000D02*
G75*
G02*
X57800000Y-108445000I-850000J0D01*
G01*
X59500000Y-108445000D02*
X59500000Y-108195000D01*
X59500000Y-108195000D02*
G75*
G03*
X57800000Y-108195000I-850000J0D01*
G01*
%TD*%
D12*
X145652380Y-62244418D02*
X145347619Y-62244418D01*
X145500000Y-62244418D02*
X145500000Y-61711085D01*
X145500000Y-61711085D02*
X145449206Y-61787276D01*
X145449206Y-61787276D02*
X145398412Y-61838069D01*
X145398412Y-61838069D02*
X145347619Y-61863466D01*
D11*
%TO.C,C10*%
X146300000Y-62000000D02*
G75*
G02*
X144700000Y-62000000I-800000J0D01*
G01*
X144700000Y-62000000D02*
G75*
G02*
X146300000Y-62000000I800000J0D01*
G01*
D12*
X145347619Y-64261879D02*
X145373016Y-64236482D01*
X145373016Y-64236482D02*
X145423809Y-64211085D01*
X145423809Y-64211085D02*
X145550793Y-64211085D01*
X145550793Y-64211085D02*
X145601587Y-64236482D01*
X145601587Y-64236482D02*
X145626984Y-64261879D01*
X145626984Y-64261879D02*
X145652380Y-64312673D01*
X145652380Y-64312673D02*
X145652380Y-64363466D01*
X145652380Y-64363466D02*
X145626984Y-64439657D01*
X145626984Y-64439657D02*
X145322222Y-64744418D01*
X145322222Y-64744418D02*
X145652380Y-64744418D01*
D11*
X146300000Y-64500000D02*
G75*
G02*
X144700000Y-64500000I-800000J0D01*
G01*
X144700000Y-64500000D02*
G75*
G02*
X146300000Y-64500000I800000J0D01*
G01*
%TD*%
D16*
X130021904Y-113049695D02*
X129698095Y-113049695D01*
X129859999Y-113049695D02*
X129859999Y-112483029D01*
X129859999Y-112483029D02*
X129806031Y-112563981D01*
X129806031Y-112563981D02*
X129752063Y-112617949D01*
X129752063Y-112617949D02*
X129698095Y-112644933D01*
D11*
%TO.C,J1*%
X129010000Y-111940000D02*
X129010000Y-113640000D01*
X130710000Y-113640000D01*
X130710000Y-111940000D01*
X129010000Y-111940000D01*
D16*
X129698095Y-109996997D02*
X129725079Y-109970013D01*
X129725079Y-109970013D02*
X129779047Y-109943029D01*
X129779047Y-109943029D02*
X129913968Y-109943029D01*
X129913968Y-109943029D02*
X129967936Y-109970013D01*
X129967936Y-109970013D02*
X129994920Y-109996997D01*
X129994920Y-109996997D02*
X130021904Y-110050965D01*
X130021904Y-110050965D02*
X130021904Y-110104933D01*
X130021904Y-110104933D02*
X129994920Y-110185885D01*
X129994920Y-110185885D02*
X129671111Y-110509695D01*
X129671111Y-110509695D02*
X130021904Y-110509695D01*
D11*
X130710000Y-110250000D02*
G75*
G02*
X129010000Y-110250000I-850000J0D01*
G01*
X129010000Y-110250000D02*
G75*
G02*
X130710000Y-110250000I850000J0D01*
G01*
D16*
X129671111Y-107403029D02*
X130021904Y-107403029D01*
X130021904Y-107403029D02*
X129833015Y-107618901D01*
X129833015Y-107618901D02*
X129913968Y-107618901D01*
X129913968Y-107618901D02*
X129967936Y-107645885D01*
X129967936Y-107645885D02*
X129994920Y-107672870D01*
X129994920Y-107672870D02*
X130021904Y-107726838D01*
X130021904Y-107726838D02*
X130021904Y-107861758D01*
X130021904Y-107861758D02*
X129994920Y-107915726D01*
X129994920Y-107915726D02*
X129967936Y-107942711D01*
X129967936Y-107942711D02*
X129913968Y-107969695D01*
X129913968Y-107969695D02*
X129752063Y-107969695D01*
X129752063Y-107969695D02*
X129698095Y-107942711D01*
X129698095Y-107942711D02*
X129671111Y-107915726D01*
D11*
X130710000Y-107710000D02*
G75*
G02*
X129010000Y-107710000I-850000J0D01*
G01*
X129010000Y-107710000D02*
G75*
G02*
X130710000Y-107710000I850000J0D01*
G01*
D16*
X129967936Y-105051917D02*
X129967936Y-105429695D01*
X129833015Y-104836045D02*
X129698095Y-105240806D01*
X129698095Y-105240806D02*
X130048888Y-105240806D01*
D11*
X130710000Y-105170000D02*
G75*
G02*
X129010000Y-105170000I-850000J0D01*
G01*
X129010000Y-105170000D02*
G75*
G02*
X130710000Y-105170000I850000J0D01*
G01*
D16*
X129994920Y-102323029D02*
X129725079Y-102323029D01*
X129725079Y-102323029D02*
X129698095Y-102592870D01*
X129698095Y-102592870D02*
X129725079Y-102565885D01*
X129725079Y-102565885D02*
X129779047Y-102538901D01*
X129779047Y-102538901D02*
X129913968Y-102538901D01*
X129913968Y-102538901D02*
X129967936Y-102565885D01*
X129967936Y-102565885D02*
X129994920Y-102592870D01*
X129994920Y-102592870D02*
X130021904Y-102646838D01*
X130021904Y-102646838D02*
X130021904Y-102781758D01*
X130021904Y-102781758D02*
X129994920Y-102835726D01*
X129994920Y-102835726D02*
X129967936Y-102862711D01*
X129967936Y-102862711D02*
X129913968Y-102889695D01*
X129913968Y-102889695D02*
X129779047Y-102889695D01*
X129779047Y-102889695D02*
X129725079Y-102862711D01*
X129725079Y-102862711D02*
X129698095Y-102835726D01*
D11*
X130710000Y-102630000D02*
G75*
G02*
X129010000Y-102630000I-850000J0D01*
G01*
X129010000Y-102630000D02*
G75*
G02*
X130710000Y-102630000I850000J0D01*
G01*
D16*
X129967936Y-99783029D02*
X129859999Y-99783029D01*
X129859999Y-99783029D02*
X129806031Y-99810013D01*
X129806031Y-99810013D02*
X129779047Y-99836997D01*
X129779047Y-99836997D02*
X129725079Y-99917949D01*
X129725079Y-99917949D02*
X129698095Y-100025885D01*
X129698095Y-100025885D02*
X129698095Y-100241758D01*
X129698095Y-100241758D02*
X129725079Y-100295726D01*
X129725079Y-100295726D02*
X129752063Y-100322711D01*
X129752063Y-100322711D02*
X129806031Y-100349695D01*
X129806031Y-100349695D02*
X129913968Y-100349695D01*
X129913968Y-100349695D02*
X129967936Y-100322711D01*
X129967936Y-100322711D02*
X129994920Y-100295726D01*
X129994920Y-100295726D02*
X130021904Y-100241758D01*
X130021904Y-100241758D02*
X130021904Y-100106838D01*
X130021904Y-100106838D02*
X129994920Y-100052870D01*
X129994920Y-100052870D02*
X129967936Y-100025885D01*
X129967936Y-100025885D02*
X129913968Y-99998901D01*
X129913968Y-99998901D02*
X129806031Y-99998901D01*
X129806031Y-99998901D02*
X129752063Y-100025885D01*
X129752063Y-100025885D02*
X129725079Y-100052870D01*
X129725079Y-100052870D02*
X129698095Y-100106838D01*
D11*
X130710000Y-100090000D02*
G75*
G02*
X129010000Y-100090000I-850000J0D01*
G01*
X129010000Y-100090000D02*
G75*
G02*
X130710000Y-100090000I850000J0D01*
G01*
%TD*%
D10*
X143747618Y-102897180D02*
X143252381Y-102897180D01*
X143500000Y-102897180D02*
X143500000Y-102030514D01*
X143500000Y-102030514D02*
X143417460Y-102154324D01*
X143417460Y-102154324D02*
X143334920Y-102236863D01*
X143334920Y-102236863D02*
X143252381Y-102278133D01*
D11*
%TO.C,BC OUT*%
X142200000Y-101200000D02*
X142200000Y-103800000D01*
X144800000Y-103800000D01*
X144800000Y-101200000D01*
X142200000Y-101200000D01*
D10*
X143252381Y-97033054D02*
X143293651Y-96991784D01*
X143293651Y-96991784D02*
X143376190Y-96950514D01*
X143376190Y-96950514D02*
X143582539Y-96950514D01*
X143582539Y-96950514D02*
X143665079Y-96991784D01*
X143665079Y-96991784D02*
X143706349Y-97033054D01*
X143706349Y-97033054D02*
X143747618Y-97115594D01*
X143747618Y-97115594D02*
X143747618Y-97198133D01*
X143747618Y-97198133D02*
X143706349Y-97321943D01*
X143706349Y-97321943D02*
X143211111Y-97817180D01*
X143211111Y-97817180D02*
X143747618Y-97817180D01*
D11*
X144800000Y-97420000D02*
G75*
G02*
X142200000Y-97420000I-1300000J0D01*
G01*
X142200000Y-97420000D02*
G75*
G02*
X144800000Y-97420000I1300000J0D01*
G01*
%TD*%
%TO.C,H4*%
X45590000Y-29420000D02*
G75*
G02*
X42590000Y-29420000I-1500000J0D01*
G01*
X42590000Y-29420000D02*
G75*
G02*
X45590000Y-29420000I1500000J0D01*
G01*
%TD*%
D12*
X118142380Y-63896418D02*
X117837619Y-63896418D01*
X117990000Y-63896418D02*
X117990000Y-63363085D01*
X117990000Y-63363085D02*
X117939206Y-63439276D01*
X117939206Y-63439276D02*
X117888412Y-63490069D01*
X117888412Y-63490069D02*
X117837619Y-63515466D01*
D11*
%TO.C,R10*%
X118790000Y-63652000D02*
G75*
G02*
X117190000Y-63652000I-800000J0D01*
G01*
X117190000Y-63652000D02*
G75*
G02*
X118790000Y-63652000I800000J0D01*
G01*
D12*
X127997619Y-63413879D02*
X128023016Y-63388482D01*
X128023016Y-63388482D02*
X128073809Y-63363085D01*
X128073809Y-63363085D02*
X128200793Y-63363085D01*
X128200793Y-63363085D02*
X128251587Y-63388482D01*
X128251587Y-63388482D02*
X128276984Y-63413879D01*
X128276984Y-63413879D02*
X128302380Y-63464673D01*
X128302380Y-63464673D02*
X128302380Y-63515466D01*
X128302380Y-63515466D02*
X128276984Y-63591657D01*
X128276984Y-63591657D02*
X127972222Y-63896418D01*
X127972222Y-63896418D02*
X128302380Y-63896418D01*
D11*
X128950000Y-63652000D02*
G75*
G02*
X127350000Y-63652000I-800000J0D01*
G01*
X127350000Y-63652000D02*
G75*
G02*
X128950000Y-63652000I800000J0D01*
G01*
%TD*%
D10*
X87037618Y-108807180D02*
X86542381Y-108807180D01*
X86790000Y-108807180D02*
X86790000Y-107940514D01*
X86790000Y-107940514D02*
X86707460Y-108064324D01*
X86707460Y-108064324D02*
X86624920Y-108146863D01*
X86624920Y-108146863D02*
X86542381Y-108188133D01*
D11*
%TO.C,LED*%
X85490000Y-107110000D02*
X85490000Y-109710000D01*
X88090000Y-109710000D01*
X88090000Y-107110000D01*
X85490000Y-107110000D01*
D10*
X91622381Y-108023054D02*
X91663651Y-107981784D01*
X91663651Y-107981784D02*
X91746190Y-107940514D01*
X91746190Y-107940514D02*
X91952539Y-107940514D01*
X91952539Y-107940514D02*
X92035079Y-107981784D01*
X92035079Y-107981784D02*
X92076349Y-108023054D01*
X92076349Y-108023054D02*
X92117618Y-108105594D01*
X92117618Y-108105594D02*
X92117618Y-108188133D01*
X92117618Y-108188133D02*
X92076349Y-108311943D01*
X92076349Y-108311943D02*
X91581111Y-108807180D01*
X91581111Y-108807180D02*
X92117618Y-108807180D01*
D11*
X93170000Y-108410000D02*
G75*
G02*
X90570000Y-108410000I-1300000J0D01*
G01*
X90570000Y-108410000D02*
G75*
G02*
X93170000Y-108410000I1300000J0D01*
G01*
%TD*%
D12*
X55402380Y-50964418D02*
X55097619Y-50964418D01*
X55250000Y-50964418D02*
X55250000Y-50431085D01*
X55250000Y-50431085D02*
X55199206Y-50507276D01*
X55199206Y-50507276D02*
X55148412Y-50558069D01*
X55148412Y-50558069D02*
X55097619Y-50583466D01*
D11*
D13*
%TO.C,C1*%
D11*
X55800000Y-49920000D02*
X55895671Y-49939030D01*
X55976777Y-49993223D01*
X56030970Y-50074329D01*
X56050000Y-50170000D01*
X56050000Y-51270000D01*
X56030970Y-51365671D01*
X55976777Y-51446777D01*
X55895671Y-51500970D01*
X55800000Y-51520000D01*
X54700000Y-51520000D01*
X54604329Y-51500970D01*
X54523223Y-51446777D01*
X54469030Y-51365671D01*
X54450000Y-51270000D01*
X54450000Y-50170000D01*
X54469030Y-50074329D01*
X54523223Y-49993223D01*
X54604329Y-49939030D01*
X54700000Y-49920000D01*
X55800000Y-49920000D01*
D12*
X55097619Y-52981879D02*
X55123016Y-52956482D01*
X55123016Y-52956482D02*
X55173809Y-52931085D01*
X55173809Y-52931085D02*
X55300793Y-52931085D01*
X55300793Y-52931085D02*
X55351587Y-52956482D01*
X55351587Y-52956482D02*
X55376984Y-52981879D01*
X55376984Y-52981879D02*
X55402380Y-53032673D01*
X55402380Y-53032673D02*
X55402380Y-53083466D01*
X55402380Y-53083466D02*
X55376984Y-53159657D01*
X55376984Y-53159657D02*
X55072222Y-53464418D01*
X55072222Y-53464418D02*
X55402380Y-53464418D01*
D11*
X56050000Y-53220000D02*
G75*
G02*
X54450000Y-53220000I-800000J0D01*
G01*
X54450000Y-53220000D02*
G75*
G02*
X56050000Y-53220000I800000J0D01*
G01*
%TD*%
D14*
X65115714Y-52437885D02*
X64744285Y-52437885D01*
X64929999Y-52437885D02*
X64929999Y-51787885D01*
X64929999Y-51787885D02*
X64868095Y-51880742D01*
X64868095Y-51880742D02*
X64806190Y-51942647D01*
X64806190Y-51942647D02*
X64744285Y-51973599D01*
D11*
D13*
%TO.C,S2*%
D11*
X65655000Y-51290000D02*
X65750671Y-51309030D01*
X65831777Y-51363223D01*
X65885970Y-51444329D01*
X65905000Y-51540000D01*
X65905000Y-52740000D01*
X65885970Y-52835671D01*
X65831777Y-52916777D01*
X65750671Y-52970970D01*
X65655000Y-52990000D01*
X64205000Y-52990000D01*
X64109329Y-52970970D01*
X64028223Y-52916777D01*
X63974030Y-52835671D01*
X63955000Y-52740000D01*
X63955000Y-51540000D01*
X63974030Y-51444329D01*
X64028223Y-51363223D01*
X64109329Y-51309030D01*
X64205000Y-51290000D01*
X65655000Y-51290000D01*
D14*
X64744285Y-54349790D02*
X64775237Y-54318837D01*
X64775237Y-54318837D02*
X64837142Y-54287885D01*
X64837142Y-54287885D02*
X64991904Y-54287885D01*
X64991904Y-54287885D02*
X65053809Y-54318837D01*
X65053809Y-54318837D02*
X65084761Y-54349790D01*
X65084761Y-54349790D02*
X65115714Y-54411694D01*
X65115714Y-54411694D02*
X65115714Y-54473599D01*
X65115714Y-54473599D02*
X65084761Y-54566456D01*
X65084761Y-54566456D02*
X64713333Y-54937885D01*
X64713333Y-54937885D02*
X65115714Y-54937885D01*
D11*
X65055000Y-53790000D02*
X64805000Y-53790000D01*
X64805000Y-55490000D02*
G75*
G02*
X64805000Y-53790000I0J850000D01*
G01*
X64805000Y-55490000D02*
X65055000Y-55490000D01*
X65055000Y-55490000D02*
G75*
G03*
X65055000Y-53790000I0J850000D01*
G01*
D14*
X64713333Y-56787885D02*
X65115714Y-56787885D01*
X65115714Y-56787885D02*
X64899047Y-57035504D01*
X64899047Y-57035504D02*
X64991904Y-57035504D01*
X64991904Y-57035504D02*
X65053809Y-57066456D01*
X65053809Y-57066456D02*
X65084761Y-57097409D01*
X65084761Y-57097409D02*
X65115714Y-57159313D01*
X65115714Y-57159313D02*
X65115714Y-57314075D01*
X65115714Y-57314075D02*
X65084761Y-57375980D01*
X65084761Y-57375980D02*
X65053809Y-57406933D01*
X65053809Y-57406933D02*
X64991904Y-57437885D01*
X64991904Y-57437885D02*
X64806190Y-57437885D01*
X64806190Y-57437885D02*
X64744285Y-57406933D01*
X64744285Y-57406933D02*
X64713333Y-57375980D01*
D11*
X65055000Y-56290000D02*
X64805000Y-56290000D01*
X64805000Y-57990000D02*
G75*
G02*
X64805000Y-56290000I0J850000D01*
G01*
X64805000Y-57990000D02*
X65055000Y-57990000D01*
X65055000Y-57990000D02*
G75*
G03*
X65055000Y-56290000I0J850000D01*
G01*
D14*
X65053809Y-59504552D02*
X65053809Y-59937885D01*
X64899047Y-59256933D02*
X64744285Y-59721218D01*
X64744285Y-59721218D02*
X65146666Y-59721218D01*
D11*
X65055000Y-58790000D02*
X64805000Y-58790000D01*
X64805000Y-60490000D02*
G75*
G02*
X64805000Y-58790000I0J850000D01*
G01*
X64805000Y-60490000D02*
X65055000Y-60490000D01*
X65055000Y-60490000D02*
G75*
G03*
X65055000Y-58790000I0J850000D01*
G01*
D14*
X65084761Y-61787885D02*
X64775237Y-61787885D01*
X64775237Y-61787885D02*
X64744285Y-62097409D01*
X64744285Y-62097409D02*
X64775237Y-62066456D01*
X64775237Y-62066456D02*
X64837142Y-62035504D01*
X64837142Y-62035504D02*
X64991904Y-62035504D01*
X64991904Y-62035504D02*
X65053809Y-62066456D01*
X65053809Y-62066456D02*
X65084761Y-62097409D01*
X65084761Y-62097409D02*
X65115714Y-62159313D01*
X65115714Y-62159313D02*
X65115714Y-62314075D01*
X65115714Y-62314075D02*
X65084761Y-62375980D01*
X65084761Y-62375980D02*
X65053809Y-62406933D01*
X65053809Y-62406933D02*
X64991904Y-62437885D01*
X64991904Y-62437885D02*
X64837142Y-62437885D01*
X64837142Y-62437885D02*
X64775237Y-62406933D01*
X64775237Y-62406933D02*
X64744285Y-62375980D01*
D11*
X65055000Y-61290000D02*
X64805000Y-61290000D01*
X64805000Y-62990000D02*
G75*
G02*
X64805000Y-61290000I0J850000D01*
G01*
X64805000Y-62990000D02*
X65055000Y-62990000D01*
X65055000Y-62990000D02*
G75*
G03*
X65055000Y-61290000I0J850000D01*
G01*
%TD*%
D12*
X81652380Y-62244418D02*
X81347619Y-62244418D01*
X81500000Y-62244418D02*
X81500000Y-61711085D01*
X81500000Y-61711085D02*
X81449206Y-61787276D01*
X81449206Y-61787276D02*
X81398412Y-61838069D01*
X81398412Y-61838069D02*
X81347619Y-61863466D01*
D11*
%TO.C,R4*%
X82300000Y-62000000D02*
G75*
G02*
X80700000Y-62000000I-800000J0D01*
G01*
X80700000Y-62000000D02*
G75*
G02*
X82300000Y-62000000I800000J0D01*
G01*
D12*
X71187619Y-61761879D02*
X71213016Y-61736482D01*
X71213016Y-61736482D02*
X71263809Y-61711085D01*
X71263809Y-61711085D02*
X71390793Y-61711085D01*
X71390793Y-61711085D02*
X71441587Y-61736482D01*
X71441587Y-61736482D02*
X71466984Y-61761879D01*
X71466984Y-61761879D02*
X71492380Y-61812673D01*
X71492380Y-61812673D02*
X71492380Y-61863466D01*
X71492380Y-61863466D02*
X71466984Y-61939657D01*
X71466984Y-61939657D02*
X71162222Y-62244418D01*
X71162222Y-62244418D02*
X71492380Y-62244418D01*
D11*
X72140000Y-62000000D02*
G75*
G02*
X70540000Y-62000000I-800000J0D01*
G01*
X70540000Y-62000000D02*
G75*
G02*
X72140000Y-62000000I800000J0D01*
G01*
%TD*%
D14*
X136885714Y-52957885D02*
X136514285Y-52957885D01*
X136699999Y-52957885D02*
X136699999Y-52307885D01*
X136699999Y-52307885D02*
X136638095Y-52400742D01*
X136638095Y-52400742D02*
X136576190Y-52462647D01*
X136576190Y-52462647D02*
X136514285Y-52493599D01*
D11*
D13*
%TO.C,S5*%
D11*
X137425000Y-51810000D02*
X137520671Y-51829030D01*
X137601777Y-51883223D01*
X137655970Y-51964329D01*
X137675000Y-52060000D01*
X137675000Y-53260000D01*
X137655970Y-53355671D01*
X137601777Y-53436777D01*
X137520671Y-53490970D01*
X137425000Y-53510000D01*
X135975000Y-53510000D01*
X135879329Y-53490970D01*
X135798223Y-53436777D01*
X135744030Y-53355671D01*
X135725000Y-53260000D01*
X135725000Y-52060000D01*
X135744030Y-51964329D01*
X135798223Y-51883223D01*
X135879329Y-51829030D01*
X135975000Y-51810000D01*
X137425000Y-51810000D01*
D14*
X136514285Y-54869790D02*
X136545237Y-54838837D01*
X136545237Y-54838837D02*
X136607142Y-54807885D01*
X136607142Y-54807885D02*
X136761904Y-54807885D01*
X136761904Y-54807885D02*
X136823809Y-54838837D01*
X136823809Y-54838837D02*
X136854761Y-54869790D01*
X136854761Y-54869790D02*
X136885714Y-54931694D01*
X136885714Y-54931694D02*
X136885714Y-54993599D01*
X136885714Y-54993599D02*
X136854761Y-55086456D01*
X136854761Y-55086456D02*
X136483333Y-55457885D01*
X136483333Y-55457885D02*
X136885714Y-55457885D01*
D11*
X136825000Y-54310000D02*
X136575000Y-54310000D01*
X136575000Y-56010000D02*
G75*
G02*
X136575000Y-54310000I0J850000D01*
G01*
X136575000Y-56010000D02*
X136825000Y-56010000D01*
X136825000Y-56010000D02*
G75*
G03*
X136825000Y-54310000I0J850000D01*
G01*
D14*
X136483333Y-57307885D02*
X136885714Y-57307885D01*
X136885714Y-57307885D02*
X136669047Y-57555504D01*
X136669047Y-57555504D02*
X136761904Y-57555504D01*
X136761904Y-57555504D02*
X136823809Y-57586456D01*
X136823809Y-57586456D02*
X136854761Y-57617409D01*
X136854761Y-57617409D02*
X136885714Y-57679313D01*
X136885714Y-57679313D02*
X136885714Y-57834075D01*
X136885714Y-57834075D02*
X136854761Y-57895980D01*
X136854761Y-57895980D02*
X136823809Y-57926933D01*
X136823809Y-57926933D02*
X136761904Y-57957885D01*
X136761904Y-57957885D02*
X136576190Y-57957885D01*
X136576190Y-57957885D02*
X136514285Y-57926933D01*
X136514285Y-57926933D02*
X136483333Y-57895980D01*
D11*
X136825000Y-56810000D02*
X136575000Y-56810000D01*
X136575000Y-58510000D02*
G75*
G02*
X136575000Y-56810000I0J850000D01*
G01*
X136575000Y-58510000D02*
X136825000Y-58510000D01*
X136825000Y-58510000D02*
G75*
G03*
X136825000Y-56810000I0J850000D01*
G01*
D14*
X136823809Y-60024552D02*
X136823809Y-60457885D01*
X136669047Y-59776933D02*
X136514285Y-60241218D01*
X136514285Y-60241218D02*
X136916666Y-60241218D01*
D11*
X136825000Y-59310000D02*
X136575000Y-59310000D01*
X136575000Y-61010000D02*
G75*
G02*
X136575000Y-59310000I0J850000D01*
G01*
X136575000Y-61010000D02*
X136825000Y-61010000D01*
X136825000Y-61010000D02*
G75*
G03*
X136825000Y-59310000I0J850000D01*
G01*
D14*
X136854761Y-62307885D02*
X136545237Y-62307885D01*
X136545237Y-62307885D02*
X136514285Y-62617409D01*
X136514285Y-62617409D02*
X136545237Y-62586456D01*
X136545237Y-62586456D02*
X136607142Y-62555504D01*
X136607142Y-62555504D02*
X136761904Y-62555504D01*
X136761904Y-62555504D02*
X136823809Y-62586456D01*
X136823809Y-62586456D02*
X136854761Y-62617409D01*
X136854761Y-62617409D02*
X136885714Y-62679313D01*
X136885714Y-62679313D02*
X136885714Y-62834075D01*
X136885714Y-62834075D02*
X136854761Y-62895980D01*
X136854761Y-62895980D02*
X136823809Y-62926933D01*
X136823809Y-62926933D02*
X136761904Y-62957885D01*
X136761904Y-62957885D02*
X136607142Y-62957885D01*
X136607142Y-62957885D02*
X136545237Y-62926933D01*
X136545237Y-62926933D02*
X136514285Y-62895980D01*
D11*
X136825000Y-61810000D02*
X136575000Y-61810000D01*
X136575000Y-63510000D02*
G75*
G02*
X136575000Y-61810000I0J850000D01*
G01*
X136575000Y-63510000D02*
X136825000Y-63510000D01*
X136825000Y-63510000D02*
G75*
G03*
X136825000Y-61810000I0J850000D01*
G01*
%TD*%
D10*
X197347618Y-85897180D02*
X196852381Y-85897180D01*
X197100000Y-85897180D02*
X197100000Y-85030514D01*
X197100000Y-85030514D02*
X197017460Y-85154324D01*
X197017460Y-85154324D02*
X196934920Y-85236863D01*
X196934920Y-85236863D02*
X196852381Y-85278133D01*
D11*
%TO.C,SMPS OUT*%
X195800000Y-84200000D02*
X195800000Y-86800000D01*
X198400000Y-86800000D01*
X198400000Y-84200000D01*
X195800000Y-84200000D01*
D10*
X191772381Y-85113054D02*
X191813651Y-85071784D01*
X191813651Y-85071784D02*
X191896190Y-85030514D01*
X191896190Y-85030514D02*
X192102539Y-85030514D01*
X192102539Y-85030514D02*
X192185079Y-85071784D01*
X192185079Y-85071784D02*
X192226349Y-85113054D01*
X192226349Y-85113054D02*
X192267618Y-85195594D01*
X192267618Y-85195594D02*
X192267618Y-85278133D01*
X192267618Y-85278133D02*
X192226349Y-85401943D01*
X192226349Y-85401943D02*
X191731111Y-85897180D01*
X191731111Y-85897180D02*
X192267618Y-85897180D01*
D11*
X193320000Y-85500000D02*
G75*
G02*
X190720000Y-85500000I-1300000J0D01*
G01*
X190720000Y-85500000D02*
G75*
G02*
X193320000Y-85500000I1300000J0D01*
G01*
%TD*%
%TO.C,H3*%
X46220000Y-115350000D02*
G75*
G02*
X43220000Y-115350000I-1500000J0D01*
G01*
X43220000Y-115350000D02*
G75*
G02*
X46220000Y-115350000I1500000J0D01*
G01*
%TD*%
D12*
X117992380Y-83926797D02*
X117687619Y-83926797D01*
X117840000Y-83926797D02*
X117840000Y-83393464D01*
X117840000Y-83393464D02*
X117789206Y-83469655D01*
X117789206Y-83469655D02*
X117738412Y-83520448D01*
X117738412Y-83520448D02*
X117687619Y-83545845D01*
D11*
%TO.C,R12*%
X118640000Y-83682379D02*
G75*
G02*
X117040000Y-83682379I-800000J0D01*
G01*
X117040000Y-83682379D02*
G75*
G02*
X118640000Y-83682379I800000J0D01*
G01*
D12*
X127847619Y-83444258D02*
X127873016Y-83418861D01*
X127873016Y-83418861D02*
X127923809Y-83393464D01*
X127923809Y-83393464D02*
X128050793Y-83393464D01*
X128050793Y-83393464D02*
X128101587Y-83418861D01*
X128101587Y-83418861D02*
X128126984Y-83444258D01*
X128126984Y-83444258D02*
X128152380Y-83495052D01*
X128152380Y-83495052D02*
X128152380Y-83545845D01*
X128152380Y-83545845D02*
X128126984Y-83622036D01*
X128126984Y-83622036D02*
X127822222Y-83926797D01*
X127822222Y-83926797D02*
X128152380Y-83926797D01*
D11*
X128800000Y-83682379D02*
G75*
G02*
X127200000Y-83682379I-800000J0D01*
G01*
X127200000Y-83682379D02*
G75*
G02*
X128800000Y-83682379I800000J0D01*
G01*
%TD*%
D12*
X81856380Y-52240418D02*
X81551619Y-52240418D01*
X81704000Y-52240418D02*
X81704000Y-51707085D01*
X81704000Y-51707085D02*
X81653206Y-51783276D01*
X81653206Y-51783276D02*
X81602412Y-51834069D01*
X81602412Y-51834069D02*
X81551619Y-51859466D01*
D11*
%TO.C,R3*%
X82504000Y-51996000D02*
G75*
G02*
X80904000Y-51996000I-800000J0D01*
G01*
X80904000Y-51996000D02*
G75*
G02*
X82504000Y-51996000I800000J0D01*
G01*
D12*
X71391619Y-51757879D02*
X71417016Y-51732482D01*
X71417016Y-51732482D02*
X71467809Y-51707085D01*
X71467809Y-51707085D02*
X71594793Y-51707085D01*
X71594793Y-51707085D02*
X71645587Y-51732482D01*
X71645587Y-51732482D02*
X71670984Y-51757879D01*
X71670984Y-51757879D02*
X71696380Y-51808673D01*
X71696380Y-51808673D02*
X71696380Y-51859466D01*
X71696380Y-51859466D02*
X71670984Y-51935657D01*
X71670984Y-51935657D02*
X71366222Y-52240418D01*
X71366222Y-52240418D02*
X71696380Y-52240418D01*
D11*
X72344000Y-51996000D02*
G75*
G02*
X70744000Y-51996000I-800000J0D01*
G01*
X70744000Y-51996000D02*
G75*
G02*
X72344000Y-51996000I800000J0D01*
G01*
%TD*%
D14*
X65095714Y-32587885D02*
X64724285Y-32587885D01*
X64909999Y-32587885D02*
X64909999Y-31937885D01*
X64909999Y-31937885D02*
X64848095Y-32030742D01*
X64848095Y-32030742D02*
X64786190Y-32092647D01*
X64786190Y-32092647D02*
X64724285Y-32123599D01*
D11*
D13*
%TO.C,S1*%
D11*
X65635000Y-31440000D02*
X65730671Y-31459030D01*
X65811777Y-31513223D01*
X65865970Y-31594329D01*
X65885000Y-31690000D01*
X65885000Y-32890000D01*
X65865970Y-32985671D01*
X65811777Y-33066777D01*
X65730671Y-33120970D01*
X65635000Y-33140000D01*
X64185000Y-33140000D01*
X64089329Y-33120970D01*
X64008223Y-33066777D01*
X63954030Y-32985671D01*
X63935000Y-32890000D01*
X63935000Y-31690000D01*
X63954030Y-31594329D01*
X64008223Y-31513223D01*
X64089329Y-31459030D01*
X64185000Y-31440000D01*
X65635000Y-31440000D01*
D14*
X64724285Y-34499790D02*
X64755237Y-34468837D01*
X64755237Y-34468837D02*
X64817142Y-34437885D01*
X64817142Y-34437885D02*
X64971904Y-34437885D01*
X64971904Y-34437885D02*
X65033809Y-34468837D01*
X65033809Y-34468837D02*
X65064761Y-34499790D01*
X65064761Y-34499790D02*
X65095714Y-34561694D01*
X65095714Y-34561694D02*
X65095714Y-34623599D01*
X65095714Y-34623599D02*
X65064761Y-34716456D01*
X65064761Y-34716456D02*
X64693333Y-35087885D01*
X64693333Y-35087885D02*
X65095714Y-35087885D01*
D11*
X65035000Y-33940000D02*
X64785000Y-33940000D01*
X64785000Y-35640000D02*
G75*
G02*
X64785000Y-33940000I0J850000D01*
G01*
X64785000Y-35640000D02*
X65035000Y-35640000D01*
X65035000Y-35640000D02*
G75*
G03*
X65035000Y-33940000I0J850000D01*
G01*
D14*
X64693333Y-36937885D02*
X65095714Y-36937885D01*
X65095714Y-36937885D02*
X64879047Y-37185504D01*
X64879047Y-37185504D02*
X64971904Y-37185504D01*
X64971904Y-37185504D02*
X65033809Y-37216456D01*
X65033809Y-37216456D02*
X65064761Y-37247409D01*
X65064761Y-37247409D02*
X65095714Y-37309313D01*
X65095714Y-37309313D02*
X65095714Y-37464075D01*
X65095714Y-37464075D02*
X65064761Y-37525980D01*
X65064761Y-37525980D02*
X65033809Y-37556933D01*
X65033809Y-37556933D02*
X64971904Y-37587885D01*
X64971904Y-37587885D02*
X64786190Y-37587885D01*
X64786190Y-37587885D02*
X64724285Y-37556933D01*
X64724285Y-37556933D02*
X64693333Y-37525980D01*
D11*
X65035000Y-36440000D02*
X64785000Y-36440000D01*
X64785000Y-38140000D02*
G75*
G02*
X64785000Y-36440000I0J850000D01*
G01*
X64785000Y-38140000D02*
X65035000Y-38140000D01*
X65035000Y-38140000D02*
G75*
G03*
X65035000Y-36440000I0J850000D01*
G01*
D14*
X65033809Y-39654552D02*
X65033809Y-40087885D01*
X64879047Y-39406933D02*
X64724285Y-39871218D01*
X64724285Y-39871218D02*
X65126666Y-39871218D01*
D11*
X65035000Y-38940000D02*
X64785000Y-38940000D01*
X64785000Y-40640000D02*
G75*
G02*
X64785000Y-38940000I0J850000D01*
G01*
X64785000Y-40640000D02*
X65035000Y-40640000D01*
X65035000Y-40640000D02*
G75*
G03*
X65035000Y-38940000I0J850000D01*
G01*
D14*
X65064761Y-41937885D02*
X64755237Y-41937885D01*
X64755237Y-41937885D02*
X64724285Y-42247409D01*
X64724285Y-42247409D02*
X64755237Y-42216456D01*
X64755237Y-42216456D02*
X64817142Y-42185504D01*
X64817142Y-42185504D02*
X64971904Y-42185504D01*
X64971904Y-42185504D02*
X65033809Y-42216456D01*
X65033809Y-42216456D02*
X65064761Y-42247409D01*
X65064761Y-42247409D02*
X65095714Y-42309313D01*
X65095714Y-42309313D02*
X65095714Y-42464075D01*
X65095714Y-42464075D02*
X65064761Y-42525980D01*
X65064761Y-42525980D02*
X65033809Y-42556933D01*
X65033809Y-42556933D02*
X64971904Y-42587885D01*
X64971904Y-42587885D02*
X64817142Y-42587885D01*
X64817142Y-42587885D02*
X64755237Y-42556933D01*
X64755237Y-42556933D02*
X64724285Y-42525980D01*
D11*
X65035000Y-41440000D02*
X64785000Y-41440000D01*
X64785000Y-43140000D02*
G75*
G02*
X64785000Y-41440000I0J850000D01*
G01*
X64785000Y-43140000D02*
X65035000Y-43140000D01*
X65035000Y-43140000D02*
G75*
G03*
X65035000Y-41440000I0J850000D01*
G01*
%TD*%
D16*
X107161904Y-100349695D02*
X106838095Y-100349695D01*
X106999999Y-100349695D02*
X106999999Y-99783029D01*
X106999999Y-99783029D02*
X106946031Y-99863981D01*
X106946031Y-99863981D02*
X106892063Y-99917949D01*
X106892063Y-99917949D02*
X106838095Y-99944933D01*
D11*
%TO.C,J3*%
X106150000Y-99240000D02*
X106150000Y-100940000D01*
X107850000Y-100940000D01*
X107850000Y-99240000D01*
X106150000Y-99240000D01*
D16*
X106838095Y-102376997D02*
X106865079Y-102350013D01*
X106865079Y-102350013D02*
X106919047Y-102323029D01*
X106919047Y-102323029D02*
X107053968Y-102323029D01*
X107053968Y-102323029D02*
X107107936Y-102350013D01*
X107107936Y-102350013D02*
X107134920Y-102376997D01*
X107134920Y-102376997D02*
X107161904Y-102430965D01*
X107161904Y-102430965D02*
X107161904Y-102484933D01*
X107161904Y-102484933D02*
X107134920Y-102565885D01*
X107134920Y-102565885D02*
X106811111Y-102889695D01*
X106811111Y-102889695D02*
X107161904Y-102889695D01*
D11*
X107850000Y-102630000D02*
G75*
G02*
X106150000Y-102630000I-850000J0D01*
G01*
X106150000Y-102630000D02*
G75*
G02*
X107850000Y-102630000I850000J0D01*
G01*
D16*
X106811111Y-104863029D02*
X107161904Y-104863029D01*
X107161904Y-104863029D02*
X106973015Y-105078901D01*
X106973015Y-105078901D02*
X107053968Y-105078901D01*
X107053968Y-105078901D02*
X107107936Y-105105885D01*
X107107936Y-105105885D02*
X107134920Y-105132870D01*
X107134920Y-105132870D02*
X107161904Y-105186838D01*
X107161904Y-105186838D02*
X107161904Y-105321758D01*
X107161904Y-105321758D02*
X107134920Y-105375726D01*
X107134920Y-105375726D02*
X107107936Y-105402711D01*
X107107936Y-105402711D02*
X107053968Y-105429695D01*
X107053968Y-105429695D02*
X106892063Y-105429695D01*
X106892063Y-105429695D02*
X106838095Y-105402711D01*
X106838095Y-105402711D02*
X106811111Y-105375726D01*
D11*
X107850000Y-105170000D02*
G75*
G02*
X106150000Y-105170000I-850000J0D01*
G01*
X106150000Y-105170000D02*
G75*
G02*
X107850000Y-105170000I850000J0D01*
G01*
D16*
X107107936Y-107591917D02*
X107107936Y-107969695D01*
X106973015Y-107376045D02*
X106838095Y-107780806D01*
X106838095Y-107780806D02*
X107188888Y-107780806D01*
D11*
X107850000Y-107710000D02*
G75*
G02*
X106150000Y-107710000I-850000J0D01*
G01*
X106150000Y-107710000D02*
G75*
G02*
X107850000Y-107710000I850000J0D01*
G01*
D16*
X107134920Y-109943029D02*
X106865079Y-109943029D01*
X106865079Y-109943029D02*
X106838095Y-110212870D01*
X106838095Y-110212870D02*
X106865079Y-110185885D01*
X106865079Y-110185885D02*
X106919047Y-110158901D01*
X106919047Y-110158901D02*
X107053968Y-110158901D01*
X107053968Y-110158901D02*
X107107936Y-110185885D01*
X107107936Y-110185885D02*
X107134920Y-110212870D01*
X107134920Y-110212870D02*
X107161904Y-110266838D01*
X107161904Y-110266838D02*
X107161904Y-110401758D01*
X107161904Y-110401758D02*
X107134920Y-110455726D01*
X107134920Y-110455726D02*
X107107936Y-110482711D01*
X107107936Y-110482711D02*
X107053968Y-110509695D01*
X107053968Y-110509695D02*
X106919047Y-110509695D01*
X106919047Y-110509695D02*
X106865079Y-110482711D01*
X106865079Y-110482711D02*
X106838095Y-110455726D01*
D11*
X107850000Y-110250000D02*
G75*
G02*
X106150000Y-110250000I-850000J0D01*
G01*
X106150000Y-110250000D02*
G75*
G02*
X107850000Y-110250000I850000J0D01*
G01*
D16*
X107107936Y-112483029D02*
X106999999Y-112483029D01*
X106999999Y-112483029D02*
X106946031Y-112510013D01*
X106946031Y-112510013D02*
X106919047Y-112536997D01*
X106919047Y-112536997D02*
X106865079Y-112617949D01*
X106865079Y-112617949D02*
X106838095Y-112725885D01*
X106838095Y-112725885D02*
X106838095Y-112941758D01*
X106838095Y-112941758D02*
X106865079Y-112995726D01*
X106865079Y-112995726D02*
X106892063Y-113022711D01*
X106892063Y-113022711D02*
X106946031Y-113049695D01*
X106946031Y-113049695D02*
X107053968Y-113049695D01*
X107053968Y-113049695D02*
X107107936Y-113022711D01*
X107107936Y-113022711D02*
X107134920Y-112995726D01*
X107134920Y-112995726D02*
X107161904Y-112941758D01*
X107161904Y-112941758D02*
X107161904Y-112806838D01*
X107161904Y-112806838D02*
X107134920Y-112752870D01*
X107134920Y-112752870D02*
X107107936Y-112725885D01*
X107107936Y-112725885D02*
X107053968Y-112698901D01*
X107053968Y-112698901D02*
X106946031Y-112698901D01*
X106946031Y-112698901D02*
X106892063Y-112725885D01*
X106892063Y-112725885D02*
X106865079Y-112752870D01*
X106865079Y-112752870D02*
X106838095Y-112806838D01*
D11*
X107850000Y-112790000D02*
G75*
G02*
X106150000Y-112790000I-850000J0D01*
G01*
X106150000Y-112790000D02*
G75*
G02*
X107850000Y-112790000I850000J0D01*
G01*
%TD*%
D10*
X208247618Y-97817180D02*
X207752381Y-97817180D01*
X208000000Y-97817180D02*
X208000000Y-96950514D01*
X208000000Y-96950514D02*
X207917460Y-97074324D01*
X207917460Y-97074324D02*
X207834920Y-97156863D01*
X207834920Y-97156863D02*
X207752381Y-97198133D01*
D11*
%TO.C,BC IN*%
X206700000Y-96120000D02*
X206700000Y-98720000D01*
X209300000Y-98720000D01*
X209300000Y-96120000D01*
X206700000Y-96120000D01*
D10*
X207752381Y-102113054D02*
X207793651Y-102071784D01*
X207793651Y-102071784D02*
X207876190Y-102030514D01*
X207876190Y-102030514D02*
X208082539Y-102030514D01*
X208082539Y-102030514D02*
X208165079Y-102071784D01*
X208165079Y-102071784D02*
X208206349Y-102113054D01*
X208206349Y-102113054D02*
X208247618Y-102195594D01*
X208247618Y-102195594D02*
X208247618Y-102278133D01*
X208247618Y-102278133D02*
X208206349Y-102401943D01*
X208206349Y-102401943D02*
X207711111Y-102897180D01*
X207711111Y-102897180D02*
X208247618Y-102897180D01*
D11*
X209300000Y-102500000D02*
G75*
G02*
X206700000Y-102500000I-1300000J0D01*
G01*
X206700000Y-102500000D02*
G75*
G02*
X209300000Y-102500000I1300000J0D01*
G01*
%TD*%
D12*
X145652380Y-72744418D02*
X145347619Y-72744418D01*
X145500000Y-72744418D02*
X145500000Y-72211085D01*
X145500000Y-72211085D02*
X145449206Y-72287276D01*
X145449206Y-72287276D02*
X145398412Y-72338069D01*
X145398412Y-72338069D02*
X145347619Y-72363466D01*
D11*
D13*
%TO.C,C11*%
D11*
X146050000Y-71700000D02*
X146145671Y-71719030D01*
X146226777Y-71773223D01*
X146280970Y-71854329D01*
X146300000Y-71950000D01*
X146300000Y-73050000D01*
X146280970Y-73145671D01*
X146226777Y-73226777D01*
X146145671Y-73280970D01*
X146050000Y-73300000D01*
X144950000Y-73300000D01*
X144854329Y-73280970D01*
X144773223Y-73226777D01*
X144719030Y-73145671D01*
X144700000Y-73050000D01*
X144700000Y-71950000D01*
X144719030Y-71854329D01*
X144773223Y-71773223D01*
X144854329Y-71719030D01*
X144950000Y-71700000D01*
X146050000Y-71700000D01*
D12*
X145347619Y-74761879D02*
X145373016Y-74736482D01*
X145373016Y-74736482D02*
X145423809Y-74711085D01*
X145423809Y-74711085D02*
X145550793Y-74711085D01*
X145550793Y-74711085D02*
X145601587Y-74736482D01*
X145601587Y-74736482D02*
X145626984Y-74761879D01*
X145626984Y-74761879D02*
X145652380Y-74812673D01*
X145652380Y-74812673D02*
X145652380Y-74863466D01*
X145652380Y-74863466D02*
X145626984Y-74939657D01*
X145626984Y-74939657D02*
X145322222Y-75244418D01*
X145322222Y-75244418D02*
X145652380Y-75244418D01*
D11*
X146300000Y-75000000D02*
G75*
G02*
X144700000Y-75000000I-800000J0D01*
G01*
X144700000Y-75000000D02*
G75*
G02*
X146300000Y-75000000I800000J0D01*
G01*
%TD*%
D17*
X177238095Y-31181904D02*
X176761905Y-31181904D01*
X177000000Y-31181904D02*
X177000000Y-30348571D01*
X177000000Y-30348571D02*
X176920635Y-30467619D01*
X176920635Y-30467619D02*
X176841270Y-30546984D01*
X176841270Y-30546984D02*
X176761905Y-30586666D01*
D11*
%TO.C,FUSE*%
X178250000Y-30800000D02*
G75*
G02*
X175750000Y-30800000I-1250000J0D01*
G01*
X175750000Y-30800000D02*
G75*
G02*
X178250000Y-30800000I1250000J0D01*
G01*
D17*
X176761905Y-51927936D02*
X176801587Y-51888254D01*
X176801587Y-51888254D02*
X176880952Y-51848571D01*
X176880952Y-51848571D02*
X177079365Y-51848571D01*
X177079365Y-51848571D02*
X177158730Y-51888254D01*
X177158730Y-51888254D02*
X177198412Y-51927936D01*
X177198412Y-51927936D02*
X177238095Y-52007301D01*
X177238095Y-52007301D02*
X177238095Y-52086666D01*
X177238095Y-52086666D02*
X177198412Y-52205714D01*
X177198412Y-52205714D02*
X176722222Y-52681904D01*
X176722222Y-52681904D02*
X177238095Y-52681904D01*
D11*
X178250000Y-52300000D02*
G75*
G02*
X175750000Y-52300000I-1250000J0D01*
G01*
X175750000Y-52300000D02*
G75*
G02*
X178250000Y-52300000I1250000J0D01*
G01*
%TD*%
D14*
X65535714Y-73517885D02*
X65164285Y-73517885D01*
X65349999Y-73517885D02*
X65349999Y-72867885D01*
X65349999Y-72867885D02*
X65288095Y-72960742D01*
X65288095Y-72960742D02*
X65226190Y-73022647D01*
X65226190Y-73022647D02*
X65164285Y-73053599D01*
D11*
D13*
%TO.C,S3*%
D11*
X66075000Y-72370000D02*
X66170671Y-72389030D01*
X66251777Y-72443223D01*
X66305970Y-72524329D01*
X66325000Y-72620000D01*
X66325000Y-73820000D01*
X66305970Y-73915671D01*
X66251777Y-73996777D01*
X66170671Y-74050970D01*
X66075000Y-74070000D01*
X64625000Y-74070000D01*
X64529329Y-74050970D01*
X64448223Y-73996777D01*
X64394030Y-73915671D01*
X64375000Y-73820000D01*
X64375000Y-72620000D01*
X64394030Y-72524329D01*
X64448223Y-72443223D01*
X64529329Y-72389030D01*
X64625000Y-72370000D01*
X66075000Y-72370000D01*
D14*
X65164285Y-75429790D02*
X65195237Y-75398837D01*
X65195237Y-75398837D02*
X65257142Y-75367885D01*
X65257142Y-75367885D02*
X65411904Y-75367885D01*
X65411904Y-75367885D02*
X65473809Y-75398837D01*
X65473809Y-75398837D02*
X65504761Y-75429790D01*
X65504761Y-75429790D02*
X65535714Y-75491694D01*
X65535714Y-75491694D02*
X65535714Y-75553599D01*
X65535714Y-75553599D02*
X65504761Y-75646456D01*
X65504761Y-75646456D02*
X65133333Y-76017885D01*
X65133333Y-76017885D02*
X65535714Y-76017885D01*
D11*
X65475000Y-74870000D02*
X65225000Y-74870000D01*
X65225000Y-76570000D02*
G75*
G02*
X65225000Y-74870000I0J850000D01*
G01*
X65225000Y-76570000D02*
X65475000Y-76570000D01*
X65475000Y-76570000D02*
G75*
G03*
X65475000Y-74870000I0J850000D01*
G01*
D14*
X65133333Y-77867885D02*
X65535714Y-77867885D01*
X65535714Y-77867885D02*
X65319047Y-78115504D01*
X65319047Y-78115504D02*
X65411904Y-78115504D01*
X65411904Y-78115504D02*
X65473809Y-78146456D01*
X65473809Y-78146456D02*
X65504761Y-78177409D01*
X65504761Y-78177409D02*
X65535714Y-78239313D01*
X65535714Y-78239313D02*
X65535714Y-78394075D01*
X65535714Y-78394075D02*
X65504761Y-78455980D01*
X65504761Y-78455980D02*
X65473809Y-78486933D01*
X65473809Y-78486933D02*
X65411904Y-78517885D01*
X65411904Y-78517885D02*
X65226190Y-78517885D01*
X65226190Y-78517885D02*
X65164285Y-78486933D01*
X65164285Y-78486933D02*
X65133333Y-78455980D01*
D11*
X65475000Y-77370000D02*
X65225000Y-77370000D01*
X65225000Y-79070000D02*
G75*
G02*
X65225000Y-77370000I0J850000D01*
G01*
X65225000Y-79070000D02*
X65475000Y-79070000D01*
X65475000Y-79070000D02*
G75*
G03*
X65475000Y-77370000I0J850000D01*
G01*
D14*
X65473809Y-80584552D02*
X65473809Y-81017885D01*
X65319047Y-80336933D02*
X65164285Y-80801218D01*
X65164285Y-80801218D02*
X65566666Y-80801218D01*
D11*
X65475000Y-79870000D02*
X65225000Y-79870000D01*
X65225000Y-81570000D02*
G75*
G02*
X65225000Y-79870000I0J850000D01*
G01*
X65225000Y-81570000D02*
X65475000Y-81570000D01*
X65475000Y-81570000D02*
G75*
G03*
X65475000Y-79870000I0J850000D01*
G01*
D14*
X65504761Y-82867885D02*
X65195237Y-82867885D01*
X65195237Y-82867885D02*
X65164285Y-83177409D01*
X65164285Y-83177409D02*
X65195237Y-83146456D01*
X65195237Y-83146456D02*
X65257142Y-83115504D01*
X65257142Y-83115504D02*
X65411904Y-83115504D01*
X65411904Y-83115504D02*
X65473809Y-83146456D01*
X65473809Y-83146456D02*
X65504761Y-83177409D01*
X65504761Y-83177409D02*
X65535714Y-83239313D01*
X65535714Y-83239313D02*
X65535714Y-83394075D01*
X65535714Y-83394075D02*
X65504761Y-83455980D01*
X65504761Y-83455980D02*
X65473809Y-83486933D01*
X65473809Y-83486933D02*
X65411904Y-83517885D01*
X65411904Y-83517885D02*
X65257142Y-83517885D01*
X65257142Y-83517885D02*
X65195237Y-83486933D01*
X65195237Y-83486933D02*
X65164285Y-83455980D01*
D11*
X65475000Y-82370000D02*
X65225000Y-82370000D01*
X65225000Y-84070000D02*
G75*
G02*
X65225000Y-82370000I0J850000D01*
G01*
X65225000Y-84070000D02*
X65475000Y-84070000D01*
X65475000Y-84070000D02*
G75*
G03*
X65475000Y-82370000I0J850000D01*
G01*
%TD*%
D10*
X70307618Y-109027180D02*
X69812381Y-109027180D01*
X70060000Y-109027180D02*
X70060000Y-108160514D01*
X70060000Y-108160514D02*
X69977460Y-108284324D01*
X69977460Y-108284324D02*
X69894920Y-108366863D01*
X69894920Y-108366863D02*
X69812381Y-108408133D01*
D11*
%TO.C,Push Button*%
X68760000Y-107330000D02*
X68760000Y-109930000D01*
X71360000Y-109930000D01*
X71360000Y-107330000D01*
X68760000Y-107330000D01*
D10*
X74892381Y-108243054D02*
X74933651Y-108201784D01*
X74933651Y-108201784D02*
X75016190Y-108160514D01*
X75016190Y-108160514D02*
X75222539Y-108160514D01*
X75222539Y-108160514D02*
X75305079Y-108201784D01*
X75305079Y-108201784D02*
X75346349Y-108243054D01*
X75346349Y-108243054D02*
X75387618Y-108325594D01*
X75387618Y-108325594D02*
X75387618Y-108408133D01*
X75387618Y-108408133D02*
X75346349Y-108531943D01*
X75346349Y-108531943D02*
X74851111Y-109027180D01*
X74851111Y-109027180D02*
X75387618Y-109027180D01*
D11*
X76440000Y-108630000D02*
G75*
G02*
X73840000Y-108630000I-1300000J0D01*
G01*
X73840000Y-108630000D02*
G75*
G02*
X76440000Y-108630000I1300000J0D01*
G01*
%TD*%
D18*
X168710000Y-78640000D02*
G75*
G02*
X167710000Y-79640000I-1000000J0D01*
G01*
X168710000Y-30140000D02*
X168710000Y-78640000D01*
X167710000Y-79640000D02*
X167460000Y-79640000D01*
X167710000Y-29140000D02*
G75*
G02*
X168710000Y-30140000I0J-1000000D01*
G01*
X167460000Y-79640000D02*
G75*
G02*
X166460000Y-78640000I0J1000000D01*
G01*
X167460000Y-29140000D02*
X167710000Y-29140000D01*
X166460000Y-78640000D02*
X166460000Y-30140000D01*
X166460000Y-30140000D02*
G75*
G02*
X167460000Y-29140000I1000000J0D01*
G01*
D19*
X40100000Y-25160000D02*
X215100000Y-25160000D01*
X215100000Y-120160000D01*
X40100000Y-120160000D01*
X40100000Y-25160000D01*
M02*
