%TF.GenerationSoftware,KiCad,Pcbnew,9.0.9-9.0.9~ubuntu22.04.1*%
%TF.CreationDate,2026-06-19T15:14:13+07:00*%
%TF.ProjectId,Totebox Alert,546f7465-626f-4782-9041-6c6572742e6b,rev?*%
%TF.SameCoordinates,Original*%
%TF.FileFunction,Legend,Bot*%
%TF.FilePolarity,Positive*%
%FSLAX46Y46*%
G04 Gerber Fmt 4.6, Leading zero omitted, Abs format (unit mm)*
G04 Created by KiCad (PCBNEW 9.0.9-9.0.9~ubuntu22.04.1) date 2026-06-19 15:14:13*
%MOMM*%
%LPD*%
G01*
G04 APERTURE LIST*
%ADD10C,0.100000*%
%ADD11C,0.000000*%
%TA.AperFunction,Profile*%
%ADD12C,0.200000*%
%TD*%
%TA.AperFunction,Profile*%
%ADD13C,0.050000*%
%TD*%
G04 APERTURE END LIST*
D10*
X213407180Y-38635312D02*
X213454800Y-38587693D01*
X213454800Y-38587693D02*
X213502419Y-38444836D01*
X213502419Y-38444836D02*
X213502419Y-38349598D01*
X213502419Y-38349598D02*
X213454800Y-38206741D01*
X213454800Y-38206741D02*
X213359561Y-38111503D01*
X213359561Y-38111503D02*
X213264323Y-38063884D01*
X213264323Y-38063884D02*
X213073847Y-38016265D01*
X213073847Y-38016265D02*
X212930990Y-38016265D01*
X212930990Y-38016265D02*
X212740514Y-38063884D01*
X212740514Y-38063884D02*
X212645276Y-38111503D01*
X212645276Y-38111503D02*
X212550038Y-38206741D01*
X212550038Y-38206741D02*
X212502419Y-38349598D01*
X212502419Y-38349598D02*
X212502419Y-38444836D01*
X212502419Y-38444836D02*
X212550038Y-38587693D01*
X212550038Y-38587693D02*
X212597657Y-38635312D01*
X213502419Y-39206741D02*
X213454800Y-39111503D01*
X213454800Y-39111503D02*
X213407180Y-39063884D01*
X213407180Y-39063884D02*
X213311942Y-39016265D01*
X213311942Y-39016265D02*
X213026228Y-39016265D01*
X213026228Y-39016265D02*
X212930990Y-39063884D01*
X212930990Y-39063884D02*
X212883371Y-39111503D01*
X212883371Y-39111503D02*
X212835752Y-39206741D01*
X212835752Y-39206741D02*
X212835752Y-39349598D01*
X212835752Y-39349598D02*
X212883371Y-39444836D01*
X212883371Y-39444836D02*
X212930990Y-39492455D01*
X212930990Y-39492455D02*
X213026228Y-39540074D01*
X213026228Y-39540074D02*
X213311942Y-39540074D01*
X213311942Y-39540074D02*
X213407180Y-39492455D01*
X213407180Y-39492455D02*
X213454800Y-39444836D01*
X213454800Y-39444836D02*
X213502419Y-39349598D01*
X213502419Y-39349598D02*
X213502419Y-39206741D01*
X213502419Y-40111503D02*
X213454800Y-40016265D01*
X213454800Y-40016265D02*
X213359561Y-39968646D01*
X213359561Y-39968646D02*
X212502419Y-39968646D01*
X213502419Y-40635313D02*
X213454800Y-40540075D01*
X213454800Y-40540075D02*
X213359561Y-40492456D01*
X213359561Y-40492456D02*
X212502419Y-40492456D01*
X213502419Y-41444837D02*
X212978609Y-41444837D01*
X212978609Y-41444837D02*
X212883371Y-41397218D01*
X212883371Y-41397218D02*
X212835752Y-41301980D01*
X212835752Y-41301980D02*
X212835752Y-41111504D01*
X212835752Y-41111504D02*
X212883371Y-41016266D01*
X213454800Y-41444837D02*
X213502419Y-41349599D01*
X213502419Y-41349599D02*
X213502419Y-41111504D01*
X213502419Y-41111504D02*
X213454800Y-41016266D01*
X213454800Y-41016266D02*
X213359561Y-40968647D01*
X213359561Y-40968647D02*
X213264323Y-40968647D01*
X213264323Y-40968647D02*
X213169085Y-41016266D01*
X213169085Y-41016266D02*
X213121466Y-41111504D01*
X213121466Y-41111504D02*
X213121466Y-41349599D01*
X213121466Y-41349599D02*
X213073847Y-41444837D01*
X213502419Y-41921028D02*
X212502419Y-41921028D01*
X212883371Y-41921028D02*
X212835752Y-42016266D01*
X212835752Y-42016266D02*
X212835752Y-42206742D01*
X212835752Y-42206742D02*
X212883371Y-42301980D01*
X212883371Y-42301980D02*
X212930990Y-42349599D01*
X212930990Y-42349599D02*
X213026228Y-42397218D01*
X213026228Y-42397218D02*
X213311942Y-42397218D01*
X213311942Y-42397218D02*
X213407180Y-42349599D01*
X213407180Y-42349599D02*
X213454800Y-42301980D01*
X213454800Y-42301980D02*
X213502419Y-42206742D01*
X213502419Y-42206742D02*
X213502419Y-42016266D01*
X213502419Y-42016266D02*
X213454800Y-41921028D01*
X213502419Y-42968647D02*
X213454800Y-42873409D01*
X213454800Y-42873409D02*
X213407180Y-42825790D01*
X213407180Y-42825790D02*
X213311942Y-42778171D01*
X213311942Y-42778171D02*
X213026228Y-42778171D01*
X213026228Y-42778171D02*
X212930990Y-42825790D01*
X212930990Y-42825790D02*
X212883371Y-42873409D01*
X212883371Y-42873409D02*
X212835752Y-42968647D01*
X212835752Y-42968647D02*
X212835752Y-43111504D01*
X212835752Y-43111504D02*
X212883371Y-43206742D01*
X212883371Y-43206742D02*
X212930990Y-43254361D01*
X212930990Y-43254361D02*
X213026228Y-43301980D01*
X213026228Y-43301980D02*
X213311942Y-43301980D01*
X213311942Y-43301980D02*
X213407180Y-43254361D01*
X213407180Y-43254361D02*
X213454800Y-43206742D01*
X213454800Y-43206742D02*
X213502419Y-43111504D01*
X213502419Y-43111504D02*
X213502419Y-42968647D01*
X213502419Y-43730552D02*
X212835752Y-43730552D01*
X213026228Y-43730552D02*
X212930990Y-43778171D01*
X212930990Y-43778171D02*
X212883371Y-43825790D01*
X212883371Y-43825790D02*
X212835752Y-43921028D01*
X212835752Y-43921028D02*
X212835752Y-44016266D01*
X213502419Y-44778171D02*
X212978609Y-44778171D01*
X212978609Y-44778171D02*
X212883371Y-44730552D01*
X212883371Y-44730552D02*
X212835752Y-44635314D01*
X212835752Y-44635314D02*
X212835752Y-44444838D01*
X212835752Y-44444838D02*
X212883371Y-44349600D01*
X213454800Y-44778171D02*
X213502419Y-44682933D01*
X213502419Y-44682933D02*
X213502419Y-44444838D01*
X213502419Y-44444838D02*
X213454800Y-44349600D01*
X213454800Y-44349600D02*
X213359561Y-44301981D01*
X213359561Y-44301981D02*
X213264323Y-44301981D01*
X213264323Y-44301981D02*
X213169085Y-44349600D01*
X213169085Y-44349600D02*
X213121466Y-44444838D01*
X213121466Y-44444838D02*
X213121466Y-44682933D01*
X213121466Y-44682933D02*
X213073847Y-44778171D01*
X212835752Y-45111505D02*
X212835752Y-45492457D01*
X212502419Y-45254362D02*
X213359561Y-45254362D01*
X213359561Y-45254362D02*
X213454800Y-45301981D01*
X213454800Y-45301981D02*
X213502419Y-45397219D01*
X213502419Y-45397219D02*
X213502419Y-45492457D01*
X213502419Y-45968648D02*
X213454800Y-45873410D01*
X213454800Y-45873410D02*
X213407180Y-45825791D01*
X213407180Y-45825791D02*
X213311942Y-45778172D01*
X213311942Y-45778172D02*
X213026228Y-45778172D01*
X213026228Y-45778172D02*
X212930990Y-45825791D01*
X212930990Y-45825791D02*
X212883371Y-45873410D01*
X212883371Y-45873410D02*
X212835752Y-45968648D01*
X212835752Y-45968648D02*
X212835752Y-46111505D01*
X212835752Y-46111505D02*
X212883371Y-46206743D01*
X212883371Y-46206743D02*
X212930990Y-46254362D01*
X212930990Y-46254362D02*
X213026228Y-46301981D01*
X213026228Y-46301981D02*
X213311942Y-46301981D01*
X213311942Y-46301981D02*
X213407180Y-46254362D01*
X213407180Y-46254362D02*
X213454800Y-46206743D01*
X213454800Y-46206743D02*
X213502419Y-46111505D01*
X213502419Y-46111505D02*
X213502419Y-45968648D01*
X213502419Y-46730553D02*
X212835752Y-46730553D01*
X213026228Y-46730553D02*
X212930990Y-46778172D01*
X212930990Y-46778172D02*
X212883371Y-46825791D01*
X212883371Y-46825791D02*
X212835752Y-46921029D01*
X212835752Y-46921029D02*
X212835752Y-47016267D01*
X213454800Y-47301982D02*
X213502419Y-47397220D01*
X213502419Y-47397220D02*
X213502419Y-47587696D01*
X213502419Y-47587696D02*
X213454800Y-47682934D01*
X213454800Y-47682934D02*
X213359561Y-47730553D01*
X213359561Y-47730553D02*
X213311942Y-47730553D01*
X213311942Y-47730553D02*
X213216704Y-47682934D01*
X213216704Y-47682934D02*
X213169085Y-47587696D01*
X213169085Y-47587696D02*
X213169085Y-47444839D01*
X213169085Y-47444839D02*
X213121466Y-47349601D01*
X213121466Y-47349601D02*
X213026228Y-47301982D01*
X213026228Y-47301982D02*
X212978609Y-47301982D01*
X212978609Y-47301982D02*
X212883371Y-47349601D01*
X212883371Y-47349601D02*
X212835752Y-47444839D01*
X212835752Y-47444839D02*
X212835752Y-47587696D01*
X212835752Y-47587696D02*
X212883371Y-47682934D01*
X213407180Y-48159125D02*
X213454800Y-48206744D01*
X213454800Y-48206744D02*
X213502419Y-48159125D01*
X213502419Y-48159125D02*
X213454800Y-48111506D01*
X213454800Y-48111506D02*
X213407180Y-48159125D01*
X213407180Y-48159125D02*
X213502419Y-48159125D01*
X212883371Y-48159125D02*
X212930990Y-48206744D01*
X212930990Y-48206744D02*
X212978609Y-48159125D01*
X212978609Y-48159125D02*
X212930990Y-48111506D01*
X212930990Y-48111506D02*
X212883371Y-48159125D01*
X212883371Y-48159125D02*
X212978609Y-48159125D01*
X213502419Y-49397220D02*
X212502419Y-49397220D01*
X212502419Y-49397220D02*
X212502419Y-49635315D01*
X212502419Y-49635315D02*
X212550038Y-49778172D01*
X212550038Y-49778172D02*
X212645276Y-49873410D01*
X212645276Y-49873410D02*
X212740514Y-49921029D01*
X212740514Y-49921029D02*
X212930990Y-49968648D01*
X212930990Y-49968648D02*
X213073847Y-49968648D01*
X213073847Y-49968648D02*
X213264323Y-49921029D01*
X213264323Y-49921029D02*
X213359561Y-49873410D01*
X213359561Y-49873410D02*
X213454800Y-49778172D01*
X213454800Y-49778172D02*
X213502419Y-49635315D01*
X213502419Y-49635315D02*
X213502419Y-49397220D01*
X212835752Y-50301982D02*
X213502419Y-50540077D01*
X212835752Y-50778172D02*
X213502419Y-50540077D01*
X213502419Y-50540077D02*
X213740514Y-50444839D01*
X213740514Y-50444839D02*
X213788133Y-50397220D01*
X213788133Y-50397220D02*
X213835752Y-50301982D01*
X213502419Y-51301982D02*
X213454800Y-51206744D01*
X213454800Y-51206744D02*
X213359561Y-51159125D01*
X213359561Y-51159125D02*
X212502419Y-51159125D01*
X213502419Y-52111506D02*
X212978609Y-52111506D01*
X212978609Y-52111506D02*
X212883371Y-52063887D01*
X212883371Y-52063887D02*
X212835752Y-51968649D01*
X212835752Y-51968649D02*
X212835752Y-51778173D01*
X212835752Y-51778173D02*
X212883371Y-51682935D01*
X213454800Y-52111506D02*
X213502419Y-52016268D01*
X213502419Y-52016268D02*
X213502419Y-51778173D01*
X213502419Y-51778173D02*
X213454800Y-51682935D01*
X213454800Y-51682935D02*
X213359561Y-51635316D01*
X213359561Y-51635316D02*
X213264323Y-51635316D01*
X213264323Y-51635316D02*
X213169085Y-51682935D01*
X213169085Y-51682935D02*
X213121466Y-51778173D01*
X213121466Y-51778173D02*
X213121466Y-52016268D01*
X213121466Y-52016268D02*
X213073847Y-52111506D01*
X212835752Y-52587697D02*
X213502419Y-52587697D01*
X212930990Y-52587697D02*
X212883371Y-52635316D01*
X212883371Y-52635316D02*
X212835752Y-52730554D01*
X212835752Y-52730554D02*
X212835752Y-52873411D01*
X212835752Y-52873411D02*
X212883371Y-52968649D01*
X212883371Y-52968649D02*
X212978609Y-53016268D01*
X212978609Y-53016268D02*
X213502419Y-53016268D01*
X213502419Y-54730554D02*
X213502419Y-54254364D01*
X213502419Y-54254364D02*
X212502419Y-54254364D01*
X213502419Y-55206745D02*
X213454800Y-55111507D01*
X213454800Y-55111507D02*
X213407180Y-55063888D01*
X213407180Y-55063888D02*
X213311942Y-55016269D01*
X213311942Y-55016269D02*
X213026228Y-55016269D01*
X213026228Y-55016269D02*
X212930990Y-55063888D01*
X212930990Y-55063888D02*
X212883371Y-55111507D01*
X212883371Y-55111507D02*
X212835752Y-55206745D01*
X212835752Y-55206745D02*
X212835752Y-55349602D01*
X212835752Y-55349602D02*
X212883371Y-55444840D01*
X212883371Y-55444840D02*
X212930990Y-55492459D01*
X212930990Y-55492459D02*
X213026228Y-55540078D01*
X213026228Y-55540078D02*
X213311942Y-55540078D01*
X213311942Y-55540078D02*
X213407180Y-55492459D01*
X213407180Y-55492459D02*
X213454800Y-55444840D01*
X213454800Y-55444840D02*
X213502419Y-55349602D01*
X213502419Y-55349602D02*
X213502419Y-55206745D01*
X212835752Y-56397221D02*
X213502419Y-56397221D01*
X212835752Y-55968650D02*
X213359561Y-55968650D01*
X213359561Y-55968650D02*
X213454800Y-56016269D01*
X213454800Y-56016269D02*
X213502419Y-56111507D01*
X213502419Y-56111507D02*
X213502419Y-56254364D01*
X213502419Y-56254364D02*
X213454800Y-56349602D01*
X213454800Y-56349602D02*
X213407180Y-56397221D01*
X213502419Y-56873412D02*
X212835752Y-56873412D01*
X212502419Y-56873412D02*
X212550038Y-56825793D01*
X212550038Y-56825793D02*
X212597657Y-56873412D01*
X212597657Y-56873412D02*
X212550038Y-56921031D01*
X212550038Y-56921031D02*
X212502419Y-56873412D01*
X212502419Y-56873412D02*
X212597657Y-56873412D01*
X213454800Y-57301983D02*
X213502419Y-57397221D01*
X213502419Y-57397221D02*
X213502419Y-57587697D01*
X213502419Y-57587697D02*
X213454800Y-57682935D01*
X213454800Y-57682935D02*
X213359561Y-57730554D01*
X213359561Y-57730554D02*
X213311942Y-57730554D01*
X213311942Y-57730554D02*
X213216704Y-57682935D01*
X213216704Y-57682935D02*
X213169085Y-57587697D01*
X213169085Y-57587697D02*
X213169085Y-57444840D01*
X213169085Y-57444840D02*
X213121466Y-57349602D01*
X213121466Y-57349602D02*
X213026228Y-57301983D01*
X213026228Y-57301983D02*
X212978609Y-57301983D01*
X212978609Y-57301983D02*
X212883371Y-57349602D01*
X212883371Y-57349602D02*
X212835752Y-57444840D01*
X212835752Y-57444840D02*
X212835752Y-57587697D01*
X212835752Y-57587697D02*
X212883371Y-57682935D01*
X213502419Y-59730555D02*
X213502419Y-59682936D01*
X213502419Y-59682936D02*
X213454800Y-59587697D01*
X213454800Y-59587697D02*
X213311942Y-59444840D01*
X213311942Y-59444840D02*
X213026228Y-59206745D01*
X213026228Y-59206745D02*
X212883371Y-59111507D01*
X212883371Y-59111507D02*
X212740514Y-59063888D01*
X212740514Y-59063888D02*
X212645276Y-59063888D01*
X212645276Y-59063888D02*
X212550038Y-59111507D01*
X212550038Y-59111507D02*
X212502419Y-59206745D01*
X212502419Y-59206745D02*
X212502419Y-59254364D01*
X212502419Y-59254364D02*
X212550038Y-59349602D01*
X212550038Y-59349602D02*
X212645276Y-59397221D01*
X212645276Y-59397221D02*
X212692895Y-59397221D01*
X212692895Y-59397221D02*
X212788133Y-59349602D01*
X212788133Y-59349602D02*
X212835752Y-59301983D01*
X212835752Y-59301983D02*
X213026228Y-59016269D01*
X213026228Y-59016269D02*
X213073847Y-58968650D01*
X213073847Y-58968650D02*
X213169085Y-58921031D01*
X213169085Y-58921031D02*
X213311942Y-58921031D01*
X213311942Y-58921031D02*
X213407180Y-58968650D01*
X213407180Y-58968650D02*
X213454800Y-59016269D01*
X213454800Y-59016269D02*
X213502419Y-59111507D01*
X213502419Y-59111507D02*
X213502419Y-59254364D01*
X213502419Y-59254364D02*
X213454800Y-59349602D01*
X213454800Y-59349602D02*
X213407180Y-59397221D01*
X213407180Y-59397221D02*
X213216704Y-59540078D01*
X213216704Y-59540078D02*
X213073847Y-59587697D01*
X213073847Y-59587697D02*
X212978609Y-59587697D01*
X212502419Y-61206745D02*
X213216704Y-61206745D01*
X213216704Y-61206745D02*
X213359561Y-61159126D01*
X213359561Y-61159126D02*
X213454800Y-61063888D01*
X213454800Y-61063888D02*
X213502419Y-60921031D01*
X213502419Y-60921031D02*
X213502419Y-60825793D01*
X213454800Y-62063888D02*
X213502419Y-61968650D01*
X213502419Y-61968650D02*
X213502419Y-61778174D01*
X213502419Y-61778174D02*
X213454800Y-61682936D01*
X213454800Y-61682936D02*
X213359561Y-61635317D01*
X213359561Y-61635317D02*
X212978609Y-61635317D01*
X212978609Y-61635317D02*
X212883371Y-61682936D01*
X212883371Y-61682936D02*
X212835752Y-61778174D01*
X212835752Y-61778174D02*
X212835752Y-61968650D01*
X212835752Y-61968650D02*
X212883371Y-62063888D01*
X212883371Y-62063888D02*
X212978609Y-62111507D01*
X212978609Y-62111507D02*
X213073847Y-62111507D01*
X213073847Y-62111507D02*
X213169085Y-61635317D01*
X213502419Y-62540079D02*
X212835752Y-62540079D01*
X213026228Y-62540079D02*
X212930990Y-62587698D01*
X212930990Y-62587698D02*
X212883371Y-62635317D01*
X212883371Y-62635317D02*
X212835752Y-62730555D01*
X212835752Y-62730555D02*
X212835752Y-62825793D01*
X213454800Y-63540079D02*
X213502419Y-63444841D01*
X213502419Y-63444841D02*
X213502419Y-63254365D01*
X213502419Y-63254365D02*
X213454800Y-63159127D01*
X213454800Y-63159127D02*
X213359561Y-63111508D01*
X213359561Y-63111508D02*
X212978609Y-63111508D01*
X212978609Y-63111508D02*
X212883371Y-63159127D01*
X212883371Y-63159127D02*
X212835752Y-63254365D01*
X212835752Y-63254365D02*
X212835752Y-63444841D01*
X212835752Y-63444841D02*
X212883371Y-63540079D01*
X212883371Y-63540079D02*
X212978609Y-63587698D01*
X212978609Y-63587698D02*
X213073847Y-63587698D01*
X213073847Y-63587698D02*
X213169085Y-63111508D01*
X213502419Y-64016270D02*
X212835752Y-64016270D01*
X212930990Y-64016270D02*
X212883371Y-64063889D01*
X212883371Y-64063889D02*
X212835752Y-64159127D01*
X212835752Y-64159127D02*
X212835752Y-64301984D01*
X212835752Y-64301984D02*
X212883371Y-64397222D01*
X212883371Y-64397222D02*
X212978609Y-64444841D01*
X212978609Y-64444841D02*
X213502419Y-64444841D01*
X212978609Y-64444841D02*
X212883371Y-64492460D01*
X212883371Y-64492460D02*
X212835752Y-64587698D01*
X212835752Y-64587698D02*
X212835752Y-64730555D01*
X212835752Y-64730555D02*
X212883371Y-64825794D01*
X212883371Y-64825794D02*
X212978609Y-64873413D01*
X212978609Y-64873413D02*
X213502419Y-64873413D01*
X212835752Y-65254365D02*
X213502419Y-65492460D01*
X212835752Y-65730555D02*
X213502419Y-65492460D01*
X213502419Y-65492460D02*
X213740514Y-65397222D01*
X213740514Y-65397222D02*
X213788133Y-65349603D01*
X213788133Y-65349603D02*
X213835752Y-65254365D01*
X213454800Y-66825794D02*
X213502419Y-66968651D01*
X213502419Y-66968651D02*
X213502419Y-67206746D01*
X213502419Y-67206746D02*
X213454800Y-67301984D01*
X213454800Y-67301984D02*
X213407180Y-67349603D01*
X213407180Y-67349603D02*
X213311942Y-67397222D01*
X213311942Y-67397222D02*
X213216704Y-67397222D01*
X213216704Y-67397222D02*
X213121466Y-67349603D01*
X213121466Y-67349603D02*
X213073847Y-67301984D01*
X213073847Y-67301984D02*
X213026228Y-67206746D01*
X213026228Y-67206746D02*
X212978609Y-67016270D01*
X212978609Y-67016270D02*
X212930990Y-66921032D01*
X212930990Y-66921032D02*
X212883371Y-66873413D01*
X212883371Y-66873413D02*
X212788133Y-66825794D01*
X212788133Y-66825794D02*
X212692895Y-66825794D01*
X212692895Y-66825794D02*
X212597657Y-66873413D01*
X212597657Y-66873413D02*
X212550038Y-66921032D01*
X212550038Y-66921032D02*
X212502419Y-67016270D01*
X212502419Y-67016270D02*
X212502419Y-67254365D01*
X212502419Y-67254365D02*
X212550038Y-67397222D01*
X212835752Y-68254365D02*
X213502419Y-68254365D01*
X212835752Y-67825794D02*
X213359561Y-67825794D01*
X213359561Y-67825794D02*
X213454800Y-67873413D01*
X213454800Y-67873413D02*
X213502419Y-67968651D01*
X213502419Y-67968651D02*
X213502419Y-68111508D01*
X213502419Y-68111508D02*
X213454800Y-68206746D01*
X213454800Y-68206746D02*
X213407180Y-68254365D01*
X213502419Y-68730556D02*
X212835752Y-68730556D01*
X213026228Y-68730556D02*
X212930990Y-68778175D01*
X212930990Y-68778175D02*
X212883371Y-68825794D01*
X212883371Y-68825794D02*
X212835752Y-68921032D01*
X212835752Y-68921032D02*
X212835752Y-69016270D01*
X212835752Y-69254366D02*
X213502419Y-69492461D01*
X212835752Y-69730556D02*
X213502419Y-69492461D01*
X213502419Y-69492461D02*
X213740514Y-69397223D01*
X213740514Y-69397223D02*
X213788133Y-69349604D01*
X213788133Y-69349604D02*
X213835752Y-69254366D01*
X213502419Y-70540080D02*
X212978609Y-70540080D01*
X212978609Y-70540080D02*
X212883371Y-70492461D01*
X212883371Y-70492461D02*
X212835752Y-70397223D01*
X212835752Y-70397223D02*
X212835752Y-70206747D01*
X212835752Y-70206747D02*
X212883371Y-70111509D01*
X213454800Y-70540080D02*
X213502419Y-70444842D01*
X213502419Y-70444842D02*
X213502419Y-70206747D01*
X213502419Y-70206747D02*
X213454800Y-70111509D01*
X213454800Y-70111509D02*
X213359561Y-70063890D01*
X213359561Y-70063890D02*
X213264323Y-70063890D01*
X213264323Y-70063890D02*
X213169085Y-70111509D01*
X213169085Y-70111509D02*
X213121466Y-70206747D01*
X213121466Y-70206747D02*
X213121466Y-70444842D01*
X213121466Y-70444842D02*
X213073847Y-70540080D01*
X213454800Y-70968652D02*
X213502419Y-71063890D01*
X213502419Y-71063890D02*
X213502419Y-71254366D01*
X213502419Y-71254366D02*
X213454800Y-71349604D01*
X213454800Y-71349604D02*
X213359561Y-71397223D01*
X213359561Y-71397223D02*
X213311942Y-71397223D01*
X213311942Y-71397223D02*
X213216704Y-71349604D01*
X213216704Y-71349604D02*
X213169085Y-71254366D01*
X213169085Y-71254366D02*
X213169085Y-71111509D01*
X213169085Y-71111509D02*
X213121466Y-71016271D01*
X213121466Y-71016271D02*
X213026228Y-70968652D01*
X213026228Y-70968652D02*
X212978609Y-70968652D01*
X212978609Y-70968652D02*
X212883371Y-71016271D01*
X212883371Y-71016271D02*
X212835752Y-71111509D01*
X212835752Y-71111509D02*
X212835752Y-71254366D01*
X212835752Y-71254366D02*
X212883371Y-71349604D01*
X213502419Y-72254366D02*
X212978609Y-72254366D01*
X212978609Y-72254366D02*
X212883371Y-72206747D01*
X212883371Y-72206747D02*
X212835752Y-72111509D01*
X212835752Y-72111509D02*
X212835752Y-71921033D01*
X212835752Y-71921033D02*
X212883371Y-71825795D01*
X213454800Y-72254366D02*
X213502419Y-72159128D01*
X213502419Y-72159128D02*
X213502419Y-71921033D01*
X213502419Y-71921033D02*
X213454800Y-71825795D01*
X213454800Y-71825795D02*
X213359561Y-71778176D01*
X213359561Y-71778176D02*
X213264323Y-71778176D01*
X213264323Y-71778176D02*
X213169085Y-71825795D01*
X213169085Y-71825795D02*
X213121466Y-71921033D01*
X213121466Y-71921033D02*
X213121466Y-72159128D01*
X213121466Y-72159128D02*
X213073847Y-72254366D01*
X212835752Y-72730557D02*
X213835752Y-72730557D01*
X212883371Y-72730557D02*
X212835752Y-72825795D01*
X212835752Y-72825795D02*
X212835752Y-73016271D01*
X212835752Y-73016271D02*
X212883371Y-73111509D01*
X212883371Y-73111509D02*
X212930990Y-73159128D01*
X212930990Y-73159128D02*
X213026228Y-73206747D01*
X213026228Y-73206747D02*
X213311942Y-73206747D01*
X213311942Y-73206747D02*
X213407180Y-73159128D01*
X213407180Y-73159128D02*
X213454800Y-73111509D01*
X213454800Y-73111509D02*
X213502419Y-73016271D01*
X213502419Y-73016271D02*
X213502419Y-72825795D01*
X213502419Y-72825795D02*
X213454800Y-72730557D01*
X212835752Y-74063890D02*
X213502419Y-74063890D01*
X212835752Y-73635319D02*
X213359561Y-73635319D01*
X213359561Y-73635319D02*
X213454800Y-73682938D01*
X213454800Y-73682938D02*
X213502419Y-73778176D01*
X213502419Y-73778176D02*
X213502419Y-73921033D01*
X213502419Y-73921033D02*
X213454800Y-74016271D01*
X213454800Y-74016271D02*
X213407180Y-74063890D01*
X212835752Y-74397224D02*
X212835752Y-74778176D01*
X212502419Y-74540081D02*
X213359561Y-74540081D01*
X213359561Y-74540081D02*
X213454800Y-74587700D01*
X213454800Y-74587700D02*
X213502419Y-74682938D01*
X213502419Y-74682938D02*
X213502419Y-74778176D01*
X213502419Y-75111510D02*
X212835752Y-75111510D01*
X213026228Y-75111510D02*
X212930990Y-75159129D01*
X212930990Y-75159129D02*
X212883371Y-75206748D01*
X212883371Y-75206748D02*
X212835752Y-75301986D01*
X212835752Y-75301986D02*
X212835752Y-75397224D01*
X213502419Y-76159129D02*
X212978609Y-76159129D01*
X212978609Y-76159129D02*
X212883371Y-76111510D01*
X212883371Y-76111510D02*
X212835752Y-76016272D01*
X212835752Y-76016272D02*
X212835752Y-75825796D01*
X212835752Y-75825796D02*
X212883371Y-75730558D01*
X213454800Y-76159129D02*
X213502419Y-76063891D01*
X213502419Y-76063891D02*
X213502419Y-75825796D01*
X213502419Y-75825796D02*
X213454800Y-75730558D01*
X213454800Y-75730558D02*
X213359561Y-75682939D01*
X213359561Y-75682939D02*
X213264323Y-75682939D01*
X213264323Y-75682939D02*
X213169085Y-75730558D01*
X213169085Y-75730558D02*
X213121466Y-75825796D01*
X213121466Y-75825796D02*
X213121466Y-76063891D01*
X213121466Y-76063891D02*
X213073847Y-76159129D01*
X213883371Y-77682939D02*
X213835752Y-77635320D01*
X213835752Y-77635320D02*
X213692895Y-77540082D01*
X213692895Y-77540082D02*
X213597657Y-77492463D01*
X213597657Y-77492463D02*
X213454800Y-77444844D01*
X213454800Y-77444844D02*
X213216704Y-77397225D01*
X213216704Y-77397225D02*
X213026228Y-77397225D01*
X213026228Y-77397225D02*
X212788133Y-77444844D01*
X212788133Y-77444844D02*
X212645276Y-77492463D01*
X212645276Y-77492463D02*
X212550038Y-77540082D01*
X212550038Y-77540082D02*
X212407180Y-77635320D01*
X212407180Y-77635320D02*
X212359561Y-77682939D01*
X212502419Y-78254368D02*
X212502419Y-78444844D01*
X212502419Y-78444844D02*
X212550038Y-78540082D01*
X212550038Y-78540082D02*
X212645276Y-78635320D01*
X212645276Y-78635320D02*
X212835752Y-78682939D01*
X212835752Y-78682939D02*
X213169085Y-78682939D01*
X213169085Y-78682939D02*
X213359561Y-78635320D01*
X213359561Y-78635320D02*
X213454800Y-78540082D01*
X213454800Y-78540082D02*
X213502419Y-78444844D01*
X213502419Y-78444844D02*
X213502419Y-78254368D01*
X213502419Y-78254368D02*
X213454800Y-78159130D01*
X213454800Y-78159130D02*
X213359561Y-78063892D01*
X213359561Y-78063892D02*
X213169085Y-78016273D01*
X213169085Y-78016273D02*
X212835752Y-78016273D01*
X212835752Y-78016273D02*
X212645276Y-78063892D01*
X212645276Y-78063892D02*
X212550038Y-78159130D01*
X212550038Y-78159130D02*
X212502419Y-78254368D01*
X213502419Y-79111511D02*
X212502419Y-79111511D01*
X212502419Y-79111511D02*
X212502419Y-79492463D01*
X212502419Y-79492463D02*
X212550038Y-79587701D01*
X212550038Y-79587701D02*
X212597657Y-79635320D01*
X212597657Y-79635320D02*
X212692895Y-79682939D01*
X212692895Y-79682939D02*
X212835752Y-79682939D01*
X212835752Y-79682939D02*
X212930990Y-79635320D01*
X212930990Y-79635320D02*
X212978609Y-79587701D01*
X212978609Y-79587701D02*
X213026228Y-79492463D01*
X213026228Y-79492463D02*
X213026228Y-79111511D01*
X213454800Y-80063892D02*
X213502419Y-80206749D01*
X213502419Y-80206749D02*
X213502419Y-80444844D01*
X213502419Y-80444844D02*
X213454800Y-80540082D01*
X213454800Y-80540082D02*
X213407180Y-80587701D01*
X213407180Y-80587701D02*
X213311942Y-80635320D01*
X213311942Y-80635320D02*
X213216704Y-80635320D01*
X213216704Y-80635320D02*
X213121466Y-80587701D01*
X213121466Y-80587701D02*
X213073847Y-80540082D01*
X213073847Y-80540082D02*
X213026228Y-80444844D01*
X213026228Y-80444844D02*
X212978609Y-80254368D01*
X212978609Y-80254368D02*
X212930990Y-80159130D01*
X212930990Y-80159130D02*
X212883371Y-80111511D01*
X212883371Y-80111511D02*
X212788133Y-80063892D01*
X212788133Y-80063892D02*
X212692895Y-80063892D01*
X212692895Y-80063892D02*
X212597657Y-80111511D01*
X212597657Y-80111511D02*
X212550038Y-80159130D01*
X212550038Y-80159130D02*
X212502419Y-80254368D01*
X212502419Y-80254368D02*
X212502419Y-80492463D01*
X212502419Y-80492463D02*
X212550038Y-80635320D01*
X213121466Y-81825797D02*
X213121466Y-82587702D01*
X213502419Y-83825797D02*
X212502419Y-83825797D01*
X212502419Y-83825797D02*
X212502419Y-84206749D01*
X212502419Y-84206749D02*
X212550038Y-84301987D01*
X212550038Y-84301987D02*
X212597657Y-84349606D01*
X212597657Y-84349606D02*
X212692895Y-84397225D01*
X212692895Y-84397225D02*
X212835752Y-84397225D01*
X212835752Y-84397225D02*
X212930990Y-84349606D01*
X212930990Y-84349606D02*
X212978609Y-84301987D01*
X212978609Y-84301987D02*
X213026228Y-84206749D01*
X213026228Y-84206749D02*
X213026228Y-83825797D01*
X213502419Y-84825797D02*
X212502419Y-84825797D01*
X213502419Y-85873415D02*
X213026228Y-85540082D01*
X213502419Y-85301987D02*
X212502419Y-85301987D01*
X212502419Y-85301987D02*
X212502419Y-85682939D01*
X212502419Y-85682939D02*
X212550038Y-85778177D01*
X212550038Y-85778177D02*
X212597657Y-85825796D01*
X212597657Y-85825796D02*
X212692895Y-85873415D01*
X212692895Y-85873415D02*
X212835752Y-85873415D01*
X212835752Y-85873415D02*
X212930990Y-85825796D01*
X212930990Y-85825796D02*
X212978609Y-85778177D01*
X212978609Y-85778177D02*
X213026228Y-85682939D01*
X213026228Y-85682939D02*
X213026228Y-85301987D01*
X213883371Y-86206749D02*
X213835752Y-86254368D01*
X213835752Y-86254368D02*
X213692895Y-86349606D01*
X213692895Y-86349606D02*
X213597657Y-86397225D01*
X213597657Y-86397225D02*
X213454800Y-86444844D01*
X213454800Y-86444844D02*
X213216704Y-86492463D01*
X213216704Y-86492463D02*
X213026228Y-86492463D01*
X213026228Y-86492463D02*
X212788133Y-86444844D01*
X212788133Y-86444844D02*
X212645276Y-86397225D01*
X212645276Y-86397225D02*
X212550038Y-86349606D01*
X212550038Y-86349606D02*
X212407180Y-86254368D01*
X212407180Y-86254368D02*
X212359561Y-86206749D01*
D11*
%TO.C,G\u002A\u002A\u002A*%
G36*
X201442583Y-48097397D02*
G01*
X201425065Y-48114915D01*
X201407548Y-48097397D01*
X201425065Y-48079880D01*
X201442583Y-48097397D01*
G37*
G36*
X211777755Y-78453777D02*
G01*
X211777755Y-79295604D01*
X208818320Y-79295604D01*
X205858885Y-79295604D01*
X205797472Y-79094156D01*
X205775599Y-79009030D01*
X205745772Y-78795734D01*
X205736071Y-78524846D01*
X205738620Y-78396729D01*
X205764057Y-78150710D01*
X205818928Y-77959261D01*
X205905877Y-77815003D01*
X206027544Y-77710554D01*
X206154721Y-77631466D01*
X208966238Y-77621708D01*
X211777755Y-77611950D01*
X211777755Y-78453777D01*
G37*
G36*
X211777755Y-75774639D02*
G01*
X211777755Y-76632984D01*
X207401162Y-76632984D01*
X203024568Y-76632984D01*
X202988701Y-76519122D01*
X202972198Y-76464221D01*
X202910716Y-76182459D01*
X202885745Y-75904514D01*
X202896147Y-75642207D01*
X202940788Y-75407360D01*
X203018530Y-75211793D01*
X203128238Y-75067327D01*
X203151026Y-75049187D01*
X203252239Y-74994060D01*
X203369479Y-74954321D01*
X203412915Y-74949331D01*
X203530794Y-74943412D01*
X203717920Y-74938083D01*
X203973832Y-74933347D01*
X204298069Y-74929209D01*
X204690167Y-74925672D01*
X205149667Y-74922741D01*
X205676106Y-74920419D01*
X206269023Y-74918711D01*
X206927957Y-74917620D01*
X207652445Y-74917150D01*
X211777755Y-74916294D01*
X211777755Y-75774639D01*
G37*
G36*
X211777755Y-63057122D02*
G01*
X211777755Y-63915466D01*
X207401162Y-63915466D01*
X203024568Y-63915466D01*
X202988223Y-63801604D01*
X202979549Y-63773654D01*
X202919075Y-63510945D01*
X202890043Y-63240052D01*
X202892409Y-62978697D01*
X202926134Y-62744600D01*
X202991174Y-62555485D01*
X203096964Y-62394843D01*
X203231799Y-62290019D01*
X203409483Y-62231326D01*
X203429821Y-62229283D01*
X203519443Y-62225506D01*
X203672178Y-62221867D01*
X203883477Y-62218398D01*
X204148790Y-62215132D01*
X204463570Y-62212103D01*
X204823266Y-62209343D01*
X205223331Y-62206886D01*
X205659215Y-62204765D01*
X206126369Y-62203013D01*
X206620244Y-62201663D01*
X207136291Y-62200749D01*
X207669962Y-62200303D01*
X211777755Y-62198777D01*
X211777755Y-63057122D01*
G37*
G36*
X204156853Y-77586303D02*
G01*
X204364631Y-77693295D01*
X204539293Y-77849777D01*
X204669261Y-78051880D01*
X204696636Y-78123960D01*
X204725496Y-78273232D01*
X204734726Y-78472294D01*
X204734733Y-78488354D01*
X204731077Y-78634923D01*
X204716344Y-78740720D01*
X204684472Y-78832495D01*
X204629397Y-78937002D01*
X204589101Y-79001720D01*
X204424066Y-79187712D01*
X204221014Y-79316145D01*
X203984472Y-79384761D01*
X203718966Y-79391301D01*
X203514871Y-79350565D01*
X203309334Y-79254623D01*
X203142070Y-79115887D01*
X203014853Y-78944029D01*
X202929461Y-78748721D01*
X202887668Y-78539637D01*
X202891252Y-78326447D01*
X202941986Y-78118825D01*
X203041649Y-77926442D01*
X203192015Y-77758971D01*
X203394860Y-77626084D01*
X203450583Y-77600939D01*
X203688252Y-77536257D01*
X203927534Y-77532667D01*
X204156853Y-77586303D01*
G37*
G36*
X204066481Y-64884358D02*
G01*
X204216431Y-64926583D01*
X204327332Y-64990334D01*
X204471089Y-65111069D01*
X204598100Y-65255220D01*
X204685144Y-65399364D01*
X204689234Y-65409256D01*
X204721808Y-65544009D01*
X204735326Y-65715632D01*
X204730377Y-65897896D01*
X204707549Y-66064570D01*
X204667430Y-66189425D01*
X204614798Y-66283049D01*
X204456391Y-66483222D01*
X204267210Y-66622996D01*
X204124105Y-66673944D01*
X203933313Y-66701885D01*
X203728608Y-66702646D01*
X203536126Y-66676237D01*
X203382002Y-66622668D01*
X203335595Y-66595578D01*
X203166181Y-66455489D01*
X203023885Y-66275062D01*
X202928300Y-66077826D01*
X202886535Y-65883098D01*
X202893047Y-65642482D01*
X202958686Y-65413059D01*
X203078011Y-65206849D01*
X203245581Y-65035874D01*
X203455954Y-64912156D01*
X203525184Y-64889992D01*
X203692447Y-64865524D01*
X203882350Y-64863826D01*
X204066481Y-64884358D01*
G37*
G36*
X211777755Y-65772294D02*
G01*
X211777807Y-66025821D01*
X211777011Y-66232390D01*
X211773849Y-66384852D01*
X211766801Y-66491394D01*
X211754348Y-66560203D01*
X211734971Y-66599469D01*
X211707151Y-66617378D01*
X211669367Y-66622119D01*
X211620100Y-66621880D01*
X211608720Y-66621869D01*
X211535454Y-66621768D01*
X211399926Y-66621572D01*
X211207459Y-66621287D01*
X210963380Y-66620923D01*
X210673012Y-66620486D01*
X210341681Y-66619985D01*
X209974711Y-66619428D01*
X209577427Y-66618823D01*
X209155154Y-66618178D01*
X208713217Y-66617501D01*
X205858885Y-66613122D01*
X205797887Y-66411673D01*
X205775286Y-66321147D01*
X205746685Y-66124725D01*
X205734445Y-65906942D01*
X205738601Y-65690164D01*
X205759187Y-65496755D01*
X205796239Y-65349080D01*
X205890637Y-65173791D01*
X206028934Y-65043137D01*
X206207272Y-64969393D01*
X206267034Y-64962592D01*
X206397930Y-64955857D01*
X206595321Y-64949917D01*
X206857336Y-64944796D01*
X207182105Y-64940518D01*
X207567760Y-64937107D01*
X208012431Y-64934589D01*
X208514248Y-64932986D01*
X209071341Y-64932323D01*
X211777755Y-64931466D01*
X211777755Y-65772294D01*
G37*
G36*
X206329893Y-54816340D02*
G01*
X206430763Y-54816762D01*
X206946673Y-54819053D01*
X207398163Y-54821357D01*
X207790015Y-54823784D01*
X208127011Y-54826444D01*
X208413933Y-54829448D01*
X208655562Y-54832906D01*
X208856681Y-54836927D01*
X209022072Y-54841623D01*
X209156515Y-54847102D01*
X209264793Y-54853476D01*
X209351687Y-54860855D01*
X209421981Y-54869349D01*
X209480454Y-54879068D01*
X209531889Y-54890121D01*
X209813805Y-54967137D01*
X210111452Y-55070152D01*
X210378258Y-55185213D01*
X210594648Y-55304686D01*
X210740554Y-55406796D01*
X211046690Y-55680192D01*
X211314194Y-56005162D01*
X211539079Y-56374556D01*
X211717357Y-56781222D01*
X211845039Y-57218010D01*
X211918138Y-57677769D01*
X211925359Y-57764419D01*
X211932504Y-58213954D01*
X211891653Y-58661887D01*
X211805531Y-59093757D01*
X211676866Y-59495104D01*
X211508382Y-59851466D01*
X211496901Y-59871424D01*
X211268334Y-60209927D01*
X210995566Y-60520869D01*
X210692546Y-60790095D01*
X210373224Y-61003447D01*
X210106460Y-61132436D01*
X209712350Y-61265779D01*
X209286857Y-61353380D01*
X208843874Y-61393399D01*
X208397289Y-61383994D01*
X207960994Y-61323322D01*
X207730186Y-61267986D01*
X207294834Y-61114105D01*
X206896489Y-60905174D01*
X206539573Y-60644681D01*
X206228509Y-60336114D01*
X205967720Y-59982960D01*
X205761627Y-59588708D01*
X205676958Y-59378752D01*
X205617911Y-59193849D01*
X205581924Y-59014597D01*
X205563999Y-58815912D01*
X205559134Y-58572708D01*
X205559317Y-58483995D01*
X205562073Y-58326067D01*
X205570434Y-58211965D01*
X205587290Y-58123513D01*
X205615532Y-58042535D01*
X205658052Y-57950854D01*
X205722390Y-57833281D01*
X205893566Y-57600986D01*
X206097115Y-57410607D01*
X206319325Y-57276133D01*
X206420223Y-57234532D01*
X206546900Y-57197086D01*
X206690684Y-57174412D01*
X206878001Y-57161069D01*
X206953366Y-57158139D01*
X207114273Y-57156153D01*
X207252518Y-57159820D01*
X207344483Y-57168752D01*
X207472352Y-57192741D01*
X207370980Y-57308197D01*
X207271817Y-57442033D01*
X207152711Y-57681501D01*
X207076662Y-57949723D01*
X207062664Y-58056917D01*
X207073773Y-58324904D01*
X207143676Y-58594768D01*
X207266120Y-58854847D01*
X207434854Y-59093478D01*
X207643624Y-59298998D01*
X207886178Y-59459743D01*
X207922194Y-59478026D01*
X208229713Y-59595452D01*
X208551437Y-59656176D01*
X208876403Y-59661743D01*
X209193648Y-59613699D01*
X209492208Y-59513588D01*
X209761121Y-59362955D01*
X209989424Y-59163345D01*
X210066537Y-59075487D01*
X210197122Y-58897096D01*
X210289495Y-58713296D01*
X210359025Y-58496347D01*
X210392152Y-58314008D01*
X210408359Y-58081479D01*
X210402600Y-57848480D01*
X210374277Y-57648311D01*
X210322156Y-57478839D01*
X210203968Y-57236309D01*
X210046931Y-57015113D01*
X209863208Y-56831483D01*
X209664961Y-56701651D01*
X209651336Y-56695036D01*
X209585609Y-56662979D01*
X209525371Y-56634811D01*
X209465899Y-56610253D01*
X209402472Y-56589027D01*
X209330367Y-56570852D01*
X209244862Y-56555451D01*
X209141236Y-56542545D01*
X209014764Y-56531854D01*
X208860726Y-56523101D01*
X208674400Y-56516005D01*
X208451062Y-56510289D01*
X208185991Y-56505674D01*
X207874464Y-56501880D01*
X207511760Y-56498629D01*
X207093155Y-56495643D01*
X206613929Y-56492641D01*
X206069358Y-56489346D01*
X203006064Y-56470639D01*
X202941414Y-56225397D01*
X202902952Y-56031478D01*
X202882737Y-55782983D01*
X202890228Y-55537597D01*
X202924590Y-55316077D01*
X202984992Y-55139179D01*
X203027697Y-55061492D01*
X203112250Y-54959911D01*
X203229341Y-54884124D01*
X203386996Y-54804091D01*
X206329893Y-54816340D01*
G37*
G36*
X206328463Y-67568914D02*
G01*
X206780558Y-67570911D01*
X207263802Y-67573322D01*
X207685405Y-67575836D01*
X208049967Y-67578553D01*
X208362089Y-67581573D01*
X208626372Y-67584993D01*
X208847418Y-67588912D01*
X209029828Y-67593431D01*
X209178202Y-67598647D01*
X209297143Y-67604660D01*
X209391250Y-67611569D01*
X209465125Y-67619472D01*
X209523369Y-67628469D01*
X209570583Y-67638659D01*
X209928708Y-67740911D01*
X210244221Y-67862084D01*
X210519500Y-68006939D01*
X210769457Y-68183361D01*
X211009003Y-68399233D01*
X211293692Y-68723883D01*
X211531922Y-69092235D01*
X211714130Y-69497034D01*
X211842096Y-69942256D01*
X211917596Y-70431880D01*
X211918221Y-70438334D01*
X211931414Y-70582914D01*
X211941886Y-70712502D01*
X211947420Y-70799742D01*
X211945560Y-70909728D01*
X211933254Y-71074941D01*
X211912849Y-71266284D01*
X211887023Y-71461552D01*
X211858453Y-71638539D01*
X211829816Y-71775036D01*
X211829136Y-71777698D01*
X211685792Y-72211193D01*
X211487832Y-72614714D01*
X211240612Y-72981397D01*
X210949486Y-73304376D01*
X210619808Y-73576787D01*
X210256932Y-73791763D01*
X210209344Y-73814764D01*
X209959539Y-73927345D01*
X209735136Y-74010061D01*
X209517170Y-74066990D01*
X209286675Y-74102207D01*
X209024686Y-74119791D01*
X208712238Y-74123818D01*
X208417625Y-74118394D01*
X208166782Y-74102009D01*
X207948169Y-74071099D01*
X207742852Y-74022076D01*
X207531898Y-73951348D01*
X207296374Y-73855326D01*
X207273431Y-73845293D01*
X206890758Y-73641777D01*
X206546860Y-73390037D01*
X206246207Y-73096754D01*
X205993266Y-72768609D01*
X205792505Y-72412284D01*
X205648394Y-72034459D01*
X205565399Y-71641816D01*
X205547990Y-71241036D01*
X205550635Y-71189170D01*
X205584114Y-70925982D01*
X205655226Y-70702899D01*
X205772668Y-70499177D01*
X205945142Y-70294074D01*
X206068115Y-70176931D01*
X206254526Y-70047596D01*
X206465153Y-69961334D01*
X206721150Y-69907612D01*
X206769133Y-69901815D01*
X206903207Y-69893071D01*
X207049996Y-69891157D01*
X207192959Y-69895372D01*
X207315554Y-69905014D01*
X207401241Y-69919385D01*
X207433479Y-69937782D01*
X207420849Y-69965012D01*
X207376889Y-70035425D01*
X207312299Y-70129582D01*
X207262892Y-70203818D01*
X207133904Y-70473360D01*
X207070792Y-70755542D01*
X207072947Y-71043413D01*
X207139759Y-71330024D01*
X207270620Y-71608423D01*
X207464921Y-71871660D01*
X207561030Y-71967830D01*
X207788011Y-72137820D01*
X208047191Y-72273121D01*
X208314437Y-72359863D01*
X208388018Y-72373064D01*
X208592195Y-72390112D01*
X208822236Y-72388989D01*
X209054431Y-72371154D01*
X209265071Y-72338067D01*
X209430445Y-72291186D01*
X209605842Y-72208792D01*
X209872791Y-72023360D01*
X210095453Y-71785637D01*
X210144282Y-71717470D01*
X210279446Y-71469519D01*
X210364245Y-71193858D01*
X210403689Y-70875699D01*
X210401553Y-70632423D01*
X210348806Y-70316253D01*
X210241208Y-70031604D01*
X210082142Y-69784742D01*
X209874990Y-69581935D01*
X209623134Y-69429449D01*
X209615829Y-69426094D01*
X209541617Y-69391844D01*
X209474236Y-69361746D01*
X209408880Y-69335504D01*
X209340743Y-69312821D01*
X209265018Y-69293401D01*
X209176900Y-69276948D01*
X209071583Y-69263166D01*
X208944260Y-69251758D01*
X208790125Y-69242428D01*
X208604373Y-69234880D01*
X208382196Y-69228818D01*
X208118790Y-69223946D01*
X207809348Y-69219967D01*
X207449063Y-69216584D01*
X207033131Y-69213503D01*
X206556744Y-69210426D01*
X206015096Y-69207057D01*
X203002645Y-69188156D01*
X202939079Y-68960432D01*
X202899828Y-68766712D01*
X202881462Y-68526319D01*
X202890164Y-68285707D01*
X202924989Y-68066866D01*
X202984992Y-67891781D01*
X203010907Y-67844424D01*
X203099024Y-67722984D01*
X203192877Y-67636483D01*
X203314068Y-67556158D01*
X206328463Y-67568914D01*
G37*
G36*
X211417212Y-44452873D02*
G01*
X211488845Y-44476157D01*
X211606798Y-44551364D01*
X211702705Y-44653610D01*
X211753420Y-44761638D01*
X211753986Y-44767258D01*
X211755924Y-44830697D01*
X211757709Y-44958391D01*
X211759330Y-45145793D01*
X211760774Y-45388359D01*
X211762028Y-45681541D01*
X211763080Y-46020795D01*
X211763917Y-46401574D01*
X211764528Y-46819333D01*
X211764899Y-47269526D01*
X211765017Y-47747607D01*
X211764871Y-48249030D01*
X211764448Y-48769250D01*
X211764271Y-48934731D01*
X211763610Y-49525438D01*
X211762925Y-50051014D01*
X211762141Y-50515377D01*
X211761183Y-50922443D01*
X211759978Y-51276127D01*
X211758450Y-51580346D01*
X211756526Y-51839016D01*
X211754131Y-52056054D01*
X211751191Y-52235376D01*
X211747630Y-52380897D01*
X211743376Y-52496535D01*
X211738353Y-52586205D01*
X211732487Y-52653824D01*
X211725703Y-52703308D01*
X211717928Y-52738572D01*
X211709087Y-52763534D01*
X211699105Y-52782110D01*
X211687908Y-52798215D01*
X211676956Y-52812147D01*
X211588856Y-52894653D01*
X211483923Y-52962529D01*
X211352267Y-53027937D01*
X210627839Y-52848442D01*
X210224687Y-52751478D01*
X209750191Y-52647404D01*
X209311736Y-52565094D01*
X208892838Y-52502500D01*
X208477013Y-52457577D01*
X208047777Y-52428278D01*
X207588645Y-52412557D01*
X207083134Y-52408366D01*
X207026939Y-52408492D01*
X206648827Y-52411539D01*
X206312562Y-52419251D01*
X206002348Y-52432912D01*
X205702387Y-52453804D01*
X205396885Y-52483210D01*
X205070044Y-52522415D01*
X204706069Y-52572702D01*
X204289163Y-52635353D01*
X204090775Y-52665787D01*
X203855511Y-52700331D01*
X203673800Y-52723315D01*
X203536393Y-52734473D01*
X203434039Y-52733534D01*
X203357491Y-52720231D01*
X203297498Y-52694295D01*
X203244813Y-52655457D01*
X203190185Y-52603450D01*
X203181166Y-52594411D01*
X203110310Y-52517639D01*
X203072380Y-52451666D01*
X203057208Y-52369549D01*
X203054620Y-52244347D01*
X203054625Y-52242697D01*
X203058333Y-52135730D01*
X203068091Y-51974720D01*
X203082774Y-51774981D01*
X203101260Y-51551826D01*
X203122423Y-51320570D01*
X203160034Y-50904517D01*
X203206199Y-50246800D01*
X204833401Y-50246800D01*
X204833490Y-50273137D01*
X204866783Y-50416285D01*
X204945870Y-50527396D01*
X205056331Y-50599889D01*
X205183745Y-50627183D01*
X205313691Y-50602697D01*
X205431747Y-50519850D01*
X205492548Y-50439731D01*
X205495345Y-50432093D01*
X206152922Y-50432093D01*
X206167882Y-50543235D01*
X206247682Y-50646156D01*
X206276342Y-50667489D01*
X206344799Y-50696101D01*
X206436799Y-50703316D01*
X206566810Y-50689373D01*
X206749302Y-50654514D01*
X206938880Y-50605074D01*
X207274798Y-50467212D01*
X207574721Y-50276726D01*
X207832550Y-50039718D01*
X208042187Y-49762288D01*
X208197534Y-49450537D01*
X208292493Y-49110567D01*
X208299824Y-49068605D01*
X208328828Y-48863398D01*
X208337072Y-48687039D01*
X208324501Y-48507622D01*
X208291058Y-48293239D01*
X208200722Y-47974162D01*
X208046557Y-47668806D01*
X207836378Y-47394199D01*
X207576113Y-47156758D01*
X207271691Y-46962902D01*
X206929043Y-46819046D01*
X206813131Y-46787946D01*
X206656611Y-46759741D01*
X206502842Y-46743884D01*
X206373424Y-46742454D01*
X206289963Y-46757531D01*
X206285439Y-46759633D01*
X206196475Y-46836970D01*
X206156706Y-46947843D01*
X206174557Y-47069478D01*
X206179611Y-47080816D01*
X206228118Y-47144074D01*
X206311562Y-47191229D01*
X206441647Y-47227085D01*
X206630076Y-47256446D01*
X206798483Y-47295717D01*
X207013715Y-47385259D01*
X207226120Y-47510455D01*
X207412660Y-47659442D01*
X207438830Y-47684919D01*
X207622093Y-47917394D01*
X207750433Y-48190447D01*
X207820889Y-48497994D01*
X207833720Y-48655837D01*
X207813740Y-48980597D01*
X207732265Y-49279634D01*
X207593634Y-49547162D01*
X207402187Y-49777397D01*
X207162264Y-49964552D01*
X206878204Y-50102843D01*
X206554347Y-50186484D01*
X206522079Y-50191780D01*
X206377338Y-50222929D01*
X206280685Y-50261616D01*
X206213470Y-50314865D01*
X206204108Y-50325398D01*
X206152922Y-50432093D01*
X205495345Y-50432093D01*
X205544080Y-50299010D01*
X205536336Y-50160545D01*
X205471354Y-50038801D01*
X205351175Y-49948241D01*
X205216070Y-49911399D01*
X205074307Y-49927646D01*
X204953359Y-49994680D01*
X204868099Y-50103923D01*
X204833401Y-50246800D01*
X203206199Y-50246800D01*
X203222200Y-50018832D01*
X203254942Y-49168929D01*
X203258145Y-48335587D01*
X203231698Y-47499584D01*
X203205671Y-47102379D01*
X204835232Y-47102379D01*
X204847890Y-47263127D01*
X204848915Y-47266983D01*
X204915124Y-47392106D01*
X205023597Y-47477777D01*
X205155840Y-47518238D01*
X205216070Y-47513637D01*
X205293359Y-47507732D01*
X205417660Y-47440501D01*
X205441883Y-47417712D01*
X205525578Y-47292401D01*
X205550382Y-47158799D01*
X205521798Y-47030765D01*
X205445327Y-46922155D01*
X205326473Y-46846828D01*
X205170737Y-46818639D01*
X205113444Y-46822452D01*
X204975765Y-46871364D01*
X204880442Y-46968232D01*
X204835232Y-47102379D01*
X203205671Y-47102379D01*
X203175484Y-46641698D01*
X203089391Y-45742709D01*
X203073064Y-45583009D01*
X203056114Y-45356184D01*
X203053857Y-45181878D01*
X203066907Y-45049847D01*
X203095873Y-44949842D01*
X203141368Y-44871618D01*
X203192051Y-44811232D01*
X203260009Y-44754379D01*
X203341790Y-44718962D01*
X203448324Y-44703670D01*
X203590541Y-44707189D01*
X203779371Y-44728207D01*
X204025743Y-44765412D01*
X204688363Y-44865031D01*
X205170737Y-44924513D01*
X205437075Y-44957356D01*
X206141653Y-45019158D01*
X206373424Y-45029858D01*
X206812588Y-45050132D01*
X207460374Y-45049974D01*
X208095502Y-45018381D01*
X208728465Y-44955048D01*
X209369756Y-44859673D01*
X210029865Y-44731950D01*
X210719286Y-44571576D01*
X210863912Y-44536140D01*
X211073143Y-44488839D01*
X211229250Y-44460190D01*
X211341013Y-44448699D01*
X211417212Y-44452873D01*
G37*
G36*
X202213341Y-45523686D02*
G01*
X202257918Y-45524995D01*
X202318445Y-45536660D01*
X202324690Y-45537864D01*
X202332616Y-45562811D01*
X202324062Y-45582670D01*
X202348751Y-45577837D01*
X202357727Y-45574077D01*
X202426304Y-45572691D01*
X202520578Y-45592602D01*
X202528652Y-45595085D01*
X202581203Y-45611246D01*
X202616238Y-45622021D01*
X202633893Y-45627450D01*
X202658374Y-45635607D01*
X202707497Y-45651976D01*
X202735938Y-45667634D01*
X202730594Y-45681058D01*
X202702842Y-45698884D01*
X202672827Y-45723475D01*
X202697750Y-45732033D01*
X202715502Y-45746858D01*
X202729551Y-45758590D01*
X202736691Y-45846432D01*
X202737138Y-45941876D01*
X202748895Y-46012846D01*
X202756376Y-46050858D01*
X202757883Y-46058515D01*
X202771334Y-46167491D01*
X202785571Y-46309308D01*
X202787388Y-46327407D01*
X202805195Y-46528142D01*
X202823905Y-46759574D01*
X202826445Y-46793691D01*
X202842667Y-47011583D01*
X202860630Y-47274047D01*
X202876945Y-47536846D01*
X202879817Y-47586611D01*
X202895677Y-47899980D01*
X202905149Y-48166780D01*
X202908225Y-48382369D01*
X202904898Y-48542107D01*
X202895157Y-48641353D01*
X202878996Y-48675466D01*
X202869394Y-48674041D01*
X202843962Y-48638364D01*
X202841986Y-48626800D01*
X202811867Y-48621098D01*
X202760416Y-48623140D01*
X202680488Y-48599991D01*
X202603073Y-48572856D01*
X202554928Y-48564706D01*
X202549848Y-48565200D01*
X202528652Y-48538608D01*
X202511821Y-48523086D01*
X202453104Y-48526610D01*
X202448942Y-48527680D01*
X202399956Y-48531542D01*
X202405966Y-48500400D01*
X202414072Y-48482777D01*
X202563686Y-48482777D01*
X202581203Y-48500294D01*
X202598721Y-48482777D01*
X202598017Y-48482073D01*
X202781378Y-48482073D01*
X202785571Y-48523650D01*
X202796109Y-48529131D01*
X202808928Y-48500294D01*
X202806399Y-48481747D01*
X202785571Y-48476938D01*
X202781378Y-48482073D01*
X202598017Y-48482073D01*
X202581203Y-48465260D01*
X202563686Y-48482777D01*
X202414072Y-48482777D01*
X202417534Y-48475250D01*
X202394647Y-48478986D01*
X202380716Y-48484651D01*
X202317281Y-48486060D01*
X202237728Y-48469779D01*
X202163397Y-48442925D01*
X202124974Y-48418547D01*
X202189985Y-48418547D01*
X202195120Y-48422740D01*
X202236698Y-48418547D01*
X202242179Y-48408009D01*
X202213341Y-48395191D01*
X202194794Y-48397719D01*
X202189985Y-48418547D01*
X202124974Y-48418547D01*
X202115624Y-48412615D01*
X202115748Y-48385966D01*
X202123616Y-48377673D01*
X202598721Y-48377673D01*
X202616238Y-48395191D01*
X202633755Y-48377673D01*
X202808928Y-48377673D01*
X202826445Y-48395191D01*
X202843962Y-48377673D01*
X202826445Y-48360156D01*
X202808928Y-48377673D01*
X202633755Y-48377673D01*
X202616238Y-48360156D01*
X202598721Y-48377673D01*
X202123616Y-48377673D01*
X202133798Y-48366940D01*
X202092703Y-48375869D01*
X202065430Y-48380966D01*
X201982868Y-48378177D01*
X201885067Y-48361100D01*
X201819700Y-48342639D01*
X201968100Y-48342639D01*
X201985617Y-48360156D01*
X202003134Y-48342639D01*
X202738859Y-48342639D01*
X202756376Y-48360156D01*
X202773893Y-48342639D01*
X202756376Y-48325122D01*
X202738859Y-48342639D01*
X202003134Y-48342639D01*
X201985617Y-48325122D01*
X201968100Y-48342639D01*
X201819700Y-48342639D01*
X201793254Y-48335170D01*
X201728657Y-48305824D01*
X201712503Y-48278499D01*
X201717766Y-48264673D01*
X201692552Y-48269648D01*
X201689220Y-48271590D01*
X201608042Y-48280389D01*
X201501754Y-48244582D01*
X201489987Y-48237535D01*
X201617755Y-48237535D01*
X201635272Y-48255053D01*
X201652790Y-48237535D01*
X201635272Y-48220018D01*
X201617755Y-48237535D01*
X201489987Y-48237535D01*
X201386072Y-48175303D01*
X201284301Y-48090046D01*
X201390805Y-48090046D01*
X201404984Y-48145801D01*
X201429822Y-48170425D01*
X201431904Y-48167466D01*
X201687824Y-48167466D01*
X201705341Y-48184984D01*
X201722859Y-48167466D01*
X201705341Y-48149949D01*
X201687824Y-48167466D01*
X201431904Y-48167466D01*
X201453694Y-48136491D01*
X201459919Y-48107038D01*
X201452919Y-48088256D01*
X201562881Y-48088256D01*
X201576152Y-48103813D01*
X201596411Y-48109410D01*
X201635272Y-48102479D01*
X201643301Y-48101047D01*
X201642759Y-48089087D01*
X201597318Y-48082646D01*
X201562881Y-48088256D01*
X201452919Y-48088256D01*
X201443473Y-48062913D01*
X201412347Y-48057259D01*
X201390805Y-48090046D01*
X201284301Y-48090046D01*
X201276710Y-48083687D01*
X201199086Y-47992294D01*
X201337479Y-47992294D01*
X201354996Y-48009811D01*
X201372514Y-47992294D01*
X201354996Y-47974777D01*
X201337479Y-47992294D01*
X201199086Y-47992294D01*
X201189382Y-47980869D01*
X201160783Y-47921521D01*
X201239861Y-47921521D01*
X201244054Y-47963099D01*
X201254592Y-47968580D01*
X201267410Y-47939742D01*
X201265022Y-47922225D01*
X201407548Y-47922225D01*
X201412347Y-47927024D01*
X201425065Y-47939742D01*
X201442583Y-47922225D01*
X201425065Y-47904708D01*
X201407548Y-47922225D01*
X201265022Y-47922225D01*
X201264882Y-47921195D01*
X201244054Y-47916386D01*
X201239861Y-47921521D01*
X201160783Y-47921521D01*
X201144239Y-47887191D01*
X201337479Y-47887191D01*
X201354996Y-47904708D01*
X201372514Y-47887191D01*
X201354996Y-47869673D01*
X201337479Y-47887191D01*
X201144239Y-47887191D01*
X201139802Y-47877983D01*
X201138713Y-47873393D01*
X201134275Y-47817122D01*
X201372514Y-47817122D01*
X201390031Y-47834639D01*
X201407548Y-47817122D01*
X201390031Y-47799604D01*
X201372514Y-47817122D01*
X201134275Y-47817122D01*
X201132581Y-47795635D01*
X201133272Y-47782087D01*
X201197341Y-47782087D01*
X201214859Y-47799604D01*
X201232376Y-47782087D01*
X201214859Y-47764570D01*
X201197341Y-47782087D01*
X201133272Y-47782087D01*
X201137739Y-47694477D01*
X201151164Y-47593287D01*
X201169835Y-47515429D01*
X201190729Y-47484269D01*
X201206892Y-47467071D01*
X201206955Y-47466777D01*
X201337479Y-47466777D01*
X201354996Y-47484294D01*
X201372514Y-47466777D01*
X201354996Y-47449260D01*
X201337479Y-47466777D01*
X201206955Y-47466777D01*
X201214859Y-47430179D01*
X201220201Y-47405442D01*
X201228536Y-47361673D01*
X201267410Y-47361673D01*
X201284928Y-47379191D01*
X201302445Y-47361673D01*
X201284928Y-47344156D01*
X201267410Y-47361673D01*
X201228536Y-47361673D01*
X201235207Y-47326639D01*
X201407548Y-47326639D01*
X201425065Y-47344156D01*
X201442583Y-47326639D01*
X201425065Y-47309122D01*
X201407548Y-47326639D01*
X201235207Y-47326639D01*
X201236076Y-47322077D01*
X201244054Y-47298159D01*
X201269613Y-47221535D01*
X201302445Y-47221535D01*
X201319962Y-47239053D01*
X201337479Y-47221535D01*
X201372514Y-47221535D01*
X201390031Y-47239053D01*
X201407548Y-47221535D01*
X201390031Y-47204018D01*
X201372514Y-47221535D01*
X201337479Y-47221535D01*
X201319962Y-47204018D01*
X201302445Y-47221535D01*
X201269613Y-47221535D01*
X201270065Y-47220454D01*
X201284928Y-47174718D01*
X201298520Y-47132893D01*
X201300379Y-47116432D01*
X201372514Y-47116432D01*
X201390031Y-47133949D01*
X201407548Y-47116432D01*
X201390031Y-47098915D01*
X201372514Y-47116432D01*
X201300379Y-47116432D01*
X201305720Y-47069123D01*
X201306454Y-47049418D01*
X201319962Y-47047278D01*
X201335084Y-47044882D01*
X201354996Y-47047355D01*
X201355946Y-47047473D01*
X201364035Y-47004605D01*
X201363273Y-46977369D01*
X201374674Y-46890650D01*
X201390031Y-46823657D01*
X201398921Y-46784876D01*
X201425065Y-46697749D01*
X201429771Y-46682066D01*
X201438507Y-46660279D01*
X202711309Y-46660279D01*
X202715502Y-46701857D01*
X202726040Y-46707338D01*
X202738859Y-46678501D01*
X202736330Y-46659954D01*
X202715502Y-46655145D01*
X202711309Y-46660279D01*
X201438507Y-46660279D01*
X201452273Y-46625949D01*
X201582721Y-46625949D01*
X201597318Y-46640546D01*
X201600238Y-46643466D01*
X201617755Y-46625949D01*
X201600238Y-46608432D01*
X201582721Y-46625949D01*
X201452273Y-46625949D01*
X201460981Y-46604234D01*
X201486308Y-46573397D01*
X201495979Y-46571007D01*
X201495781Y-46555176D01*
X201660275Y-46555176D01*
X201664468Y-46596754D01*
X201675005Y-46602235D01*
X201687824Y-46573397D01*
X201685296Y-46554850D01*
X201664468Y-46550041D01*
X201660275Y-46555176D01*
X201495781Y-46555176D01*
X201495580Y-46539084D01*
X201495187Y-46538428D01*
X201489567Y-46485122D01*
X201489570Y-46485107D01*
X201590206Y-46485107D01*
X201594399Y-46526685D01*
X201600238Y-46529722D01*
X201604937Y-46532166D01*
X201617755Y-46503328D01*
X201615227Y-46484781D01*
X201594399Y-46479972D01*
X201590206Y-46485107D01*
X201489570Y-46485107D01*
X201504666Y-46405515D01*
X201513876Y-46378312D01*
X201636283Y-46378312D01*
X201640549Y-46416860D01*
X201663459Y-46453228D01*
X201664468Y-46452321D01*
X201692163Y-46427438D01*
X201703474Y-46404933D01*
X201705341Y-46395237D01*
X201718258Y-46328156D01*
X201712392Y-46302550D01*
X201698626Y-46337344D01*
X201684087Y-46368501D01*
X201650539Y-46379317D01*
X201636283Y-46378312D01*
X201513876Y-46378312D01*
X201532446Y-46323465D01*
X201564863Y-46262829D01*
X201593876Y-46247464D01*
X201594399Y-46247543D01*
X201612075Y-46250210D01*
X201606223Y-46208499D01*
X201598313Y-46170501D01*
X201652790Y-46170501D01*
X201670307Y-46188018D01*
X201687824Y-46170501D01*
X201670307Y-46152984D01*
X201652790Y-46170501D01*
X201598313Y-46170501D01*
X201596578Y-46162168D01*
X201601639Y-46079035D01*
X201625153Y-46007939D01*
X201660336Y-45977811D01*
X201676116Y-45988889D01*
X201671979Y-46039122D01*
X201670556Y-46042894D01*
X201662495Y-46079273D01*
X201670307Y-46073531D01*
X201691270Y-46058124D01*
X201712392Y-46023235D01*
X201716050Y-46017193D01*
X201690277Y-45963250D01*
X201669897Y-45923331D01*
X201678858Y-45864485D01*
X201705992Y-45809739D01*
X202640960Y-45809739D01*
X202645587Y-45881466D01*
X202657752Y-45887409D01*
X202663258Y-45837673D01*
X202658374Y-45789479D01*
X202645587Y-45793880D01*
X202640960Y-45809739D01*
X201705992Y-45809739D01*
X201725440Y-45770500D01*
X201742978Y-45741309D01*
X201772510Y-45741309D01*
X201776924Y-45755904D01*
X201826572Y-45777392D01*
X201869671Y-45785538D01*
X201898031Y-45780742D01*
X201898008Y-45780106D01*
X201868856Y-45754833D01*
X201815326Y-45738217D01*
X201943108Y-45738217D01*
X201947237Y-45762191D01*
X201958052Y-45777755D01*
X201985617Y-45800902D01*
X201987685Y-45802639D01*
X201992583Y-45802298D01*
X202000298Y-45782018D01*
X201962687Y-45746742D01*
X201943108Y-45738217D01*
X201815326Y-45738217D01*
X201813003Y-45737496D01*
X201772510Y-45741309D01*
X201742978Y-45741309D01*
X201751221Y-45727590D01*
X201756241Y-45720892D01*
X202295088Y-45720892D01*
X202300223Y-45725085D01*
X202341801Y-45720892D01*
X202505295Y-45720892D01*
X202510430Y-45725085D01*
X202552008Y-45720892D01*
X202557489Y-45710354D01*
X202528652Y-45697535D01*
X202510104Y-45700064D01*
X202505295Y-45720892D01*
X202341801Y-45720892D01*
X202347282Y-45710354D01*
X202318445Y-45697535D01*
X202299898Y-45700064D01*
X202295088Y-45720892D01*
X201756241Y-45720892D01*
X201783775Y-45684153D01*
X201898031Y-45684153D01*
X201900312Y-45688946D01*
X201933065Y-45680018D01*
X201943108Y-45673048D01*
X201943436Y-45672820D01*
X201960405Y-45650823D01*
X202295088Y-45650823D01*
X202300223Y-45655016D01*
X202318445Y-45653178D01*
X202341801Y-45650823D01*
X202347282Y-45640285D01*
X202318445Y-45627466D01*
X202299898Y-45629995D01*
X202295088Y-45650823D01*
X201960405Y-45650823D01*
X201968100Y-45640848D01*
X201965819Y-45636056D01*
X201933065Y-45644984D01*
X201922695Y-45652181D01*
X201898031Y-45684153D01*
X201783775Y-45684153D01*
X201798987Y-45663855D01*
X201813003Y-45655302D01*
X201828930Y-45645582D01*
X201861976Y-45637714D01*
X201916296Y-45591606D01*
X201936369Y-45574915D01*
X201968100Y-45574915D01*
X201985617Y-45592432D01*
X202003134Y-45574915D01*
X201985617Y-45557397D01*
X201968100Y-45574915D01*
X201936369Y-45574915D01*
X201957420Y-45557411D01*
X201965819Y-45554613D01*
X201985617Y-45548017D01*
X202039288Y-45530135D01*
X202168287Y-45522363D01*
X202213341Y-45523686D01*
G37*
%TD*%
D12*
X168710000Y-78640000D02*
G75*
G02*
X167710000Y-79640000I-1000000J0D01*
G01*
X168710000Y-30140000D02*
X168710000Y-78640000D01*
X167710000Y-79640000D02*
X167460000Y-79640000D01*
X167710000Y-29140000D02*
G75*
G02*
X168710000Y-30140000I0J-1000000D01*
G01*
X167460000Y-79640000D02*
G75*
G02*
X166460000Y-78640000I0J1000000D01*
G01*
X167460000Y-29140000D02*
X167710000Y-29140000D01*
X166460000Y-78640000D02*
X166460000Y-30140000D01*
X166460000Y-30140000D02*
G75*
G02*
X167460000Y-29140000I1000000J0D01*
G01*
D13*
X40100000Y-25160000D02*
X215100000Y-25160000D01*
X215100000Y-120160000D01*
X40100000Y-120160000D01*
X40100000Y-25160000D01*
M02*
