M48
; DRILL file {KiCad 9.0.9-9.0.9~ubuntu22.04.1} date 2026-06-19T14:08:58+0700
; FORMAT={-:-/ absolute / metric / decimal}
; #@! TF.CreationDate,2026-06-19T14:08:58+07:00
; #@! TF.GenerationSoftware,Kicad,Pcbnew,9.0.9-9.0.9~ubuntu22.04.1
; #@! TF.FileFunction,Plated,1,2,PTH
FMAT,2
METRIC
; #@! TA.AperFunction,Plated,PTH,ViaDrill
T1C0.300
; #@! TA.AperFunction,Plated,PTH,ComponentDrill
T2C0.800
; #@! TA.AperFunction,Plated,PTH,ComponentDrill
T3C0.950
; #@! TA.AperFunction,Plated,PTH,ComponentDrill
T4C1.000
; #@! TA.AperFunction,Plated,PTH,ComponentDrill
T5C1.040
; #@! TA.AperFunction,Plated,PTH,ComponentDrill
T6C1.300
%
G90
G05
T1
X46.751Y-32.44
X46.751Y-92.44
X46.751Y-102.44
X46.751Y-112.44
X56.751Y-32.44
X56.751Y-42.44
X56.751Y-92.44
X56.751Y-112.44
X66.751Y-92.44
X66.751Y-112.44
X76.751Y-32.44
X76.751Y-42.44
X76.751Y-52.44
X76.751Y-72.44
X76.751Y-82.44
X76.751Y-92.44
X76.751Y-102.44
X76.751Y-112.44
X86.751Y-92.44
X86.751Y-112.44
X92.05Y-91.04
X94.72Y-91.01
X96.751Y-32.44
X96.751Y-42.44
X96.751Y-52.44
X96.751Y-72.44
X96.751Y-82.44
X96.751Y-92.44
X96.751Y-102.44
X96.751Y-112.44
X106.751Y-62.44
X106.751Y-72.44
X106.751Y-92.44
X116.751Y-92.44
X116.751Y-102.44
X123.57Y-58.21
X126.751Y-92.44
X126.751Y-102.44
X136.751Y-92.44
X136.751Y-102.44
X136.751Y-112.44
X146.751Y-92.44
X146.751Y-102.44
X146.751Y-112.44
X156.751Y-32.44
X156.751Y-42.44
X156.751Y-72.44
X156.751Y-92.44
X156.751Y-102.44
X156.751Y-112.44
X166.751Y-92.44
X166.751Y-102.44
X166.751Y-112.44
X176.751Y-92.44
X176.751Y-102.44
X176.751Y-112.44
X186.751Y-92.44
X186.751Y-102.44
X186.751Y-112.44
X196.751Y-102.44
X196.751Y-112.44
X206.751Y-112.44
T2
X54.91Y-41.3
X54.91Y-43.8
X55.05Y-31.09
X55.05Y-33.59
X55.21Y-81.75
X55.21Y-84.25
X55.25Y-50.72
X55.25Y-53.22
X55.29Y-59.94
X55.29Y-62.44
X55.35Y-71.558
X55.35Y-74.058
X71.13Y-83.31
X71.334Y-73.306
X71.34Y-62.0
X71.544Y-51.996
X71.636Y-32.996
X71.84Y-43.0
X81.29Y-83.31
X81.494Y-73.306
X81.5Y-62.0
X81.704Y-51.996
X81.796Y-32.996
X82.0Y-43.0
X98.03Y-88.72
X101.53Y-88.72
X117.59Y-43.304
X117.67Y-33.13
X117.68Y-73.508
X117.83Y-53.478
X117.84Y-83.682
X117.99Y-63.652
X127.75Y-43.304
X127.83Y-33.13
X127.84Y-73.508
X127.99Y-53.478
X128.0Y-83.682
X128.15Y-63.652
X145.5Y-51.318
X145.5Y-53.818
X145.5Y-62.0
X145.5Y-64.5
X145.5Y-72.5
X145.5Y-75.0
X145.5Y-83.182
X145.5Y-85.682
X145.63Y-31.12
X145.63Y-33.62
X145.63Y-41.5
X145.63Y-44.0
T3
X53.65Y-108.32
X56.15Y-108.32
X58.65Y-108.32
X64.91Y-32.29
X64.91Y-34.79
X64.91Y-37.29
X64.91Y-39.79
X64.91Y-42.29
X64.93Y-52.14
X64.93Y-54.64
X64.93Y-57.14
X64.93Y-59.64
X64.93Y-62.14
X65.35Y-73.22
X65.35Y-75.72
X65.35Y-78.22
X65.35Y-80.72
X65.35Y-83.22
X136.5Y-73.682
X136.5Y-76.182
X136.5Y-78.682
X136.5Y-81.182
X136.5Y-83.682
X136.6Y-32.55
X136.6Y-35.05
X136.6Y-37.55
X136.6Y-40.05
X136.6Y-42.55
X136.7Y-52.66
X136.7Y-55.16
X136.7Y-57.66
X136.7Y-60.16
X136.7Y-62.66
T4
X107.0Y-100.09
X107.0Y-102.63
X107.0Y-105.17
X107.0Y-107.71
X107.0Y-110.25
X107.0Y-112.79
X129.86Y-100.09
X129.86Y-102.63
X129.86Y-105.17
X129.86Y-107.71
X129.86Y-110.25
X129.86Y-112.79
T5
X87.6Y-29.72
X87.6Y-32.26
X87.6Y-34.8
X87.6Y-37.34
X87.6Y-39.88
X87.6Y-42.42
X87.6Y-44.96
X87.6Y-47.5
X87.6Y-50.04
X87.6Y-52.58
X87.6Y-55.12
X87.6Y-57.66
X87.6Y-60.2
X87.6Y-62.74
X87.6Y-65.28
X87.6Y-67.82
X87.6Y-70.36
X87.6Y-72.9
X87.6Y-75.44
X113.0Y-29.72
X113.0Y-32.26
X113.0Y-34.8
X113.0Y-37.34
X113.0Y-39.88
X113.0Y-42.42
X113.0Y-44.96
X113.0Y-47.5
X113.0Y-50.04
X113.0Y-52.58
X113.0Y-55.12
X113.0Y-57.66
X113.0Y-60.2
X113.0Y-62.74
X113.0Y-65.28
X113.0Y-67.82
X113.0Y-70.36
X113.0Y-72.9
X113.0Y-75.44
T6
X70.06Y-108.63
X75.14Y-108.63
X86.79Y-108.41
X91.87Y-108.41
X143.5Y-97.42
X143.5Y-102.5
X177.0Y-30.8
X177.0Y-52.3
X189.74Y-32.94
X189.79Y-47.27
X192.02Y-85.5
X194.82Y-32.94
X194.87Y-47.27
X197.1Y-85.5
X199.9Y-32.94
X199.95Y-47.27
X208.0Y-97.42
X208.0Y-102.5
M30
